<?xml version="1.0" encoding="utf-8"?>
<!-- Generator: Adobe Illustrator 24.0.2, SVG Export Plug-In . SVG Version: 6.00 Build 0)  -->
<svg version="1.1" id="Lag_1" xmlns="http://www.w3.org/2000/svg" xmlns:xlink="http://www.w3.org/1999/xlink" x="0px" y="0px"
	 viewBox="0 0 1366 768" style="enable-background:new 0 0 1366 768;" xml:space="preserve">
<style type="text/css">
	.st0{fill:#DDDDDD;}
	.st1{fill:#A8A8A8;}
</style>
<title>imgpreview</title>
<rect x="0.5" y="0.5" class="st0" width="1365" height="767"/>
<g>
	<g>
		<path class="st1" d="M223.3,426.2c-1.5,0-2.6-0.5-3.6-1.4c-0.9-0.9-1.4-2.1-1.4-3.6v-90c0-1.4,0.5-2.6,1.4-3.6
			c0.9-0.9,2.1-1.4,3.6-1.4c1.5,0,2.6,0.5,3.6,1.4c0.9,0.9,1.4,2.1,1.4,3.6v90c0,1.5-0.5,2.6-1.4,3.6
			C225.9,425.7,224.7,426.2,223.3,426.2z"/>
		<path class="st1" d="M257.6,426.2c-1.5,0-2.8-0.4-3.6-1.3c-0.9-0.9-1.3-2.1-1.3-3.5v-60.2c0-1.5,0.4-2.6,1.3-3.6
			c0.9-0.9,2.1-1.4,3.6-1.4c1.4,0,2.6,0.5,3.5,1.4c0.9,0.9,1.3,2.1,1.3,3.6v60.2c0,1.5-0.4,2.6-1.3,3.5
			C260.2,425.8,259,426.2,257.6,426.2z M302.5,426.2c-1.5,0-2.6-0.4-3.6-1.3c-0.9-0.9-1.4-2.1-1.4-3.5v-36.9
			c0-6.1-1.6-10.9-4.7-14.4c-3.2-3.5-7.2-5.3-12.2-5.3c-5.3,0-9.6,1.7-13.1,5.2c-3.4,3.5-5.1,8-5.1,13.5h-7
			c0.2-5.5,1.4-10.3,3.6-14.5c2.3-4.2,5.4-7.5,9.3-9.9c3.9-2.4,8.4-3.6,13.3-3.6c5,0,9.5,1.2,13.4,3.6c3.9,2.4,6.9,5.8,9.1,10.1
			c2.2,4.4,3.3,9.5,3.3,15.4v36.9c0,1.5-0.4,2.6-1.3,3.5C305.1,425.8,304,426.2,302.5,426.2z M347.2,426.2c-1.5,0-2.6-0.4-3.6-1.3
			c-0.9-0.9-1.4-2.1-1.4-3.5v-36.9c0-6.1-1.6-10.9-4.7-14.4c-3.2-3.5-7.2-5.3-12.2-5.3c-5.3,0-9.6,1.8-13,5.3
			c-3.4,3.5-5,8.3-4.9,14.1h-8.8c0.1-5.7,1.3-10.8,3.7-15.1c2.4-4.4,5.7-7.7,9.9-10.1c4.2-2.4,8.9-3.6,14.2-3.6
			c5,0,9.5,1.2,13.4,3.6c3.9,2.4,6.9,5.8,9.1,10.1c2.2,4.4,3.3,9.5,3.3,15.4v36.9c0,1.5-0.4,2.6-1.3,3.5
			C349.8,425.8,348.6,426.2,347.2,426.2z"/>
		<path class="st1" d="M404.7,426.8c-6.6,0-12.5-1.6-17.7-4.7c-5.2-3.1-9.3-7.4-12.4-12.7c-3-5.4-4.5-11.4-4.5-18.2
			c0-6.8,1.6-12.9,4.7-18.3c3.1-5.4,7.4-9.6,12.7-12.7c5.4-3.1,11.4-4.7,18.2-4.7c6.7,0,12.8,1.6,18.1,4.7
			c5.3,3.1,9.6,7.4,12.7,12.7c3.1,5.4,4.7,11.5,4.8,18.3l-4,3.1c0,6.1-1.4,11.7-4.3,16.6c-2.9,4.9-6.7,8.8-11.6,11.6
			C416.5,425.4,410.9,426.8,404.7,426.8z M405.7,417.9c4.9,0,9.4-1.2,13.2-3.5c3.9-2.3,7-5.5,9.2-9.5c2.3-4.1,3.4-8.6,3.4-13.6
			c0-5.1-1.1-9.7-3.4-13.7c-2.3-4-5.3-7.2-9.2-9.5c-3.9-2.3-8.3-3.5-13.2-3.5c-4.9,0-9.3,1.2-13.2,3.5c-3.9,2.3-7,5.5-9.3,9.5
			c-2.3,4-3.5,8.6-3.5,13.7c0,5,1.2,9.6,3.5,13.6c2.3,4.1,5.4,7.2,9.3,9.5C396.4,416.7,400.8,417.9,405.7,417.9z M436.3,426.2
			c-1.5,0-2.6-0.4-3.6-1.3c-0.9-0.9-1.4-2.1-1.4-3.5v-21.9l2.4-10.1l7.6,1.9v30.1c0,1.5-0.5,2.6-1.4,3.5
			C438.9,425.8,437.7,426.2,436.3,426.2z"/>
		<path class="st1" d="M491.3,426.8c-6.7,0-12.7-1.5-17.9-4.5c-5.2-3-9.3-7.2-12.2-12.6c-2.9-5.4-4.4-11.5-4.4-18.4
			c0-7,1.5-13.2,4.6-18.6s7.3-9.6,12.7-12.6c5.4-3,11.5-4.5,18.3-4.5c6.9,0,13,1.5,18.4,4.5c5.3,3,9.5,7.2,12.5,12.6
			c3,5.4,4.6,11.6,4.7,18.6l-5.8,3.1c0,6.3-1.3,11.9-4,16.8c-2.6,4.9-6.3,8.7-10.9,11.5C502.6,425.5,497.3,426.8,491.3,426.8z
			 M492.6,453.9c-6.7,0-12.7-1.3-17.8-3.8c-5.1-2.5-9.3-6-12.7-10.3c-0.9-1-1.3-2.1-1.2-3.3c0.1-1.2,0.7-2.2,1.9-2.9
			c1.1-0.8,2.3-1,3.7-0.8c1.4,0.3,2.4,0.9,3.2,1.9c2.5,3.1,5.7,5.5,9.5,7.4c3.9,1.9,8.4,2.8,13.5,2.8c4.8,0,9.1-1.2,12.9-3.5
			c3.8-2.3,6.9-5.5,9.2-9.7c2.3-4.2,3.4-9.1,3.4-14.7v-19.5l3.7-7.4l6,1.2v26.1c0,6.9-1.5,13.1-4.6,18.6c-3.1,5.5-7.3,9.9-12.5,13.1
			C505.5,452.3,499.4,453.9,492.6,453.9z M492.3,417.9c5,0,9.5-1.1,13.4-3.4c3.9-2.3,6.9-5.4,9.2-9.4c2.2-4,3.3-8.6,3.3-13.8
			c0-5.2-1.1-9.8-3.3-13.9c-2.2-4.1-5.3-7.2-9.2-9.5c-3.9-2.3-8.3-3.4-13.4-3.4c-5,0-9.5,1.1-13.4,3.4c-3.9,2.3-7,5.4-9.2,9.5
			c-2.2,4.1-3.3,8.7-3.3,13.9c0,5.2,1.1,9.8,3.3,13.8c2.2,4,5.3,7.1,9.2,9.4C482.8,416.8,487.3,417.9,492.3,417.9z"/>
		<path class="st1" d="M578.9,426.8c-6.9,0-13-1.5-18.4-4.5c-5.3-3-9.5-7.2-12.5-12.6c-3-5.4-4.5-11.5-4.5-18.4
			c0-7,1.4-13.2,4.3-18.5c2.9-5.3,6.8-9.5,11.8-12.6c5-3.1,10.8-4.6,17.4-4.6c6.5,0,12.1,1.5,17,4.4c4.8,2.9,8.6,7,11.2,12.2
			c2.6,5.2,4,11.1,4,17.8c0,1.4-0.4,2.5-1.3,3.3c-0.9,0.8-2,1.2-3.3,1.2h-54.4v-8.2h55.4l-5.5,4c0.1-4.9-0.8-9.4-2.7-13.3
			c-1.9-3.9-4.5-7-8-9.2c-3.5-2.2-7.6-3.3-12.4-3.3c-4.9,0-9.1,1.2-12.8,3.5c-3.7,2.3-6.5,5.5-8.5,9.5c-2,4.1-3,8.7-3,13.9
			c0,5.2,1.1,9.8,3.4,13.8c2.3,4,5.4,7.2,9.3,9.5c3.9,2.3,8.4,3.5,13.6,3.5c3.1,0,6.2-0.5,9.3-1.6c3.1-1.1,5.6-2.4,7.5-4
			c0.9-0.8,2-1.2,3.2-1.2c1.2,0,2.2,0.3,3.1,1c1.1,1,1.7,2.1,1.7,3.3c0,1.2-0.4,2.2-1.5,3.1c-2.8,2.4-6.4,4.4-10.8,6
			C587.1,426.1,582.9,426.8,578.9,426.8z"/>
		<path class="st1" d="M668.2,456.2c-1.5,0-2.8-0.4-3.6-1.3c-0.9-0.9-1.3-2.1-1.3-3.6v-60.4c0.1-6.7,1.7-12.7,4.8-18
			c3.1-5.3,7.3-9.5,12.7-12.6c5.3-3.1,11.3-4.6,18-4.6c6.8,0,12.9,1.6,18.3,4.7c5.4,3.1,9.6,7.4,12.7,12.7
			c3.1,5.4,4.7,11.5,4.7,18.3c0,6.7-1.5,12.8-4.5,18.2c-3,5.4-7.1,9.6-12.4,12.7c-5.2,3.1-11.1,4.7-17.7,4.7
			c-5.7,0-10.9-1.2-15.6-3.6c-4.7-2.4-8.4-5.7-11.2-9.7v37.6c0,1.5-0.4,2.8-1.3,3.6C670.8,455.7,669.7,456.2,668.2,456.2z
			 M698.7,417.9c4.9,0,9.4-1.2,13.3-3.5c3.9-2.3,7-5.5,9.3-9.5c2.3-4.1,3.4-8.6,3.4-13.6c0-5.1-1.1-9.7-3.4-13.7
			c-2.3-4-5.4-7.2-9.3-9.5c-3.9-2.3-8.4-3.5-13.3-3.5c-4.9,0-9.3,1.2-13.2,3.5c-3.9,2.3-7,5.5-9.2,9.5c-2.2,4-3.3,8.6-3.3,13.7
			c0,5,1.1,9.6,3.3,13.6c2.2,4.1,5.3,7.2,9.2,9.5C689.4,416.7,693.8,417.9,698.7,417.9z"/>
		<path class="st1" d="M758.6,426.2c-1.5,0-2.7-0.4-3.6-1.3c-0.9-0.9-1.3-2-1.3-3.6v-60.3c0-1.5,0.4-2.7,1.3-3.6
			c0.9-0.9,2-1.3,3.6-1.3s2.7,0.4,3.6,1.3c0.9,0.9,1.3,2,1.3,3.6v60.3c0,1.5-0.4,2.7-1.3,3.6C761.3,425.8,760.1,426.2,758.6,426.2z
			 M757.8,383.1c0.3-5.3,1.6-10,4.2-14.2c2.5-4.2,5.8-7.5,9.9-9.9c4.1-2.4,8.6-3.6,13.5-3.6c3.9,0,7,0.6,9.1,1.7
			c2.1,1.1,2.9,2.7,2.4,4.9c-0.3,1.3-0.9,2.1-1.7,2.6c-0.8,0.4-1.8,0.6-2.9,0.5c-1.2-0.1-2.5-0.2-3.9-0.3c-4.8-0.4-9,0.1-12.7,1.5
			s-6.7,3.6-8.8,6.5c-2.2,2.9-3.3,6.4-3.3,10.4H757.8z"/>
		<path class="st1" d="M844.1,426.8c-6.9,0-13-1.5-18.4-4.5c-5.3-3-9.5-7.2-12.5-12.6c-3-5.4-4.5-11.5-4.5-18.4
			c0-7,1.4-13.2,4.3-18.5c2.9-5.3,6.8-9.5,11.8-12.6c5-3.1,10.8-4.6,17.4-4.6c6.5,0,12.1,1.5,17,4.4c4.8,2.9,8.6,7,11.2,12.2
			c2.6,5.2,4,11.1,4,17.8c0,1.4-0.4,2.5-1.3,3.3c-0.9,0.8-2,1.2-3.3,1.2h-54.4v-8.2h55.4l-5.5,4c0.1-4.9-0.8-9.4-2.7-13.3
			c-1.9-3.9-4.5-7-8-9.2c-3.5-2.2-7.6-3.3-12.4-3.3c-4.9,0-9.1,1.2-12.8,3.5c-3.7,2.3-6.5,5.5-8.5,9.5c-2,4.1-3,8.7-3,13.9
			c0,5.2,1.1,9.8,3.4,13.8c2.3,4,5.4,7.2,9.3,9.5c3.9,2.3,8.4,3.5,13.6,3.5c3.1,0,6.2-0.5,9.3-1.6c3.1-1.1,5.6-2.4,7.5-4
			c0.9-0.8,2-1.2,3.2-1.2c1.2,0,2.2,0.3,3.1,1c1.1,1,1.7,2.1,1.7,3.3c0,1.2-0.4,2.2-1.5,3.1c-2.8,2.4-6.4,4.4-10.8,6
			C852.3,426.1,848.1,426.8,844.1,426.8z"/>
		<path class="st1" d="M914.9,426.2c-2,0-3.6-1.1-4.6-3.3l-28.4-60.3c-0.5-1.1-0.6-2.2-0.1-3.3c0.4-1.1,1.3-2,2.6-2.6
			c1.2-0.6,2.3-0.7,3.5-0.3c1.1,0.4,2,1.2,2.6,2.3l27.3,59h-5.2l26.9-59c0.5-1.2,1.4-2,2.6-2.4c1.2-0.4,2.5-0.3,3.6,0.2
			c1.2,0.6,2,1.5,2.4,2.6c0.4,1.2,0.4,2.2-0.1,3.3l-28,60.4C918.7,425.1,917.1,426.2,914.9,426.2z"/>
		<path class="st1" d="M968.6,342.9c-1.9,0-3.5-0.7-4.9-2c-1.4-1.4-2-3-2-5c0-2.1,0.7-3.8,2.1-5.1c1.4-1.2,3-1.9,4.9-1.9
			c1.8,0,3.4,0.6,4.8,1.9c1.4,1.2,2.1,2.9,2.1,5.1c0,2-0.7,3.6-2,5C972.3,342.2,970.6,342.9,968.6,342.9z M968.8,426.2
			c-1.5,0-2.8-0.4-3.6-1.3c-0.9-0.9-1.3-2.1-1.3-3.6v-60c0-1.5,0.4-2.8,1.3-3.6c0.9-0.9,2.1-1.3,3.6-1.3c1.5,0,2.6,0.4,3.5,1.3
			c0.9,0.9,1.3,2.1,1.3,3.6v60c0,1.5-0.4,2.8-1.3,3.6C971.4,425.8,970.2,426.2,968.8,426.2z"/>
		<path class="st1" d="M1030.5,426.8c-6.9,0-13-1.5-18.4-4.5c-5.3-3-9.5-7.2-12.5-12.6c-3-5.4-4.5-11.5-4.5-18.4
			c0-7,1.4-13.2,4.3-18.5c2.9-5.3,6.8-9.5,11.8-12.6c5-3.1,10.8-4.6,17.4-4.6c6.5,0,12.1,1.5,17,4.4c4.8,2.9,8.6,7,11.2,12.2
			c2.6,5.2,4,11.1,4,17.8c0,1.4-0.4,2.5-1.3,3.3c-0.9,0.8-2,1.2-3.3,1.2h-54.4v-8.2h55.4l-5.5,4c0.1-4.9-0.8-9.4-2.7-13.3
			c-1.9-3.9-4.5-7-8-9.2c-3.5-2.2-7.6-3.3-12.4-3.3c-4.9,0-9.1,1.2-12.8,3.5c-3.7,2.3-6.5,5.5-8.5,9.5c-2,4.1-3,8.7-3,13.9
			c0,5.2,1.1,9.8,3.4,13.8c2.3,4,5.4,7.2,9.3,9.5c3.9,2.3,8.4,3.5,13.6,3.5c3.1,0,6.2-0.5,9.3-1.6c3.1-1.1,5.6-2.4,7.5-4
			c0.9-0.8,2-1.2,3.2-1.2c1.2,0,2.2,0.3,3.1,1c1.1,1,1.7,2.1,1.7,3.3c0,1.2-0.4,2.2-1.5,3.1c-2.8,2.4-6.4,4.4-10.8,6
			C1038.6,426.1,1034.5,426.8,1030.5,426.8z"/>
		<path class="st1" d="M1093.2,426.2c-1.1,0-2.1-0.3-2.9-0.9c-0.9-0.6-1.5-1.4-1.8-2.3l-20-59.9c-0.5-2.1-0.5-3.8,0.1-5.1
			c0.6-1.2,1.8-1.9,3.6-1.9c1.1,0,2.1,0.3,2.9,0.9c0.9,0.6,1.5,1.5,1.9,2.8l17.8,54.4h-2.8l16.5-54.3c0.3-1.1,0.9-2,1.7-2.8
			c0.8-0.7,1.9-1.1,3.1-1.1s2.3,0.3,3.1,1c0.8,0.7,1.4,1.6,1.7,2.8l15.7,53h-2.2l17.4-53.1c0.9-2.5,2.4-3.7,4.7-3.7
			c1.9,0,3.2,0.7,3.8,2.1c0.7,1.4,0.7,3,0,4.8l-20,59.9c-0.3,0.9-0.9,1.7-1.7,2.3c-0.8,0.6-1.8,0.9-2.9,0.9c-1.1,0-2.1-0.3-3-0.9
			c-0.9-0.6-1.5-1.4-1.7-2.3l-16.1-53.5h1.5l-16.1,53.5c-0.3,1-0.9,1.8-1.8,2.4C1095.1,425.9,1094.2,426.2,1093.2,426.2z"/>
	</g>
</g>
</svg>
