<svg id="Layer_1" data-name="Layer 1" xmlns="http://www.w3.org/2000/svg" viewBox="0 0 3652.73 4815.84"><defs><style>.cls-1{fill:#d84444;}.cls-1,.cls-10,.cls-12,.cls-14,.cls-15,.cls-16,.cls-17,.cls-2,.cls-20,.cls-3,.cls-6,.cls-7,.cls-8,.cls-9{stroke:#000;}.cls-1,.cls-12,.cls-14,.cls-15,.cls-16,.cls-17,.cls-2,.cls-20,.cls-3,.cls-6,.cls-7,.cls-8,.cls-9{stroke-linejoin:round;}.cls-1,.cls-14,.cls-15,.cls-16,.cls-18,.cls-19,.cls-2,.cls-20,.cls-3,.cls-7,.cls-8,.cls-9{stroke-width:50px;}.cls-12,.cls-13,.cls-2{fill:#c8a4a8;}.cls-3{fill:#94553b;}.cls-4{fill:#46acce;}.cls-5{fill:#8a2475;}.cls-6,.cls-9{fill:#5d7034;}.cls-12,.cls-6{stroke-width:30px;}.cls-7{fill:#b3b9a4;}.cls-15,.cls-18,.cls-19,.cls-8{fill:none;}.cls-10,.cls-11{fill:#696472;}.cls-10,.cls-18,.cls-19{stroke-miterlimit:10;}.cls-10{stroke-width:35px;}.cls-14{fill:#ee5314;}.cls-15,.cls-16,.cls-17,.cls-18,.cls-19{stroke-linecap:round;}.cls-17{stroke-width:60px;}.cls-18{stroke:#dc694b;}.cls-19{stroke:#e99d60;}.cls-20{fill:#da0e1b;}</style></defs><title>frisørting</title><path id="dress_underside" data-name="dress underside" class="cls-1" d="M2306,3644.72c9.29,19.23,25.77,34,43.25,46.29,75.83,53.15,172.95,65.5,254.7,109,59.32,31.56,108.73,78.51,162.79,118.42,77.67,57.33,164.93,100.07,251.64,142.48,128.4,62.8,257.44,125.86,394,167.91C3462.5,4244.23,3530.7,4248,3583,4245s185.48-68.3,177-120c-10-61-22.14-3.12-39-34-15.44-28.22-48.52-40.76-78.52-52.38-200.2-77.5-375-207.2-558.63-318.35s-387.27-206.8-601.93-203.67C2419,3517.56,2257.92,3545.21,2306,3644.72Z" transform="translate(-693.43 -242.95)"/><g id="feet"><g id="foot_left" data-name="foot left"><path class="cls-2" d="M2629,3525.36c2.82-11,5.72-23,1-33.29-3.56-7.82-10.89-13.19-18.2-17.71-52.17-32.31-119.66-38.52-176.85-16.29,1.45-6.57-8.68-10.51-14.16-6.62s-6.92,11.29-7.89,17.94a2213.69,2213.69,0,0,0-16.66,487.66c1.88,24.54,4.38,49.78,15.91,71.52,11.77,22.18,31.9,38.69,52.8,52.6,32.26,21.47,85.91,57.15,126.83,48.65,49.63-10.3,21.15-74.07,15.74-106.74a1215.78,1215.78,0,0,1-10.14-319.65A1195.64,1195.64,0,0,1,2629,3525.36Z" transform="translate(-693.43 -242.95)"/><path class="cls-3" d="M2230.82,3840.18c27.66,5,53.07,18.33,77.28,32.6,100.09,59,187.57,136.79,274.35,214,29,25.78,60.24,56.5,60.11,95.28-.1,31.94-23,60.43-51,75.77s-60.58,19.82-92.39,22.76c-54.78,5-111.61,6-163-13.68-74.37-28.59-127.26-97.75-155.06-172.41-22.34-60-30.66-123.93-36.13-187.37-1.7-19.7-6.22-41.56,11.7-54.89C2176.53,3837.56,2207.63,3836,2230.82,3840.18Z" transform="translate(-693.43 -242.95)"/></g><g id="foot_right" data-name="foot right"><path class="cls-2" d="M2908.22,4304.87c3.22,12.13,6.9,24.64,15.2,34.06,15.07,17.12,40.52,19.32,63.32,20.3l168,7.26a1076.32,1076.32,0,0,1-56-426.7c1.4-19.55,3.31-39.45-1.1-58.54-9.16-39.56-45-69-84.06-80.07-26-7.36-80.16-16.45-102.62,4.32-18.85,17.43-19.24,63.83-23,86.95a996,996,0,0,0-7,265.42A982.17,982.17,0,0,0,2908.22,4304.87Z" transform="translate(-693.43 -242.95)"/><path class="cls-3" d="M3144.05,4359.18c-36.68-21.89-79.62-30.46-121.84-37a1585.74,1585.74,0,0,0-200-17.89c-28.83-.75-59.14-.35-84.37,13.63s-42.76,46.08-30.95,72.39c10.27,22.87,37,32.48,61,39.78,127.81,38.9,257.28,78.08,390.75,84,15.7.69,31.89.84,46.52-4.88,13.61-5.31,31.73-21.06,28.48-37.79-2.33-11.93-16.14-15.64-22.2-25.5-9.59-15.58-12.36-33.43-24-48.63A154.75,154.75,0,0,0,3144.05,4359.18Z" transform="translate(-693.43 -242.95)"/></g></g><g id="skateboard"><path class="cls-4" d="M3149.1,4463.9c-398.17-53.6-771.55-276.55-1005.61-603.42-52.35-73.11-98.77-151.85-155.82-220.75-231.7,148.31-403.75,319.56-495.5,420.9,23.67,48.69,57.79,91.6,88.92,135.66,150.83,213.45,346.81,394.35,569.73,530.49,202.3,123.55,427.37,210.47,661,251.13C2918.25,4842.35,3065,4641,3149.1,4463.9Z" transform="translate(-693.43 -242.95)"/><path class="cls-5" d="M2878.58,4988.24c109,15.05,222.16,19.61,326.92-13.92S3405.89,4862.8,3436,4757s-22.49-235.68-126.75-270.73c-31.26-10.51-64.64-12.42-97.5-15.35q-31.39-2.81-62.63-7c-84.08,177.1-230.85,378.45-337.28,514C2811.82,4977.91,2815.16,4979.49,2878.58,4988.24Z" transform="translate(-693.43 -242.95)"/><path class="cls-5" d="M1987.67,3639.73c-231.7,148.31-403.75,319.56-495.5,420.9-2.9-6-5.66-12-8.22-18.17-25.37-60.95-38.22-131.9-46.56-197.12-4.46-34.84-6.37-70.08-4.1-105.16,6.09-94.26,48.35-191.43,129.8-239.27,108.81-63.91,253.37-20.79,349.27,61.23C1912.36,3562.14,1955.35,3599.45,1987.67,3639.73Z" transform="translate(-693.43 -242.95)"/><path d="M3027.12,5029.61c-54.93,0-107-5.49-152.56-11.64-129.14-17.46-258.18-49.28-383.53-94.57a1965.58,1965.58,0,0,1-355.84-171,1990.86,1990.86,0,0,1-316.69-239.88,1927.69,1927.69,0,0,1-261.91-298.9c-6.35-9-13-18.16-19.42-27-29.71-41-60.43-83.4-80.91-132.6-29-69.7-41.65-150.29-48.63-204.84-5.12-40-6.52-76.27-4.28-110.9,3.43-53,17.21-104.47,39.87-148.77,25.32-49.51,61.52-89.08,104.67-114.43,57.37-33.7,126.83-43.24,200.88-27.6,64.79,13.69,129.81,46.33,183.09,91.9,74.4,63.64,128.84,145.11,181.48,223.9,17.67,26.45,35.95,53.79,54.54,79.76a1414,1414,0,0,0,207.17,230.31,1484.33,1484.33,0,0,0,535.76,306.15A1413.5,1413.5,0,0,0,3214.4,4441l10.56.92c30.74,2.63,62.53,5.35,93.83,15.87,57.4,19.3,104.13,63.7,131.58,125,25.78,57.58,31.05,124,14.47,182.36-15.77,55.42-49,107.21-96,149.78-43.05,39-96.38,69.38-154.23,87.9C3152.18,5022.88,3087.93,5029.61,3027.12,5029.61ZM1463.23,3742.11c-2,30.76-.71,63.28,3.92,99.42,6.54,51.13,18.27,126.38,44.5,189.4,17.79,42.73,45.14,80.48,74.11,120.45,6.53,9,13.28,18.32,19.83,27.6a1867.39,1867.39,0,0,0,253.75,289.57,1930.05,1930.05,0,0,0,307.12,232.63,1905.79,1905.79,0,0,0,345,165.79,1807.34,1807.34,0,0,0,371.18,91.54c89.64,12.12,206.32,21.62,313.76-12.77,49.76-15.92,95.49-41.94,132.25-75.22,38.68-35,65.83-77.12,78.51-121.73,12.79-45,8.59-96.51-11.51-141.43-20.53-45.85-54.6-78.75-95.94-92.65-24.47-8.23-51.36-10.53-79.83-13l-10.77-.94a1473.35,1473.35,0,0,1-316.5-64.17,1544.07,1544.07,0,0,1-557.51-318.58,1473.68,1473.68,0,0,1-216-240.11c-19.16-26.75-37.71-54.51-55.64-81.36-52.71-78.87-102.49-153.38-170.6-211.64-45.78-39.15-101.36-67.13-156.5-78.78-41.25-8.72-102.17-12.22-158.08,20.62-33.77,19.84-61.24,50.12-81.64,90-19,37.06-30.51,80.4-33.41,125.31Z" transform="translate(-693.43 -242.95)"/><path class="cls-6" d="M2075,4187l-78,77s-184-83-271-263l102-56S1897,4074,2075,4187Z" transform="translate(-693.43 -242.95)"/><path class="cls-6" d="M2614,4540s118,131,260,185l-70,100s-207-10-332-204Z" transform="translate(-693.43 -242.95)"/><path class="cls-7" d="M2556,4784.61c27.09,19.32,47.89,50,57.56,80.05a158.31,158.31,0,0,1-.81,98.41c-9.7,28.64-29.38,52.17-58.16,62.74-17.3,6.35-36,8.18-54.39,8-33.42-.4-68.5-8.33-92.81-31.27-33.31-31.44-46-90.8-36.75-134.61,6.49-30.84,26.08-55.44,50.73-74.14,29.27-22.22,65.8-36.38,102.48-25.26A111.42,111.42,0,0,1,2556,4784.61Z" transform="translate(-693.43 -242.95)"/><path class="cls-8" d="M2526.34,4892c-2,6.15-6.62,11.16-12,14.66-10.94,7.05-26.82,8.2-35.81-2.68-6.5-7.87-6.66-18.8.24-26.34C2491.94,4863.23,2535,4864.62,2526.34,4892Z" transform="translate(-693.43 -242.95)"/><line class="cls-9" x1="1801.57" y1="4656.05" x2="2139.57" y2="4344.05"/><path class="cls-7" d="M2787.81,4445.45c23.16-1.91,46.75,2.44,65,12.71,25.35,14.28,45,37.09,60.1,61.95,10.24,16.83,18.71,35,22.24,54.39s1.85,40.11-7.28,57.56c-12.15,23.25-36.62,38.58-62.38,43.56s-52.62.56-77.32-8.3c-23.56-8.46-46.25-21.43-61.54-41.26-18.54-24-24.33-55.55-25.62-85.88-.68-16-.13-32.67,6.94-47.05C2722.38,4463.74,2754.66,4448.18,2787.81,4445.45Z" transform="translate(-693.43 -242.95)"/><path class="cls-8" d="M2825.87,4557.51c1.27,1.53,2.51,3.35,2.31,5.34-.24,2.36-2.46,4.07-4.73,4.77a13.93,13.93,0,0,1-10.2-1,20.84,20.84,0,0,1-7.71-6.95c-3.81-5.49-.55-11.53,6.2-12C2817.14,4547.22,2822.76,4553.77,2825.87,4557.51Z" transform="translate(-693.43 -242.95)"/><path class="cls-7" d="M1752,4149.42c31.57,24.36,52.81,59.93,67.55,97,8.69,21.84,15.47,45.36,12.16,68.63-2.9,20.46-13.56,39.32-27.77,54.33a129.22,129.22,0,0,1-162.74,20.48c-37.16-23.42-60.5-65.59-65.84-109.2-5.3-43.26,5.9-87.56,26.45-125.6,7.39-13.69,18.85-27.83,34.88-31.21a159.18,159.18,0,0,1,50.82-1.77C1710.87,4125.15,1733.32,4135,1752,4149.42Z" transform="translate(-693.43 -242.95)"/><path class="cls-8" d="M1718.24,4272.39c-.66,6-3.87,11.89-9,15.09a18,18,0,0,1-21.87-2.79c-9.47-9.95-12.7-35.14,3-41C1706.6,4237.54,1719.78,4258.34,1718.24,4272.39Z" transform="translate(-693.43 -242.95)"/><line class="cls-8" x1="1014.57" y1="4017.05" x2="1376.57" y2="3749.05"/><path class="cls-7" d="M2029.88,3851.48a116.16,116.16,0,0,1,19.25,1.32c28.22,4.39,53.88,19.7,74.73,39.2,23.87,22.34,42.45,50.93,50.14,82.71a145.44,145.44,0,0,1-16.89,108.47c-9,14.78-21.13,28.25-36.92,35.28-16.22,7.21-34.82,7-52.33,4.09a182.08,182.08,0,0,1-152-189.15c1-20,6.29-40.94,22.37-54.27,14-11.57,33.07-15.82,50.07-20.9A152.37,152.37,0,0,1,2029.88,3851.48Z" transform="translate(-693.43 -242.95)"/><path class="cls-8" d="M2079,3989.72c.27,7.09-4.4,13.73-10.5,17.37a27,27,0,0,1-22.82,2.13c-14.67-5.38-26.55-32.28-6.65-38.78C2052.28,3966.1,2078.34,3973.41,2079,3989.72Z" transform="translate(-693.43 -242.95)"/></g><g id="arm_left" data-name="arm left"><path id="arm" class="cls-2" d="M1961.1,3217.91c-10.73,1.38-23.23,2.19-30.69-5.64-7.17-7.52-6.2-19.39-4.76-29.68,8.37-59.63,14.73-86.25,23.09-145.88,105.88,23.4,216.32,20.84,323.32,3.27s211-49.86,313.38-85.66c24.76,44.31,51.49,101.5,54.87,153,1,15.52-9.73,14.32-23.8,18.76s-28.3,8.75-42.52,12.88q-41.26,12-83,22.32c-112.36,27.9-226.47,44.23-342,50.74C2078,3216,2024.73,3209.67,1961.1,3217.91Z" transform="translate(-693.43 -242.95)"/><g id="scissors"><path class="cls-10" d="M1413.82,3208.63c-74,5.13-149.52,10.14-221.52-7.84-52.55-13.12-101.29-38-149.49-62.74-76.62-39.28-153.56-78.75-223.59-128.84-40.5-29-81.23-66.06-88.09-115.38l520.44,95c51.91,9.48,104,19,156.75,21.26,90.37,3.91,185.28-12.74,268.39,23,11.28,4.85,22.9,11.35,28.14,22.45,10.2,21.6-8,49.07-15.68,68.93-6.31,16.3-12.13,24.68-27.7,33-47,25.19-101.44,36.15-153.84,42.8C1476.48,3204.2,1445.14,3206.46,1413.82,3208.63Z" transform="translate(-693.43 -242.95)"/><path class="cls-10" d="M756.44,2666.44c104.47-34.44,211.55-69.29,321.5-66.12,94.41,2.73,185.9,33.51,272.15,72,113.63,50.73,221.31,115.64,315.9,196.51,22.09,18.89,44,39.45,55.75,66.05,8.07,18.34,16.6,71.69-12.75,77-21.63,3.89-61.63-28.65-80-38q-100-50.85-203.83-93.86c-138.37-57.71-280.57-105.88-424.44-147.9C919.77,2708.51,838.27,2686.81,756.44,2666.44Z" transform="translate(-693.43 -242.95)"/><path class="cls-10" d="M1701.28,2978c8,3.74,11.49,13,14.27,21.31,3.9,11.71,7.62,25.26,1.12,35.75-5.42,8.73-16.23,12.28-26.29,14.42-14.9,3.17-32.35,4-43.37-6.52-9.11-8.69-10.85-23.31-6.3-35,3.92-10.11,12.82-20.78,23-25.15C1673.48,2978.55,1691.34,2973.35,1701.28,2978Z" transform="translate(-693.43 -242.95)"/><path class="cls-11" d="M1865.8,3410.45c-23.27,0-41.65-3.72-57.84-11.71-21.44-10.59-37.1-28.07-50.83-45.39-54.07-68.19-83.44-137.19-87.28-205.09-1.65-29,2.08-55.24,11.07-78,4.34-11,8.87-21.54,16.56-29.67a38.37,38.37,0,0,1,28.41-12.55,47.16,47.16,0,0,1,15.58,2.79c21.91,7.7,43.35,17,64.09,26l4.91,2.12c15.44,6.69,31.8,11.24,49.12,16,14.22,4,28.9,8,43.38,13.46,5,1.87,10,3.78,15,5.69l.13,0c19.29,7.4,37.51,14.39,56.42,19.31,4.58,1.19,10,2.05,15.77,3,17.34,2.73,38.92,6.12,54.38,22.25,9,9.34,13.48,20.69,16.71,30.56,14.52,44.31,10.62,87.32-12.28,135.35-13,27.37-34.87,50.15-54.5,68.82-27.82,26.45-64.73,32.49-90.08,34.72l-2.33.21C1891,3409.33,1878.45,3410.45,1865.8,3410.45Zm-144-334.43c-1.52,3.34-3,7-3.73,8.92-6.85,17.34-9.65,37.89-8.34,61.06,3.37,59.49,29.85,120.9,78.69,182.5,10.83,13.66,22.83,27.28,37.2,34.37,10.55,5.21,23.16,7.63,39.68,7.64,10.72,0,21.67-1,33.26-2l2.35-.21c30.78-2.72,51.76-10.3,66-23.87,17-16.15,35.72-35.55,46-57,18.69-39.23,21.79-70.84,10.37-105.69-2.6-7.93-4.86-12.51-7.57-15.34-5.7-5.94-16.26-8-31.72-10.41-6.48-1-13.16-2.07-19.63-3.76-21.08-5.48-41.21-13.2-60.68-20.67l-.46-.17q-7.17-2.76-14.33-5.46c-12.85-4.81-26.06-8.48-40-12.37-17.89-5-36.35-10.1-54.32-17.88l-4.89-2.12c-18.06-7.83-36.73-15.93-55.29-22.74l-8.69-3.2Z" transform="translate(-693.43 -242.95)"/><path d="M1725.9,3038a37,37,0,0,1,12.25,2.23c21.57,7.58,42.86,16.81,63.47,25.75l4.87,2.11c16.08,7,32.76,11.6,50.45,16.51,14,3.89,28.45,7.91,42.52,13.18,4.93,1.85,10,3.78,14.84,5.65l.16.06c19.56,7.5,38,14.59,57.5,19.65,5,1.31,10.72,2.21,16.73,3.15,15.86,2.49,35.59,5.6,48.71,19.29,7.56,7.87,11.4,17.51,14.43,26.76,6.89,21,9.34,41.32,7.5,62-1.88,21.05-8.2,42.61-19.3,65.91-12.34,25.9-33.4,47.83-52.37,65.87-11.29,10.74-24.92,18.6-41.66,24-16.06,5.22-31.9,7.05-42.41,8l-2.33.21c-11.43,1-23.25,2.06-35.46,2.06-21.67,0-38.65-3.39-53.41-10.68-19.68-9.71-34.42-26.23-47.43-42.63-52.76-66.55-81.4-133.65-85.13-199.44-1.56-27.54,1.94-52.37,10.39-73.78,4.12-10.43,8-19.62,14.53-26.48,5.9-6.24,13-9.41,21.15-9.41h0m139.45,342.48c11.16,0,22.85-1,34.14-2l2.34-.21c33.16-2.93,56.05-11.37,72.05-26.58,17.64-16.78,37.15-37,48.09-60,19.64-41.2,23-76.09,10.85-113.11-3.13-9.56-6-15.11-9.85-19.14-7.87-8.21-19.91-10.62-37.41-13.38-6.5-1-12.65-2-18.64-3.55-20.54-5.34-40.4-13-59.62-20.33l-.42-.16c-4.72-1.81-9.6-3.68-14.44-5.49-13.26-5-26.67-8.7-40.9-12.65-17.53-4.87-35.66-9.91-53-17.42l-4.89-2.12c-18.19-7.88-37-16-55.82-22.95l-17.39-6.39-7.7,16.85c-1.63,3.58-3.18,7.52-3.93,9.41-7.38,18.7-10.42,40.67-9,65.3,3.49,61.59,30.69,124.89,80.83,188.14,11.56,14.58,24.48,29.16,40.61,37.12,12,5.92,26,8.68,44.11,8.68M1725.89,3018a48.25,48.25,0,0,0-35.68,15.68c-8.91,9.43-13.88,20.93-18.59,32.87-9.53,24.12-13.48,51.8-11.76,82.25,4,70,34.06,140.89,89.43,210.73,14.46,18.23,31,36.69,54.25,48.14,20.32,10,41.86,12.75,62.26,12.75,13.09,0,25.71-1.12,37.22-2.14l2.33-.21c26.84-2.36,66-8.82,96.09-37.44,20.3-19.3,42.9-42.91,56.64-71.75,24.07-50.51,28.12-95.87,12.75-142.77-3.58-10.94-8.64-23.58-19-34.38-17.8-18.55-42.22-22.39-60.05-25.2-5.5-.86-10.71-1.68-14.8-2.75-18.37-4.78-36.34-11.67-55.36-19q-7.58-2.91-15.15-5.77c-14.9-5.58-29.8-9.72-44.21-13.73-17-4.71-33-9.17-47.83-15.58l-4.87-2.11c-20.91-9.07-42.53-18.45-64.79-26.27a57,57,0,0,0-18.89-3.36Zm139.46,342.48c-13,0-25-1.56-35.26-6.61-12.59-6.21-23.68-18.87-33.78-31.61-47.54-60-73.29-119.46-76.54-176.86-1.23-21.71,1.34-40.83,7.65-56.82.72-1.81,2.11-5.34,3.53-8.44,18.28,6.72,36.79,14.74,54.75,22.53l4.9,2.12c18.6,8.06,37.42,13.29,55.61,18.35,13.77,3.82,26.77,7.43,39.21,12.09q7.36,2.77,14.72,5.61c19.73,7.57,40.13,15.39,61.74,21,7,1.81,13.89,2.9,20.59,3.95,9.92,1.56,22.27,3.51,26.06,7.46,2.29,2.39,4.55,9.27,5.29,11.53,10.54,32.19,7.58,61.58-9.9,98.27-9.54,20-27.51,38.58-43.83,54.09-12.53,11.93-31.61,18.65-60,21.16l-2.36.2c-11.18,1-22.09,2-32.37,2Z" transform="translate(-693.43 -242.95)"/><path class="cls-11" d="M1952,3122.22a353.83,353.83,0,0,1-79.64-9.18,362.94,362.94,0,0,1-82.06-29.75c-26.94-13.64-54.56-29.16-74-50.19-11.77-12.74-11.07-30.17-10.6-41.7v-.2c0-1.16.09-2.27.11-3.34a177.76,177.76,0,0,1,6.86-44.48,175.41,175.41,0,0,1,44-75.56c22.8-22.87,51.79-39.34,86.16-49a257.84,257.84,0,0,1,69.47-9.21,281.46,281.46,0,0,1,28.43,1.44A319,319,0,0,1,2049.06,2842c16.53,8.08,40.1,21.48,54,44.35,19.88,32.68,14.14,70.89,6.55,107.23-5.64,27.06-13.38,64.11-38.4,90.06-22.29,23.13-55.21,35.57-100.62,38.05-6.17.33-12.45.51-18.66.51Zm-39.75-272.59a217.16,217.16,0,0,0-58.58,7.74c-27.66,7.75-50.75,20.76-68.63,38.69a135.4,135.4,0,0,0-33.89,58.33,137.91,137.91,0,0,0-5.32,34.47c0,1.32-.09,2.71-.15,4.15-.1,2.57-.25,6.4-.11,9.24l.19,3.89,2.76,2.73c15.38,15.22,38.88,28.12,59.85,38.73a323.25,323.25,0,0,0,73,26.47,313.51,313.51,0,0,0,70.62,8.15h0c5.48,0,11-.15,16.47-.45,34.36-1.88,59.26-10.58,74-25.87,15.76-16.35,21.79-40.55,28-70.48,6.19-29.69,10.74-58-1.57-78.26-8.46-13.91-25.41-23.33-37.43-29.21a279.31,279.31,0,0,0-94.79-27.07A242.26,242.26,0,0,0,1912.2,2849.63Z" transform="translate(-693.43 -242.95)"/><path d="M1912.3,2819.64h0a273.33,273.33,0,0,1,27.42,1.39,309.31,309.31,0,0,1,105,30c15.39,7.53,37.31,19.94,49.87,40.57,18,29.59,12.78,64.18,5.3,100-5.7,27.31-12.79,61.3-35.8,85.17-20.46,21.22-51.2,32.67-94,35-6,.33-12.08.5-18.12.5a343.56,343.56,0,0,1-77.37-8.92,352.61,352.61,0,0,1-79.8-28.94c-26.11-13.21-52.81-28.18-71.15-48-9-9.7-8.38-24.05-8-34.52v-.21c0-1.2.09-2.37.12-3.48a167.73,167.73,0,0,1,6.47-42,165.53,165.53,0,0,1,41.49-71.25c21.57-21.63,49.09-37.24,81.78-46.4a247.58,247.58,0,0,1,66.77-8.84m-174.67,192.57a20,20,0,0,0,10.69,10c15.86,13.42,36.69,24.76,55.48,34.27a333.13,333.13,0,0,0,75.27,27.29,323.62,323.62,0,0,0,72.88,8.41c5.67,0,11.39-.16,17-.47,37-2,64.11-11.74,80.67-28.91,17.61-18.27,24.05-43.84,30.63-75.37,6.62-31.73,11.39-62.15-2.82-85.51-9.82-16.15-28.43-26.56-41.57-33a289.15,289.15,0,0,0-98.18-28,253.48,253.48,0,0,0-25.5-1.3,227.42,227.42,0,0,0-61.28,8.11c-29.33,8.22-53.9,22.1-73,41.26a145.48,145.48,0,0,0-36.42,62.64,147.48,147.48,0,0,0-5.71,37c0,1.27-.08,2.61-.14,4-.14,3.59-.26,7.07-.11,10.1l.38,7.77,1.72,1.7m174.67-212.57a269.19,269.19,0,0,0-72.17,9.58c-36,10.1-66.51,27.44-90.54,51.54a185.48,185.48,0,0,0-46.56,79.86,188,188,0,0,0-7.23,47c0,1.08-.08,2.21-.12,3.38-.5,12.39-1.34,33.11,13.24,48.9,20.5,22.19,49,38.26,76.82,52.32a373.47,373.47,0,0,0,84.32,30.58,363.37,363.37,0,0,0,81.88,9.43h0q9.61,0,19.2-.53h0c48.06-2.62,83.15-16.06,107.28-41.09,27-28,35.1-66.71,41-95,8-38.29,14-78.67-7.8-114.47-15.27-25.11-40.51-39.5-58.16-48.13a329.1,329.1,0,0,0-111.72-31.91,290.79,290.79,0,0,0-29.44-1.49ZM1952,3072.22a303.69,303.69,0,0,1-68.37-7.89,313,313,0,0,1-70.75-25.66c-20.44-10.34-43-22.74-57.33-36.91-.11-2.4,0-6,.13-8.35.06-1.49.11-2.93.15-4.3a127.73,127.73,0,0,1,4.93-32,125.49,125.49,0,0,1,31.36-54c16.65-16.69,38.27-28.84,64.25-36.12a208.09,208.09,0,0,1,55.88-7.37,234.52,234.52,0,0,1,23.47,1.19,269.59,269.59,0,0,1,91.42,26.11c10.88,5.33,26.17,13.76,33.27,25.43,10.42,17.12,6.1,43.36.33,71-5.92,28.33-11.54,51.15-25.45,65.58-12.93,13.41-35.6,21.09-67.36,22.82h0q-8,.43-15.93.44Zm-196.24-68.55Z" transform="translate(-693.43 -242.95)"/></g><g id="fingers"><path class="cls-12" d="M1830.39,3233.61c-7.14-2.27-15.12-5.82-17.12-13.05-1.61-5.82,1.55-12.14,6.23-16s10.63-5.66,16.44-7.32c48.89-14,99.41-21.14,149.78-28,13-1.78,27.33-3.24,38.12,4.2a27.39,27.39,0,0,1,9.91,30.95c-7.46,20.65-44.7,27.78-63,32.57a255.85,255.85,0,0,1-89.84,7A247.85,247.85,0,0,1,1830.39,3233.61Z" transform="translate(-693.43 -242.95)"/><path class="cls-12" d="M1838.93,3177.8c-13.58-.43-29.4-2.55-36.25-14.29-5.44-9.32-2.65-21.79,4.2-30.13s16.95-13.31,27.06-17.1c30-11.23,62.73-14.2,94.71-11.85s63.37,9.9,94.07,19.15c4.6,1.38,9.3,2.86,13.12,5.79s6.64,7.61,6,12.38c-.68,5.21-5.11,9.07-9.52,11.93-18.42,12-41.24,12.83-62.4,16.12a710,710,0,0,1-83.37,7.92Q1862.77,3178.56,1838.93,3177.8Z" transform="translate(-693.43 -242.95)"/><path class="cls-12" d="M2008.37,3094.71a344.59,344.59,0,0,1-128.1-25.79c-9.94-4.09-20-8.89-26.93-17.12-4.33-5.16-7.28-12-5.88-18.63,1.67-7.86,9.19-13.42,17-15.19s16-.5,23.94.85c52.18,8.94,106.43,22.59,144.94,58.91,2.74,2.59,5.61,6.11,4.48,9.7-.95,3-4.23,4.45-7.21,5.35a67,67,0,0,1-33.65,1.33" transform="translate(-693.43 -242.95)"/><path class="cls-12" d="M1913.9,3010.1c-4.45-1.07-9.06-1.93-13-4.25s-7.18-6.54-6.84-11.11c.56-7.63,9.61-11.11,17.06-12.83,34.21-7.92,66.66-9.72,100.89-1.91,18.88,4.31,37.63,14.64,48,31,5.7,9,4.77,20.49,0,30-6.24,12.43-16.73,17.27-33,15-12.77-1.78-16.38-5.82-28.91-10.42C1969.48,3035.07,1943.77,3017.28,1913.9,3010.1Z" transform="translate(-693.43 -242.95)"/></g></g><path id="dress_sleeve" data-name="dress sleeve" class="cls-1" d="M3245,2638.81c-.25-31.87,2-65.8-17.42-91.07-14.82-19.28-15-31.59-37.71-40.23a265.85,265.85,0,0,0-95.75-17.29c-9.93.06-20.09.73-29.26,4.54-9.92,4.12-18,11.6-25.83,18.93-19.78,18.5-39.78,37.26-54.29,60.13-24.39,38.45-31.29,85.44-32.36,131s3.11,91.23-1.6,136.52c-1.68,16.23-3.4,35.47,9.06,46,10.7,9,26.62,6.84,40.29,3.79,47.56-10.6,95.33-25.93,133.71-55.94,26-20.37-59.88-73.62-41.88-101.14,8.18-12.51,81.87,1.34,91.87-9.87,8.14-9.12.18,23.36,23.13,16.87C3230.73,2734.29,3245.53,2699.93,3245,2638.81Z" transform="translate(-693.43 -242.95)"/><g id="arm_right" data-name="arm right"><g id="arm-2" data-name="arm"><path class="cls-13" d="M3508,1904c-6.43-12.75,3.69-31.09,18.37-50.35l-98.94-55c-16.79,32.37-33.06,65.07-50.16,97a1783.07,1783.07,0,0,1-195.58,292.11c-102.1,124-222.83,237-288.85,383.44-15.07,33.41-24,79.56,5.7,101.06,14.59,10.55,32.71,10.25,49.52,14.19,19,4.47,28.08,19.62,44.9,25.56,29,10.26,63.78-58.09,79.06-78.23l158.67-209.11,87-114.68c15.68-20.66,32.06-41.93,54.89-54.22,46.61-25.09,103.56-5.79,156.47-7,33.77-.78,69-11.47,91.38-36.72,26.14-29.43,30.11-71.82,32.83-111.09,3.76-54.48,6.36-113.59-24.28-158.81C3614.19,1920.38,3519.88,1927.56,3508,1904Z" transform="translate(-693.43 -242.95)"/><path d="M3573,1899.31c-12.3-1.77-31.53-4.54-40.94-7.85,1.16-3,3.58-7.79,8.61-15.07,2.35-3.39,5-6.89,7.76-10.46l-44.17-24.54c-3.47,4.68-6.72,9.36-9.61,14-5.35,8.62-21.62,34.85-9,59.84,12,23.71,43.6,28.26,80.24,33.54,13.79,2,36.48,5.25,43.43,9,24,36.87,22.82,85.92,19,141.47-2.72,39.33-6.6,73.72-26.58,96.21-15.35,17.28-42.05,27.6-73.27,28.33-15.27.35-31.2-1.2-48.07-2.85-39.89-3.88-81.13-7.9-119.66,12.83-28,15.09-47.4,40.62-63,61.13h0L3052.1,2618.75c-3.71,4.89-7.88,11.38-12.71,18.9-6.9,10.74-15.48,24.12-24.15,34.74s-13.75,14.1-15.95,15.29c-3.3-1.59-6.75-4.21-10.92-7.38-8.46-6.44-19-14.45-34.6-18.11-5.59-1.31-10.94-2.17-16.12-3-10.08-1.61-18.78-3-24.45-7.11-15.3-11.07-9.8-43.4,2.43-70.53,47.86-106.13,127.92-197,205.34-284.92,26.57-30.17,54.05-61.36,80-92.9a1810.24,1810.24,0,0,0,198.32-296.21c11-20.52,21.75-41.6,32.16-62q8.85-17.3,17.83-34.71l-43.73-24.29q-9.42,18.15-18.62,36.25c-10.31,20.18-21,41-31.73,61.15a1760.1,1760.1,0,0,1-192.83,288c-25.44,30.89-52.64,61.77-78.94,91.63C3003.58,2354.25,2921,2448,2870.05,2561c-7.06,15.66-15.59,39.59-16.14,64.73-.81,36.75,15.85,56.64,30,66.86,15.32,11.08,32.26,13.8,45.87,16,4.5.73,8.75,1.41,12.6,2.31,5,1.17,9,4.12,15.76,9.23s15.21,11.57,26.52,15.57a43.32,43.32,0,0,0,14.44,2.47,49.62,49.62,0,0,0,23.36-6.15c8.19-4.32,16.27-10.89,24.72-20.08,13.23-14.41,24.92-32.62,34.31-47.24,4.09-6.36,7.94-12.36,10.47-15.7l245.69-323.79h0c14-18.38,28.37-37.38,46.82-47.32,25.14-13.52,57.19-10.4,91.12-7.09,17.6,1.71,35.8,3.49,54.08,3.06,45.71-1.06,84.59-17.08,109.49-45.11,32.93-37.06,36.48-88.45,39.08-126,3.5-50.73,8.31-120.21-28.52-174.56C3636.28,1908.41,3607,1904.19,3573,1899.31Z" transform="translate(-693.43 -242.95)"/></g><path id="comb" class="cls-14" d="M3872.24,1655.63c-63,11.26-111,67.81-127.71,129.63s-6.92,127.8,10.28,189.47c24.64,88.34,64.08,171.76,94.47,258.29s51.87,178.91,38.58,269.65-67,179.7-151.73,214.84-198.09.36-232.34-84.71c-31.67-78.62,7.68-165.49,32.21-246.62,57.63-190.57,32-394.93,10.1-592.82-37.51-338.79-61.77-687.93,33.81-1015.13,34.72-118.86,86.06-234.91,167-328.66S3940.77,285.84,4064,274c88.11-8.46,175.76-14.35,253.66,27.69,8.07,13.14,1.09,31.31-11.13,40.71s-28.11,12.24-43.32,14.8l-266.72,44.87c18.74-3.15,41.8,1,60.56,3.08a503.75,503.75,0,0,1,61,10.67c38.88,9.3,76.48,23.33,113.47,38.5,3.92,1.61,7.89,3.29,11.14,6s5.74,6.66,5.7,10.9c-.06,6.8-6.28,11.86-12.37,14.9-14,6.94-29.66,8.61-44.75,11.71-15.44,3.17-29.7,9.41-45.39,11.74a269,269,0,0,1-119.59-9c-5.74-1.8-16.29-8.4-22-8.06a447.51,447.51,0,0,1,181,27c15.43,5.72,32.43,14.41,36.24,30.42,6,25.19-23.88,43.13-48.8,50.18a550.79,550.79,0,0,1-211.93,17.19,994.51,994.51,0,0,1,196.7,13.31c23.58,4,53.64,18.1,48.42,41.44-3.75,16.74-23.73,23.33-40.65,26.18a563.65,563.65,0,0,1-187-.06c59.35,9,115,30.6,171.7,49.2l23.13,7.57c5.75,1.89,11.72,3.9,16.1,8.09s6.65,11.24,3.56,16.46c-2.2,3.71-6.44,5.61-10.45,7.18A242,242,0,0,1,4097,803.29c-13.35.15-26.72,2.83-40.3,2.94a297,297,0,0,1-43.89-2.9,286.58,286.58,0,0,1-49.67-11.59l132.37,24c24.62,4.46,56,17.46,52.8,42.28-3.16,24.57-36.29,29.48-61,27.95l-172.16-10.64a1003.22,1003.22,0,0,1,173,9.56c27,3.85,61,17.56,58.6,44.69-1.69,18.9-21.28,30.49-39.17,36.82-46.8,16.57-101.39,27.73-149.54,15.64,23.69.75,19,6,75,18,16.62,3.56,32.37,3.74,46.29,10.6,12.46,6.14,26.69,10.28,36.24,20.95,5.7,6.36,9.06,14.45,11.68,22.57,1.46,4.5,2.72,9.32,1.55,13.9-1.82,7.07-8.79,11.42-15.43,14.47-20.93,9.64-43.87,13.45-66.64,15.7s-45.87,4.75-68.7,5.89q-29.17,1.45-58.4.17l183.25,46.39c10.34,2.61,21.93,6.22,26.54,15.83,5.06,10.56-1.44,23.74-11.27,30.1s-22,7.61-33.67,8.69l-192.82,17.9a265,265,0,0,1,83.79,15.94,271.51,271.51,0,0,1,39,17.71c11,6.07,23,6.93,34.61,12.11a111.08,111.08,0,0,1,22.35,13.35c5.24,4,10.58,9.74,9.51,16.26-1,6.3-7.49,10-13.34,12.57-26.9,11.79-55.89,18.34-85.11,20.76-7.33.61-14.68,1-22,1.06-6.3.1-13.23-1-19.31.74-14,4-28.63,5.91-43.1,8-13.19,1.87-26.41,3.4-39.66,4.75a487.44,487.44,0,0,1,230.73,32.7c8.18,3.3,17.78,9.36,16.4,18.07-.91,5.81-6.49,9.55-11.6,12.47a533.51,533.51,0,0,1-230.38,69.05A816.91,816.91,0,0,1,4071,1506c20.52,5.44,45,16.93,44.94,38.16,0,22.25-26.59,33.18-48.24,38.31C4004.87,1597.37,3935.83,1644.26,3872.24,1655.63Z" transform="translate(-693.43 -242.95)"/><g id="thumb"><path class="cls-13" d="M3525,1855.41c19.77-26.37,48.83-54.75,56.1-73,12.4-31.08,33.07-58,53.07-84.84,14.48-19.44,29.14-39.93,33.58-63.76s-4.41-51.94-26.41-62.13c-28.06-13-59.78,7.94-81.57,29.89-56.68,57.08-96.29,127.42-133.5,199.28Z" transform="translate(-693.43 -242.95)"/><path d="M3448.19,1813c36.1-69.7,75.14-139.16,129.35-193.75,13.57-13.67,31.49-26.45,45.47-26.45a18.44,18.44,0,0,1,7.85,1.63c9.57,4.43,15.11,20.07,12.35,34.86-3.32,17.78-15.12,34.7-29.06,53.4l-3,4c-19.79,26.52-40.26,53.94-53.26,86.52-3.07,7.7-16.85,23.82-27.92,36.77-9.33,10.91-18.88,22.08-27,33.27l44.19,24.41c6.32-8.21,13.67-16.8,20.84-25.19,16.22-19,30.23-35.35,36.36-50.73,10.56-26.48,28.21-50.11,46.89-75.14l3-4c13.67-18.35,32.39-43.48,38.11-74.11,6-32.32-5.94-73.4-40.48-89.4-19.33-9-41.42-8.36-63.88,1.71-19.27,8.65-35.62,22.85-45.94,33.25-58.95,59.36-100,132.1-137.65,204.8Z" transform="translate(-693.43 -242.95)"/></g><g id="fingers-2" data-name="fingers"><path class="cls-12" d="M3795.39,1834.74c12.12.7,26.06,3,32.17,13.52,5.23,9,2.23,21-4.57,28.86s-16.61,12.4-26.31,16.14c-62.22,24-130.68,24.3-197.37,24.29-10,0-21.59-.85-27.09-9.15-21.95-33.12,66.59-53.43,83-58.1A424.93,424.93,0,0,1,3795.39,1834.74Z" transform="translate(-693.43 -242.95)"/><path class="cls-12" d="M3790.87,1916.28c13.07,1.68,26.68,4.68,36.52,13.46s14.15,24.94,6.13,35.39c-5.9,7.69-16.24,10.13-25.74,12.06L3651,2009.1c-11.68,2.38-23.75,4.76-35.42,2.36s-23-10.87-24.83-22.64c-4.87-30.72,54.91-50.38,76.07-58.21A262.36,262.36,0,0,1,3790.87,1916.28Z" transform="translate(-693.43 -242.95)"/><path class="cls-12" d="M3825.75,1996.34c7.74-1.11,15.67-2.1,23.31-.47s15.06,6.39,17.82,13.7c5.17,13.69-7.49,27.36-19.77,35.34-26.23,17-56.21,27.22-85.85,37.25-39.78,13.45-81.74,27.09-123,19.32-8.72-1.64-18.11-4.86-22.49-12.59C3585.28,2035.08,3799.5,2000.12,3825.75,1996.34Z" transform="translate(-693.43 -242.95)"/><path class="cls-12" d="M3791.74,2096.51c10.65-2.58,21.52-5.19,32.45-4.38s22.15,5.58,28,14.85c8.37,13.27,3.05,31.72-8,42.81s-26.52,16.5-41.49,21.2c-30.41,9.56-61.54,17.7-93.36,19.66-13.11.81-26.79.45-38.62-5.27s-21.31-18-20.1-31.1c2.24-24,29.67-31.53,48.81-35.36C3730.37,2112.74,3761.05,2104,3791.74,2096.51Z" transform="translate(-693.43 -242.95)"/></g></g><g id="head"><path id="head-2" data-name="head" class="cls-2" d="M2366.49,2780.6c-40.51-15.76-77.45-44.16-110.41-73.46a1243.61,1243.61,0,0,1-116-117.86q-26.67-30.95-51.27-63.6c-15.71-20.86-32.72-40.95-40.67-66-9.74-30.7-15.46-64.66-3.73-94.65,10.72-27.42,34.29-47.39,57-66.16l259.32-214.64c19.06-62.88,84.87-104.59,150.54-107.08s129.23,28.87,177.45,73.51,83,101.74,114.07,159.63c25.35,47.18,48.94,96.19,58.73,148.84,10.39,55.8,5,114.13,20.1,168.84,14.6,52.81,47.24,98.42,77.6,144s59.69,94.34,66.12,148.74-16.14,115.92-65.89,138.86c-50.3,23.2-110.12,1-155.73-30.42-39.54-27.23-73.2-61.9-107.1-95.61-27.66-27.49-47.3-60.17-89.22-66.66-29.36-4.55-59.25,2-88,9.59s-57.57,16.52-87.29,16.8C2409.29,2793.52,2387.41,2788.74,2366.49,2780.6Z" transform="translate(-693.43 -242.95)"/><g id="face"><path id="nose" class="cls-15" d="M2410.21,2445.79a642.84,642.84,0,0,0,43.12,134.84c3.94,8.84,8.61,18.17,17.13,22.78,10.93,5.93,24.58,2.12,35.64-3.56a118.41,118.41,0,0,0,56.31-63.47" transform="translate(-693.43 -242.95)"/><g id="mouth"><path class="cls-15" d="M2661.89,2622.25c24.74-24.26,38.36-58.47,41.44-93s-3.78-69.35-15.53-101.95" transform="translate(-693.43 -242.95)"/><path class="cls-15" d="M2652.65,2398.41c19.21,16.84,49.17,20.05,71.51,7.66" transform="translate(-693.43 -242.95)"/></g><path id="eye_right" data-name="eye right" class="cls-16" d="M2547.62,2255c1.86,3.53,3.28,7.5,2.72,11.45-1.05,7.39-8.36,12.05-15.11,15.24-8.46,4-17.52,7.34-26.87,7.17s-19.1-4.46-23.63-12.64c-7.08-12.81-.17-39.13,14.87-44.08C2517.23,2226.3,2539.56,2239.73,2547.62,2255Z" transform="translate(-693.43 -242.95)"/><path id="eye_left" data-name="eye left" class="cls-17" d="M2262.21,2450.43c1.23,9.19-4.55,18.67-13,22.45s-18.93,2-26.18-3.77c-11.45-9.13-18-33.8-.68-40.45C2237.36,2422.89,2260,2434,2262.21,2450.43Z" transform="translate(-693.43 -242.95)"/></g></g><g id="hair"><path class="cls-18" d="M2806.36,2257c-34.42-81-76.06-160.2-135.23-225.37s-137.52-115.77-224.54-129c-66.9-10.2-135.82,2-199.12,25.91-115.43,43.63-217.24,129.77-265.74,243.24s-37.68,253.88,39.29,350.34" transform="translate(-693.43 -242.95)"/><path class="cls-18" d="M2661.11,2004.37c-13.59-39.39-51.89-69-93.43-72.24,6.21,9.32.87,23-8.84,28.62s-22,4.61-32.57,1-20.27-9.5-30.66-13.67c-39.88-16-84.89-4.74-126.31,6.66-20,5.5-40.17,11.07-58.49,20.77-19.3,10.21-35.95,24.66-52.41,39-24.59,21.4-51.51,48.59-47.06,80.88,1.17,8.56,4.54,17.51,1.24,25.49-2.9,7-10.13,11.07-16.86,14.59l-48.9,25.58c-7.92,4.14-18.39,8-25,2-4-3.6-4.75-9.44-5.29-14.78q-4.09-40.46-8.18-80.93c-25-22.24-63.48-28-93.91-14s-51.16,46.84-50.64,80.32c-48.63,86.44-68.86,200.16-50.55,297.64" transform="translate(-693.43 -242.95)"/><path class="cls-19" d="M2869.87,2290.37c-18-121.82-78.65-237.66-171.42-318.66S2481,1846.06,2358.09,1854.1s-242.15,69.85-316.22,168.24c-72,95.67-98.89,218.37-105,338-3.28,64,.2,132.68,37.29,185" transform="translate(-693.43 -242.95)"/><path class="cls-19" d="M2046.37,2484.87c-37.84-98.7-42.53-209.78-13.16-311.32,12-41.35,29.89-81.86,59-113.56,27.12-29.53,62.68-50,99.34-66.28,75.93-33.6,160.47-50.59,242.78-39.61s162,51.55,212.46,117.48" transform="translate(-693.43 -242.95)"/><path class="cls-19" d="M2095,2440a761.52,761.52,0,0,1-5.3-226.51c4.7-37,12.56-74.79,33.34-105.8,16.66-24.86,40.78-44,66.68-59,79.19-45.88,178.75-54.93,264.93-24.1,33.24,11.9,64.21,29.26,95,46.53" transform="translate(-693.43 -242.95)"/><path class="cls-18" d="M2166.35,2381.67c-50.2-142.46-44.67-303.76,15.19-442.45" transform="translate(-693.43 -242.95)"/><path class="cls-19" d="M2197.8,2330.2c-29.81-95.18-13.14-197.72-1.66-296.79,4.25-36.61,7.81-73.62,19.11-108.71s31.22-68.65,61.85-89.14" transform="translate(-693.43 -242.95)"/><path class="cls-18" d="M2257.75,2284c-45.94-93.5-32.74-213.06,32.48-294.29" transform="translate(-693.43 -242.95)"/><path class="cls-19" d="M2363.58,1948.46a287.45,287.45,0,0,0-48.37,315.44" transform="translate(-693.43 -242.95)"/><path class="cls-19" d="M2380.26,2214.59a274,274,0,0,1,30.89-310.2" transform="translate(-693.43 -242.95)"/><path class="cls-18" d="M2433.44,2174c-23.49-72.15-7.94-155.76,39.9-214.65" transform="translate(-693.43 -242.95)"/><path class="cls-19" d="M2492.46,2121.79c-3.13-25-8.86-47.85-5.79-73.52,3.63-30.43,7.74-95.64,47.26-103.06" transform="translate(-693.43 -242.95)"/><path class="cls-19" d="M2742.3,1976.39a179,179,0,0,0-222.05-31.46" transform="translate(-693.43 -242.95)"/><path class="cls-19" d="M2691.4,2007.34c-11.18-38.41-38.86-70.34-71.17-93.94s-69.3-39.79-106-55.81c-22.82-10-45.93-20-70.5-24.1s-51.14-1.62-72,12" transform="translate(-693.43 -242.95)"/><path class="cls-19" d="M2617.13,1866.13c-38.33,4.52-77.3,9.22-112.64,24.73s-67.14,43.74-77.37,81" transform="translate(-693.43 -242.95)"/><path class="cls-19" d="M2539.76,1828.71c-32.92,27.81-66,55.78-94.06,88.5s-51.13,70.66-60.88,112.65c-9.42,40.58-6,83.62,6.79,123.29" transform="translate(-693.43 -242.95)"/><path class="cls-19" d="M2063.71,2462.27c2.63-63.94-12.57-127.18-16.88-191s4.32-133,46.7-181" transform="translate(-693.43 -242.95)"/><path class="cls-18" d="M2134.35,2429.63A301.11,301.11,0,0,1,2121,2263.45" transform="translate(-693.43 -242.95)"/><path class="cls-18" d="M2243,2315.18c-39.34-46.57-53.54-113.18-36.61-171.73" transform="translate(-693.43 -242.95)"/><path class="cls-18" d="M2358.9,2253.89c-20.27-25.89-29.72-59.07-31.22-91.92s4.49-65.61,12.47-97.51c9.54-38.19,22.26-76.2,44.33-108.79s54.52-59.54,92.88-68.42" transform="translate(-693.43 -242.95)"/><path class="cls-19" d="M2290.19,2275.77c-33.85-51.19-46.85-115.76-35.43-176.07,12.16-64.2,49.8-120.29,73.39-181.22" transform="translate(-693.43 -242.95)"/><path class="cls-18" d="M2474.24,2157.75c-11.58-8.64-17.7-23.13-19.14-37.51s1.3-28.83,4.52-42.92c3.14-13.72,7.44-28.38,18.66-36.88" transform="translate(-693.43 -242.95)"/><path class="cls-18" d="M2605.14,2081.35a371.36,371.36,0,0,0-92-68.48c-11-5.79-25.43-10.72-35-2.73" transform="translate(-693.43 -242.95)"/><path class="cls-18" d="M1927,2559.66c-33.09-66.53-45.43-142.22-42.43-216.46s20.9-147.29,45.67-217.34c10.81-30.58,23.1-61,41.59-87.63,27.93-40.24,68.93-70.08,113.15-91.15s91.85-33.92,139.45-45.48" transform="translate(-693.43 -242.95)"/><path class="cls-18" d="M2010.73,2469.67c-47.46-100.69-40.86-225,17-320.11" transform="translate(-693.43 -242.95)"/><path class="cls-18" d="M2708.42,2022.64A509.19,509.19,0,0,1,2829,2252.77" transform="translate(-693.43 -242.95)"/><path class="cls-18" d="M2701.61,1931.89c-35.32-61-95.35-107.23-163.36-125.79-31.41-8.57-67.53-10.65-94.14,8.11" transform="translate(-693.43 -242.95)"/><path class="cls-19" d="M2671.45,1907a303.05,303.05,0,0,0-136.65-89.78c-9.08-2.88-18.67-5.34-28.06-3.72s-18.51,8.4-20,17.81" transform="translate(-693.43 -242.95)"/><path class="cls-16" d="M2277.12,1847.42" transform="translate(-693.43 -242.95)"/><path class="cls-19" d="M2245,1791.6A342.54,342.54,0,0,1,2309.15,1412c16.39-17.1,34.58-32.53,49.61-50.84s27-40.3,28-64c1.16-27.65-12.93-54.18-32.23-74s-43.53-34-67.44-47.93" transform="translate(-693.43 -242.95)"/><path class="cls-18" d="M2431.46,1748.75c-11.95-26.65-7.28-58.76,7.26-84.08s37.86-44.58,63-59.52,52.24-26,78.49-38.83a667.16,667.16,0,0,0,244.22-204" transform="translate(-693.43 -242.95)"/><path class="cls-18" d="M2408.05,1764.34c-21.08-40.25-10.06-91.31,15.79-128.67s64.21-63.89,101.89-89.26,76.37-51.2,103.37-87.74c20.41-27.61,33.34-60.34,55.13-86.87a165.58,165.58,0,0,1,116.07-59.41" transform="translate(-693.43 -242.95)"/><path class="cls-19" d="M2301,1762.7a166,166,0,0,1,22.21-207.19c16.69-16.69,36.71-29.6,55-44.53,31.49-25.69,58.3-58.19,72.31-96.34,10.71-29.15,13.65-60.66,13-91.7-.86-40-8.89-82.58-36.8-111.25" transform="translate(-693.43 -242.95)"/><path class="cls-18" d="M2347.4,1758.88c-10.29-48.46-20.08-101.35,2.16-145.61,21-41.76,65.43-65.52,107.68-85.47s87.41-40.68,112.86-79.87a122,122,0,0,0,17.76-85.79c-8.29-48.93-45.78-88.94-55-137.71-1.84-9.76-2.45-20.09,1-29.41s11.69-17.36,21.59-18.13" transform="translate(-693.43 -242.95)"/><path class="cls-18" d="M2379.4,1764.48c-3-29-6-58.21-2.52-87.12s14.09-57.85,34.79-78.32c11-10.88,24.52-19.09,34.63-30.79,25.4-29.38,23.74-72.67,35.68-109.63,9.94-30.76,29.55-57.34,49.23-83q64-83.42,133.49-162.41" transform="translate(-693.43 -242.95)"/><path class="cls-18" d="M2336.26,1791.17c-13-61.08-25.73-125.85-5.11-184.79,10-28.71,27.46-54.14,42.11-80.81,49.27-89.66,67.15-196.19,49.87-297" transform="translate(-693.43 -242.95)"/><path class="cls-18" d="M2256.67,1707c-19.69-28.83-21.73-66.87-13.45-100.79s25.8-64.73,43.11-95.05c20.56-36,42.28-73.26,76.65-96.41,18.56-12.51,39.86-20.19,60.23-29.47A410.3,410.3,0,0,0,2615,1203.7" transform="translate(-693.43 -242.95)"/><path class="cls-19" d="M2276.7,1815.92c-12-60.34-14.86-122.91-3.8-183.43s36.44-119,76.73-165.45c23.44-27.06,51.46-49.7,77.12-74.66s49.52-53.12,61.6-86.82,10.64-73.92-11.06-102.4" transform="translate(-693.43 -242.95)"/><path class="cls-19" d="M2359.46,1784.68c3-46.72,6.2-93.64,16.37-139.34s27.65-90.47,56.71-127.17c26.32-33.25,61-58.63,94.12-85.14a1393.73,1393.73,0,0,0,169.27-160.59" transform="translate(-693.43 -242.95)"/><path class="cls-19" d="M2388.08,1792.86c10.19-48.71,20.6-98.07,43.06-142.48s58.78-84,106.08-99.51c20.7-6.78,42.69-8.72,63.61-14.8,40.29-11.71,74.94-38.39,102.64-69.91s49.17-67.91,70.46-104.07" transform="translate(-693.43 -242.95)"/><path class="cls-16" d="M2457.78,1770.35c-60.23,26.43-129.3,20-193.77,33-8.18,1.65-18.15,5.81-18.13,14.15,0,4.78,3.77,8.92,8.17,10.8s9.32,2,14.1,1.84c60.17-1.36,117.35-25,176.38-36.64,6.09-1.21,12.42-2.28,18.44-.77" transform="translate(-693.43 -242.95)"/></g><path id="dress" class="cls-20" d="M3457,4154.91c-109.81-22.38-213.13-68.49-315.43-114.26-134.7-60.27-271.93-122.17-380.89-221.7-68.53-62.6-124.69-139.12-200.61-192.51s-182.61-79.22-260.63-29c88.54-76.15,57.25-231.93,139-315.34,57.76-59,153.47-60.57,232.45-36.63s150.56,68.69,230,91.09c-76.63-44.35-137.16-115.89-168.21-198.81-48.08,41.48-127.9,18.25-167.69-31.24s-50.16-115.69-59.15-178.55a268,268,0,0,0,125.45-129.59l153,66.44c-.73-80.19-1.26-161.79,21.61-238.64s73.12-149.67,147.4-179.89c-6.73,74.62,21.81,151.67,75.53,203.91s131.53,78.61,205.93,69.8c-9.66,90.39,41.16,176.05,98.78,246.36s125.27,135.31,160.26,219.22c32.18,77.16,33.63,163,38.32,246.51,7.09,126,22.89,252.71,64.93,371.71,30.25,85.62,74.65,167.21,135.27,235.19,78.14,87.64-23.35,121-104.53,127.52C3570.7,4171.14,3513,4166.32,3457,4154.91Z" transform="translate(-693.43 -242.95)"/></svg>