<?xml version="1.0" encoding="utf-8"?>
<!-- Generator: Adobe Illustrator 24.0.1, SVG Export Plug-In . SVG Version: 6.00 Build 0)  -->
<svg version="1.1" id="Layer_1" xmlns="http://www.w3.org/2000/svg" xmlns:xlink="http://www.w3.org/1999/xlink" x="0px" y="0px"
	 viewBox="0 0 7716.6 5897.3" style="enable-background:new 0 0 7716.6 5897.3;" xml:space="preserve">
<style type="text/css">
	.st0{fill:#D84444;stroke:#000000;stroke-width:50;stroke-linejoin:round;}
	.st1{fill:#C8A4A8;stroke:#000000;stroke-width:50;stroke-linejoin:round;}
	.st2{fill:#94553B;stroke:#000000;stroke-width:50;stroke-linejoin:round;}
	.st3{fill:#46ACCE;}
	.st4{fill:#8A2475;}
	.st5{fill:#5D7034;stroke:#000000;stroke-width:30;stroke-linejoin:round;}
	.st6{fill:#B3B9A4;stroke:#000000;stroke-width:50;stroke-linejoin:round;}
	.st7{fill:none;stroke:#000000;stroke-width:50;stroke-linejoin:round;}
	.st8{fill:#696472;stroke:#000000;stroke-width:35;stroke-miterlimit:10;}
	.st9{fill:#696472;}
	.st10{fill:#C8A4A8;stroke:#000000;stroke-width:30;stroke-linejoin:round;}
	.st11{fill:#C8A4A8;}
	.st12{fill:#EE5314;stroke:#000000;stroke-width:50;stroke-linejoin:round;}
	.st13{fill:none;stroke:#000000;stroke-width:50;stroke-linecap:round;stroke-linejoin:round;}
	.st14{stroke:#000000;stroke-width:50;stroke-linecap:round;stroke-linejoin:round;}
	.st15{stroke:#000000;stroke-width:60;stroke-linecap:round;stroke-linejoin:round;}
	.st16{fill:none;stroke:#DC694B;stroke-width:50;stroke-linecap:round;stroke-miterlimit:10;}
	.st17{fill:none;stroke:#E99D60;stroke-width:50;stroke-linecap:round;stroke-miterlimit:10;}
	.st18{fill:#DA0E1B;stroke:#000000;stroke-width:50;stroke-linejoin:round;}
	.st19{fill:#FFFFFF;}
</style>
<title>logotina1</title>
<path id="dress_underside" class="st0" d="M3350.8,3401.8c9.3,19.2,25.8,34,43.3,46.3c75.8,53.1,173,65.5,254.7,109
	c59.3,31.6,108.7,78.5,162.8,118.4c77.7,57.3,164.9,100.1,251.6,142.5c128.4,62.8,257.4,125.9,394,167.9
	c50.1,15.4,118.3,19.2,170.6,16.2s185.5-68.3,177-120c-10-61-22.1-3.1-39-34c-15.4-28.2-48.5-40.8-78.5-52.4
	c-200.2-77.5-375-207.2-558.6-318.4c-183.6-111.2-387.3-206.8-601.9-203.7C3463.8,3274.6,3302.7,3302.3,3350.8,3401.8z"/>
<g id="feet">
	<g id="foot_left">
		<path class="st1" d="M3673.8,3282.4c2.8-11,5.7-23,1-33.3c-3.6-7.8-10.9-13.2-18.2-17.7c-52.2-32.3-119.7-38.5-176.9-16.3
			c1.4-6.6-8.7-10.5-14.2-6.6s-6.9,11.3-7.9,17.9c-23.5,161.4-29.1,325-16.7,487.7c1.9,24.5,4.4,49.8,15.9,71.5
			c11.8,22.2,31.9,38.7,52.8,52.6c32.3,21.5,85.9,57.1,126.8,48.6c49.6-10.3,21.1-74.1,15.7-106.7
			c-17.4-105.6-20.8-213.1-10.1-319.6C3648.2,3400.4,3658.8,3340.9,3673.8,3282.4z"/>
		<path class="st2" d="M3275.6,3597.2c27.7,5,53.1,18.3,77.3,32.6c100.1,59,187.6,136.8,274.4,214c29,25.8,60.2,56.5,60.1,95.3
			c-0.1,31.9-23,60.4-51,75.8s-60.6,19.8-92.4,22.8c-54.8,5-111.6,6-163-13.7c-74.4-28.6-127.3-97.8-155.1-172.4
			c-22.3-60-30.7-123.9-36.1-187.4c-1.7-19.7-6.2-41.6,11.7-54.9C3221.3,3594.6,3252.4,3593,3275.6,3597.2z"/>
	</g>
	<g id="foot_right">
		<path class="st1" d="M3953,4061.9c3.2,12.1,6.9,24.6,15.2,34.1c15.1,17.1,40.5,19.3,63.3,20.3l168,7.3
			c-47.2-137-66.2-282.1-56-426.7c1.4-19.6,3.3-39.4-1.1-58.5c-9.2-39.6-45-69-84.1-80.1c-26-7.4-80.2-16.4-102.6,4.3
			c-18.9,17.4-19.2,63.8-23,86.9c-14.2,87.8-16.5,177-7,265.4C3931.1,3964.5,3940.2,4013.7,3953,4061.9z"/>
		<path class="st2" d="M4188.9,4116.2c-36.7-21.9-79.6-30.5-121.8-37c-66.2-10.2-133-16.2-200-17.9c-28.8-0.8-59.1-0.4-84.4,13.6
			s-42.8,46.1-31,72.4c10.3,22.9,37,32.5,61,39.8c127.8,38.9,257.3,78.1,390.8,84c15.7,0.7,31.9,0.8,46.5-4.9
			c13.6-5.3,31.7-21.1,28.5-37.8c-2.3-11.9-16.1-15.6-22.2-25.5c-9.6-15.6-12.4-33.4-24-48.6
			C4220.3,4139,4205.6,4126.1,4188.9,4116.2z"/>
	</g>
</g>
<g id="skateboard">
	<path class="st3" d="M4193.9,4220.9c-398.2-53.6-771.6-276.6-1005.6-603.4c-52.4-73.1-98.8-151.9-155.8-220.8
		c-231.7,148.3-403.8,319.6-495.5,420.9c23.7,48.7,57.8,91.6,88.9,135.7c150.8,213.5,346.8,394.4,569.7,530.5
		c202.3,123.5,427.4,210.5,661,251.1C3963.1,4599.4,4109.8,4398,4193.9,4220.9z"/>
	<path class="st4" d="M3923.4,4745.3c109,15,222.2,19.6,326.9-13.9s200.4-111.5,230.5-217.3s-22.5-235.7-126.8-270.7
		c-31.3-10.5-64.6-12.4-97.5-15.4c-20.9-1.9-41.8-4.2-62.6-7c-84.1,177.1-230.9,378.5-337.3,514
		C3856.6,4735,3860,4736.5,3923.4,4745.3z"/>
	<path class="st4" d="M3032.5,3396.8c-231.7,148.3-403.8,319.6-495.5,420.9c-2.9-6-5.7-12-8.2-18.2c-25.4-61-38.2-131.9-46.6-197.1
		c-4.5-34.8-6.4-70.1-4.1-105.2c6.1-94.3,48.4-191.4,129.8-239.3c108.8-63.9,253.4-20.8,349.3,61.2
		C2957.2,3319.2,3000.2,3356.5,3032.5,3396.8z"/>
	<path d="M4071.9,4786.7c-54.9,0-107-5.5-152.6-11.6c-129.1-17.5-258.2-49.3-383.5-94.6c-124.1-44.9-243.3-102.2-355.8-171
		c-113.3-69.2-219.4-149.6-316.7-239.9c-97.4-90.3-185.1-190.5-261.9-298.9c-6.4-9-13-18.2-19.4-27c-29.7-41-60.4-83.4-80.9-132.6
		c-29-69.7-41.6-150.3-48.6-204.8c-5.1-40-6.5-76.3-4.3-110.9c3.4-53,17.2-104.5,39.9-148.8c25.3-49.5,61.5-89.1,104.7-114.4
		c57.4-33.7,126.8-43.2,200.9-27.6c64.8,13.7,129.8,46.3,183.1,91.9c74.4,63.6,128.8,145.1,181.5,223.9
		c17.7,26.4,35.9,53.8,54.5,79.8c60.4,84.1,129.9,161.4,207.2,230.3c155.2,138.5,337.7,242.8,535.8,306.2
		c98.6,31.6,200.4,52.2,303.6,61.5l10.6,0.9c30.7,2.6,62.5,5.4,93.8,15.9c57.4,19.3,104.1,63.7,131.6,125
		c25.8,57.6,31,124,14.5,182.4c-15.8,55.4-49,107.2-96,149.8c-43,39-96.4,69.4-154.2,87.9C4197,4779.9,4132.8,4786.7,4071.9,4786.7z
		 M2508.1,3499.2c-2,30.8-0.7,63.3,3.9,99.4c6.5,51.1,18.3,126.4,44.5,189.4c17.8,42.7,45.1,80.5,74.1,120.4
		c6.5,9,13.3,18.3,19.8,27.6c74.4,105,159.4,202,253.8,289.6c94.4,87.6,197.2,165.5,307.1,232.6c109.1,66.7,224.7,122.2,345,165.8
		c120.1,43.6,244.6,74.2,371.2,91.5c89.6,12.1,206.3,21.6,313.8-12.8c49.8-15.9,95.5-41.9,132.3-75.2c38.7-35,65.8-77.1,78.5-121.7
		c12.8-45,8.6-96.5-11.5-141.4c-20.5-45.9-54.6-78.8-95.9-92.6c-24.5-8.2-51.4-10.5-79.8-13l-10.8-0.9
		c-107.5-9.7-213.7-31.2-316.5-64.2c-206.1-66-396.1-174.5-557.5-318.6c-80.6-71.9-153-152.4-216-240.1
		c-19.2-26.8-37.7-54.5-55.6-81.4c-52.7-78.9-102.5-153.4-170.6-211.6c-45.8-39.1-101.4-67.1-156.5-78.8
		c-41.3-8.7-102.2-12.2-158.1,20.6c-33.8,19.8-61.2,50.1-81.6,90c-19,37.1-30.5,80.4-33.4,125.3V3499.2z"/>
	<path class="st5" d="M3119.8,3944l-78,77c0,0-184-83-271-263l102-56C2872.8,3702,2941.8,3831,3119.8,3944z"/>
	<path class="st5" d="M3658.8,4297c0,0,118,131,260,185l-70,100c0,0-207-10-332-204L3658.8,4297z"/>
	<path class="st6" d="M3600.8,4541.7c27.1,19.3,47.9,50,57.6,80c10.2,32.1,9.9,66.5-0.8,98.4c-9.7,28.6-29.4,52.2-58.2,62.7
		c-17.3,6.4-36,8.2-54.4,8c-33.4-0.4-68.5-8.3-92.8-31.3c-33.3-31.4-46-90.8-36.8-134.6c6.5-30.8,26.1-55.4,50.7-74.1
		c29.3-22.2,65.8-36.4,102.5-25.3C3580.2,4529.2,3591,4534.6,3600.8,4541.7z"/>
	<path class="st7" d="M3571.2,4649c-2,6.1-6.6,11.2-12,14.7c-10.9,7-26.8,8.2-35.8-2.7c-6.5-7.9-6.7-18.8,0.2-26.3
		C3536.8,4620.3,3579.8,4621.7,3571.2,4649z"/>
	<line class="st7" x1="3539.8" y1="4656" x2="3877.8" y2="4344"/>
	<path class="st6" d="M3832.6,4202.5c23.2-1.9,46.8,2.4,65,12.7c25.4,14.3,45,37.1,60.1,62c10.2,16.8,18.7,35,22.2,54.4
		s1.9,40.1-7.3,57.6c-12.1,23.3-36.6,38.6-62.4,43.6s-52.6,0.6-77.3-8.3c-23.6-8.5-46.3-21.4-61.5-41.3
		c-18.5-24-24.3-55.5-25.6-85.9c-0.7-16-0.1-32.7,6.9-47C3767.2,4220.8,3799.5,4205.2,3832.6,4202.5z"/>
	<path class="st7" d="M3870.7,4314.6c1.3,1.5,2.5,3.4,2.3,5.3c-0.2,2.4-2.5,4.1-4.7,4.8c-3.4,1-7.1,0.6-10.2-1c-3.1-1.6-5.8-4-7.7-7
		c-3.8-5.5-0.5-11.5,6.2-12C3862,4304.3,3867.6,4310.8,3870.7,4314.6z"/>
	<path class="st6" d="M2796.8,3906.5c31.6,24.4,52.8,59.9,67.6,97c8.7,21.8,15.5,45.4,12.2,68.6c-2.9,20.5-13.6,39.3-27.8,54.3
		c-42.4,44.8-110.6,53.4-162.7,20.5c-37.2-23.4-60.5-65.6-65.8-109.2c-5.3-43.3,5.9-87.6,26.4-125.6c7.4-13.7,18.9-27.8,34.9-31.2
		c16.7-3.3,33.9-3.9,50.8-1.8C2755.7,3882.2,2778.1,3892,2796.8,3906.5z"/>
	<path class="st7" d="M2763.1,4029.4c-0.7,6-3.9,11.9-9,15.1c-7.1,4.2-16.1,3-21.9-2.8c-9.5-10-12.7-35.1,3-41
		C2751.4,3994.6,2764.6,4015.4,2763.1,4029.4z"/>
	<line class="st7" x1="2752.8" y1="4017" x2="3114.8" y2="3749"/>
	<path class="st6" d="M3074.7,3608.5c6.4-0.1,12.9,0.4,19.3,1.3c28.2,4.4,53.9,19.7,74.7,39.2c23.9,22.3,42.4,50.9,50.1,82.7
		c8.8,37,2.7,75.9-16.9,108.4c-9,14.8-21.1,28.3-36.9,35.3c-16.2,7.2-34.8,7-52.3,4.1c-91.4-15.2-156.9-96.6-152-189.1
		c1-20,6.3-40.9,22.4-54.3c14-11.6,33.1-15.8,50.1-20.9C3046.6,3611.1,3060.6,3608.8,3074.7,3608.5z"/>
	<path class="st7" d="M3123.8,3746.8c0.3,7.1-4.4,13.7-10.5,17.4c-6.9,4.1-15.3,4.8-22.8,2.1c-14.7-5.4-26.6-32.3-6.6-38.8
		C3097.1,3723.2,3123.2,3730.4,3123.8,3746.8z"/>
</g>
<g id="arm_left">
	<path id="arm" class="st1" d="M3005.9,2974.9c-10.7,1.4-23.2,2.2-30.7-5.6c-7.2-7.5-6.2-19.4-4.8-29.7
		c8.4-59.6,14.7-86.3,23.1-145.9c105.9,23.4,216.3,20.8,323.3,3.3s211-49.9,313.4-85.7c24.8,44.3,51.5,101.5,54.9,153
		c1,15.5-9.7,14.3-23.8,18.8s-28.3,8.8-42.5,12.9c-27.5,8-55.2,15.4-83,22.3c-112.4,27.9-226.5,44.2-342,50.7
		C3122.8,2973,3069.6,2966.7,3005.9,2974.9z"/>
	<g id="scissors">
		<path class="st8" d="M2458.6,2965.7c-74,5.1-149.5,10.1-221.5-7.8c-52.6-13.1-101.3-38-149.5-62.7
			c-76.6-39.3-153.6-78.8-223.6-128.8c-40.5-29-81.2-66.1-88.1-115.4l520.4,95c51.9,9.5,104,19,156.8,21.3
			c90.4,3.9,185.3-12.7,268.4,23c11.3,4.9,22.9,11.4,28.1,22.4c10.2,21.6-8,49.1-15.7,68.9c-6.3,16.3-12.1,24.7-27.7,33
			c-47,25.2-101.4,36.1-153.8,42.8C2521.3,2961.2,2490,2963.5,2458.6,2965.7z"/>
		<path class="st8" d="M1801.2,2423.5c104.5-34.4,211.6-69.3,321.5-66.1c94.4,2.7,185.9,33.5,272.1,72
			c113.6,50.7,221.3,115.6,315.9,196.5c22.1,18.9,44,39.4,55.8,66c8.1,18.3,16.6,71.7-12.8,77c-21.6,3.9-61.6-28.6-80-38
			c-66.7-33.9-134.6-65.2-203.8-93.9c-138.4-57.7-280.6-105.9-424.4-147.9C1964.6,2465.6,1883.1,2443.8,1801.2,2423.5z"/>
		<path class="st8" d="M2746.1,2735c8,3.7,11.5,13,14.3,21.3c3.9,11.7,7.6,25.3,1.1,35.8c-5.4,8.7-16.2,12.3-26.3,14.4
			c-14.9,3.2-32.4,4-43.4-6.5c-9.1-8.7-10.9-23.3-6.3-35c3.9-10.1,12.8-20.8,23-25.1C2718.3,2735.6,2736.2,2730.4,2746.1,2735z"/>
		<path class="st9" d="M2910.6,3167.5c-23.3,0-41.6-3.7-57.8-11.7c-21.4-10.6-37.1-28.1-50.8-45.4c-54.1-68.2-83.4-137.2-87.3-205.1
			c-1.6-29,2.1-55.2,11.1-78c4.3-11,8.9-21.5,16.6-29.7c7.3-8,17.6-12.6,28.4-12.6c5.3,0,10.6,1,15.6,2.8c21.9,7.7,43.4,17,64.1,26
			l4.9,2.1c15.4,6.7,31.8,11.2,49.1,16c14.2,4,28.9,8,43.4,13.5c5,1.9,10,3.8,15,5.7h0.1c19.3,7.4,37.5,14.4,56.4,19.3
			c4.6,1.2,10,2.1,15.8,3c17.3,2.7,38.9,6.1,54.4,22.3c9,9.3,13.5,20.7,16.7,30.6c14.5,44.3,10.6,87.3-12.3,135.4
			c-13,27.4-34.9,50.1-54.5,68.8c-27.8,26.4-64.7,32.5-90.1,34.7l-2.3,0.2C2935.8,3166.4,2923.3,3167.5,2910.6,3167.5z
			 M2766.6,2833.1c-1.5,3.3-3,7-3.7,8.9c-6.9,17.3-9.6,37.9-8.3,61.1c3.4,59.5,29.9,120.9,78.7,182.5c10.8,13.7,22.8,27.3,37.2,34.4
			c10.6,5.2,23.2,7.6,39.7,7.6c10.7,0,21.7-1,33.3-2l2.4-0.2c30.8-2.7,51.8-10.3,66-23.9c17-16.1,35.7-35.6,46-57
			c18.7-39.2,21.8-70.8,10.4-105.7c-2.6-7.9-4.9-12.5-7.6-15.3c-5.7-5.9-16.3-8-31.7-10.4c-6.6-0.9-13.2-2.2-19.6-3.8
			c-21.1-5.5-41.2-13.2-60.7-20.7l-0.5-0.2c-4.8-1.8-9.6-3.7-14.3-5.5c-12.9-4.8-26.1-8.5-40-12.4c-17.9-5-36.4-10.1-54.3-17.9
			l-4.9-2.1c-18.1-7.8-36.7-15.9-55.3-22.7l-8.7-3.2L2766.6,2833.1z"/>
		<path d="M2770.7,2795c4.2,0,8.3,0.8,12.3,2.2c21.6,7.6,42.9,16.8,63.5,25.8l4.9,2.1c16.1,7,32.8,11.6,50.4,16.5
			c14,3.9,28.4,7.9,42.5,13.2c4.9,1.9,10,3.8,14.8,5.6l0.2,0.1c19.6,7.5,38,14.6,57.5,19.6c5,1.3,10.7,2.2,16.7,3.1
			c15.9,2.5,35.6,5.6,48.7,19.3c7.6,7.9,11.4,17.5,14.4,26.8c6.9,21,9.3,41.3,7.5,62c-1.9,21.1-8.2,42.6-19.3,65.9
			c-12.3,25.9-33.4,47.8-52.4,65.9c-11.3,10.7-24.9,18.6-41.7,24c-16.1,5.2-31.9,7.1-42.4,8l-2.3,0.2c-11.4,1-23.3,2.1-35.5,2.1
			c-21.7,0-38.6-3.4-53.4-10.7c-19.7-9.7-34.4-26.2-47.4-42.6c-52.8-66.6-81.4-133.6-85.1-199.4c-1.6-27.5,1.9-52.4,10.4-73.8
			c4.1-10.4,8-19.6,14.5-26.5C2755.5,2798.2,2762.6,2795,2770.7,2795L2770.7,2795 M2910.2,3137.5c11.2,0,22.9-1,34.1-2l2.3-0.2
			c33.2-2.9,56.1-11.4,72.1-26.6c17.6-16.8,37.1-37,48.1-60c19.6-41.2,23-76.1,10.9-113.1c-3.1-9.6-6-15.1-9.9-19.1
			c-7.9-8.2-19.9-10.6-37.4-13.4c-6.3-0.9-12.5-2.1-18.6-3.6c-20.5-5.3-40.4-13-59.6-20.3l-0.4-0.2c-4.7-1.8-9.6-3.7-14.4-5.5
			c-13.3-5-26.7-8.7-40.9-12.6c-17.5-4.9-35.7-9.9-53-17.4l-4.9-2.1c-18.2-7.9-37-16-55.8-23l-17.4-6.4l-7.7,16.9
			c-1.6,3.6-3.2,7.5-3.9,9.4c-7.4,18.7-10.4,40.7-9,65.3c3.5,61.6,30.7,124.9,80.8,188.1c11.6,14.6,24.5,29.2,40.6,37.1
			C2878.1,3134.7,2892.1,3137.5,2910.2,3137.5 M2770.8,2775c-13.6,0-26.5,5.7-35.7,15.7c-8.9,9.4-13.9,20.9-18.6,32.9
			c-9.5,24.1-13.5,51.8-11.8,82.3c4,70,34.1,140.9,89.4,210.7c14.5,18.2,31,36.7,54.3,48.1c20.3,10,41.9,12.8,62.3,12.8
			c13.1,0,25.7-1.1,37.2-2.1l2.3-0.2c26.8-2.4,66-8.8,96.1-37.4c20.3-19.3,42.9-42.9,56.6-71.8c24.1-50.5,28.1-95.9,12.8-142.8
			c-3.6-10.9-8.6-23.6-19-34.4c-17.8-18.6-42.2-22.4-60-25.2c-5.5-0.9-10.7-1.7-14.8-2.8c-18.4-4.8-36.3-11.7-55.4-19
			c-5-1.9-10.1-3.9-15.1-5.8c-14.9-5.6-29.8-9.7-44.2-13.7c-17-4.7-33-9.2-47.8-15.6l-4.9-2.1c-20.9-9.1-42.5-18.4-64.8-26.3
			C2783.6,2776.1,2777.2,2775,2770.8,2775L2770.8,2775z M2910.2,3117.5c-13,0-25-1.6-35.3-6.6c-12.6-6.2-23.7-18.9-33.8-31.6
			c-47.5-60-73.3-119.5-76.5-176.9c-1.2-21.7,1.3-40.8,7.6-56.8c0.7-1.8,2.1-5.3,3.5-8.4c18.3,6.7,36.8,14.7,54.8,22.5l4.9,2.1
			c18.6,8.1,37.4,13.3,55.6,18.4c13.8,3.8,26.8,7.4,39.2,12.1c4.9,1.8,9.8,3.7,14.7,5.6c19.7,7.6,40.1,15.4,61.7,21
			c7,1.8,13.9,2.9,20.6,4c9.9,1.6,22.3,3.5,26.1,7.5c2.3,2.4,4.6,9.3,5.3,11.5c10.5,32.2,7.6,61.6-9.9,98.3
			c-9.5,20-27.5,38.6-43.8,54.1c-12.5,11.9-31.6,18.6-60,21.2l-2.4,0.2C2931.4,3116.6,2920.5,3117.6,2910.2,3117.5L2910.2,3117.5z"
			/>
		<path class="st9" d="M2996.8,2879.3c-26.8,0-53.5-3.1-79.6-9.2c-28.4-6.6-56-16.6-82.1-29.8c-26.9-13.6-54.6-29.2-74-50.2
			c-11.8-12.7-11.1-30.2-10.6-41.7v-0.2c0-1.2,0.1-2.3,0.1-3.3c0.4-15.1,2.7-30,6.9-44.5c8.1-28.5,23.2-54.5,44-75.6
			c22.8-22.9,51.8-39.3,86.2-49c22.6-6.2,46-9.3,69.5-9.2c9.5,0,19,0.5,28.4,1.4c37.7,3.8,74.3,14.3,108.3,31
			c16.5,8.1,40.1,21.5,54,44.4c19.9,32.7,14.1,70.9,6.6,107.2c-5.6,27.1-13.4,64.1-38.4,90.1c-22.3,23.1-55.2,35.6-100.6,38.1
			C3009.2,2879.1,3003,2879.3,2996.8,2879.3L2996.8,2879.3z M2957.1,2606.7c-19.8-0.1-39.5,2.5-58.6,7.7
			c-27.7,7.8-50.8,20.8-68.6,38.7c-16,16.3-27.7,36.3-33.9,58.3c-3.2,11.2-5,22.8-5.3,34.5c0,1.3-0.1,2.7-0.1,4.1
			c-0.1,2.6-0.3,6.4-0.1,9.2l0.2,3.9l2.8,2.7c15.4,15.2,38.9,28.1,59.9,38.7c23.2,11.7,47.7,20.6,73,26.5
			c23.2,5.4,46.8,8.1,70.6,8.1l0,0c5.5,0,11-0.1,16.5-0.4c34.4-1.9,59.3-10.6,74-25.9c15.8-16.4,21.8-40.6,28-70.5
			c6.2-29.7,10.7-58-1.6-78.3c-8.5-13.9-25.4-23.3-37.4-29.2c-29.7-14.6-61.8-23.7-94.8-27.1
			C2973.4,2607.1,2965.2,2606.7,2957.1,2606.7L2957.1,2606.7z"/>
		<path d="M2957.1,2576.7L2957.1,2576.7c9.2,0,18.3,0.5,27.4,1.4c36.5,3.7,72.1,13.9,105,30c15.4,7.5,37.3,19.9,49.9,40.6
			c18,29.6,12.8,64.2,5.3,100c-5.7,27.3-12.8,61.3-35.8,85.2c-20.5,21.2-51.2,32.7-94,35c-6,0.3-12.1,0.5-18.1,0.5
			c-26,0-52-3-77.4-8.9c-27.7-6.4-54.5-16.1-79.8-28.9c-26.1-13.2-52.8-28.2-71.1-48c-9-9.7-8.4-24.1-8-34.5v-0.2
			c0-1.2,0.1-2.4,0.1-3.5c0.4-14.2,2.5-28.3,6.5-42c7.6-26.9,21.9-51.4,41.5-71.3c21.6-21.6,49.1-37.2,81.8-46.4
			C2912.1,2579.6,2934.5,2576.6,2957.1,2576.7 M2782.4,2769.3c2.2,4.6,6,8.1,10.7,10c15.9,13.4,36.7,24.8,55.5,34.3
			c23.9,12.1,49.2,21.3,75.3,27.3c23.9,5.6,48.3,8.4,72.9,8.4c5.7,0,11.4-0.2,17-0.5c37-2,64.1-11.7,80.7-28.9
			c17.6-18.3,24.1-43.8,30.6-75.4c6.6-31.7,11.4-62.1-2.8-85.5c-9.8-16.1-28.4-26.6-41.6-33c-30.8-15.1-64.1-24.6-98.2-28
			c-8.5-0.9-17-1.3-25.5-1.3c-20.7-0.1-41.3,2.6-61.3,8.1c-29.3,8.2-53.9,22.1-73,41.3c-17.2,17.5-29.8,39-36.4,62.6
			c-3.5,12-5.4,24.5-5.7,37c0,1.3-0.1,2.6-0.1,4c-0.1,3.6-0.3,7.1-0.1,10.1l0.4,7.8L2782.4,2769.3 M2957.1,2556.7
			c-24.4-0.1-48.7,3.1-72.2,9.6c-36,10.1-66.5,27.4-90.5,51.5c-22,22.3-38,49.7-46.6,79.9c-4.4,15.3-6.8,31.1-7.2,47
			c0,1.1-0.1,2.2-0.1,3.4c-0.5,12.4-1.3,33.1,13.2,48.9c20.5,22.2,49,38.3,76.8,52.3c26.8,13.5,55.1,23.8,84.3,30.6
			c26.8,6.2,54.3,9.4,81.9,9.4l0,0c6.4,0,12.8-0.2,19.2-0.5l0,0c48.1-2.6,83.1-16.1,107.3-41.1c27-28,35.1-66.7,41-95
			c8-38.3,14-78.7-7.8-114.5c-15.3-25.1-40.5-39.5-58.2-48.1c-35.1-17.2-72.9-28-111.7-31.9
			C2976.7,2557.2,2966.9,2556.7,2957.1,2556.7L2957.1,2556.7z M2996.8,2829.3c-23,0-46-2.7-68.4-7.9c-24.5-5.7-48.3-14.3-70.8-25.7
			c-20.4-10.3-43-22.7-57.3-36.9c-0.1-2.4,0-6,0.1-8.4c0.1-1.5,0.1-2.9,0.1-4.3c0.3-10.8,1.9-21.6,4.9-32
			c5.7-20.4,16.5-38.9,31.4-54c16.6-16.7,38.3-28.8,64.3-36.1c18.2-5,37-7.5,55.9-7.4c7.8,0,15.7,0.4,23.5,1.2
			c31.8,3.2,62.7,12.1,91.4,26.1c10.9,5.3,26.2,13.8,33.3,25.4c10.4,17.1,6.1,43.4,0.3,71c-5.9,28.3-11.5,51.1-25.4,65.6
			c-12.9,13.4-35.6,21.1-67.4,22.8l0,0C3007.4,2829.1,3002.1,2829.2,2996.8,2829.3L2996.8,2829.3z"/>
	</g>
	<g id="fingers">
		<path class="st10" d="M2875.2,2990.6c-7.1-2.3-15.1-5.8-17.1-13c-1.6-5.8,1.6-12.1,6.2-16s10.6-5.7,16.4-7.3
			c48.9-14,99.4-21.1,149.8-28c13-1.8,27.3-3.2,38.1,4.2c9.7,7,13.7,19.6,9.9,30.9c-7.5,20.6-44.7,27.8-63,32.6
			c-29.3,7.6-59.7,10-89.8,7C2908.6,2999.4,2891.7,2995.9,2875.2,2990.6z"/>
		<path class="st10" d="M2883.8,2934.8c-13.6-0.4-29.4-2.6-36.3-14.3c-5.4-9.3-2.6-21.8,4.2-30.1s16.9-13.3,27.1-17.1
			c30-11.2,62.7-14.2,94.7-11.9s63.4,9.9,94.1,19.1c4.6,1.4,9.3,2.9,13.1,5.8s6.6,7.6,6,12.4c-0.7,5.2-5.1,9.1-9.5,11.9
			c-18.4,12-41.2,12.8-62.4,16.1c-27.6,4.3-55.4,6.9-83.4,7.9C2915.5,2935.3,2899.6,2935.3,2883.8,2934.8z"/>
		<path class="st10" d="M3053.2,2851.8c-44-0.3-87.4-9.1-128.1-25.8c-9.9-4.1-20-8.9-26.9-17.1c-4.3-5.2-7.3-12-5.9-18.6
			c1.7-7.9,9.2-13.4,17-15.2s16-0.5,23.9,0.9c52.2,8.9,106.4,22.6,144.9,58.9c2.7,2.6,5.6,6.1,4.5,9.7c-1,3-4.2,4.4-7.2,5.4
			c-10.9,3.3-22.5,3.8-33.6,1.3"/>
		<path class="st10" d="M2958.7,2767.2c-4.4-1.1-9.1-1.9-13-4.3s-7.2-6.5-6.8-11.1c0.6-7.6,9.6-11.1,17.1-12.8
			c34.2-7.9,66.7-9.7,100.9-1.9c18.9,4.3,37.6,14.6,48,31c5.7,9,4.8,20.5,0,30c-6.2,12.4-16.7,17.3-33,15
			c-12.8-1.8-16.4-5.8-28.9-10.4C3014.3,2792.1,2988.6,2774.3,2958.7,2767.2z"/>
	</g>
</g>
<path id="dress_sleeve" class="st0" d="M4289.8,2395.8c-0.3-31.9,2-65.8-17.4-91.1c-14.8-19.3-15-31.6-37.7-40.2
	c-30.6-11.6-63-17.5-95.8-17.3c-9.9,0.1-20.1,0.7-29.3,4.5c-9.9,4.1-18,11.6-25.8,18.9c-19.8,18.5-39.8,37.3-54.3,60.1
	c-24.4,38.4-31.3,85.4-32.4,131s3.1,91.2-1.6,136.5c-1.7,16.2-3.4,35.5,9.1,46c10.7,9,26.6,6.8,40.3,3.8
	c47.6-10.6,95.3-25.9,133.7-55.9c26-20.4-59.9-73.6-41.9-101.1c8.2-12.5,81.9,1.3,91.9-9.9c8.1-9.1,0.2,23.4,23.1,16.9
	C4275.6,2491.3,4290.4,2457,4289.8,2395.8z"/>
<g id="arm_right">
	<g id="arm-2">
		<path class="st11" d="M4552.8,1661c-6.4-12.8,3.7-31.1,18.4-50.3l-98.9-55c-16.8,32.4-33.1,65.1-50.2,97
			c-55.4,103.6-120.9,201.4-195.6,292.1c-102.1,124-222.8,237-288.9,383.4c-15.1,33.4-24,79.6,5.7,101.1
			c14.6,10.6,32.7,10.3,49.5,14.2c19,4.5,28.1,19.6,44.9,25.6c29,10.3,63.8-58.1,79.1-78.2l158.7-209.1l87-114.7
			c15.7-20.7,32.1-41.9,54.9-54.2c46.6-25.1,103.6-5.8,156.5-7c33.8-0.8,69-11.5,91.4-36.7c26.1-29.4,30.1-71.8,32.8-111.1
			c3.8-54.5,6.4-113.6-24.3-158.8C4659,1677.4,4564.7,1684.6,4552.8,1661z"/>
		<path d="M4617.8,1656.4c-12.3-1.8-31.5-4.5-40.9-7.8c1.2-3,3.6-7.8,8.6-15.1c2.4-3.4,5-6.9,7.8-10.5l-44.2-24.5
			c-3.5,4.7-6.7,9.4-9.6,14c-5.4,8.6-21.6,34.8-9,59.8c12,23.7,43.6,28.3,80.2,33.5c13.8,2,36.5,5.3,43.4,9
			c24,36.9,22.8,85.9,19,141.5c-2.7,39.3-6.6,73.7-26.6,96.2c-15.4,17.3-42,27.6-73.3,28.3c-15.3,0.3-31.2-1.2-48.1-2.8
			c-39.9-3.9-81.1-7.9-119.7,12.8c-28,15.1-47.4,40.6-63,61.1l0,0l-245.6,323.9c-3.7,4.9-7.9,11.4-12.7,18.9
			c-6.9,10.7-15.5,24.1-24.1,34.7s-13.8,14.1-16,15.3c-3.3-1.6-6.8-4.2-10.9-7.4c-8.5-6.4-19-14.4-34.6-18.1
			c-5.6-1.3-10.9-2.2-16.1-3c-10.1-1.6-18.8-3-24.5-7.1c-15.3-11.1-9.8-43.4,2.4-70.5c47.9-106.1,127.9-197,205.3-284.9
			c26.6-30.2,54-61.4,80-92.9c75.7-92,142.1-191.2,198.3-296.2c11-20.5,21.8-41.6,32.2-62c5.9-11.5,11.8-23.1,17.8-34.7l-43.7-24.3
			c-6.3,12.1-12.5,24.2-18.6,36.3c-10.3,20.2-21,41-31.7,61.2c-54.6,102.1-119.2,198.6-192.8,288c-25.4,30.9-52.6,61.8-78.9,91.6
			c-79.9,90.7-162.4,184.4-213.4,297.4c-7.1,15.7-15.6,39.6-16.1,64.7c-0.8,36.8,15.9,56.6,30,66.9c15.3,11.1,32.3,13.8,45.9,16
			c4.5,0.7,8.8,1.4,12.6,2.3c5,1.2,9,4.1,15.8,9.2s15.2,11.6,26.5,15.6c4.6,1.6,9.5,2.5,14.4,2.5c8.2-0.1,16.2-2.2,23.4-6.1
			c8.2-4.3,16.3-10.9,24.7-20.1c13.2-14.4,24.9-32.6,34.3-47.2c4.1-6.4,7.9-12.4,10.5-15.7l245.7-323.8l0,0
			c14-18.4,28.4-37.4,46.8-47.3c25.1-13.5,57.2-10.4,91.1-7.1c17.6,1.7,35.8,3.5,54.1,3.1c45.7-1.1,84.6-17.1,109.5-45.1
			c32.9-37.1,36.5-88.4,39.1-126c3.5-50.7,8.3-120.2-28.5-174.6C4681.1,1665.5,4651.8,1661.2,4617.8,1656.4z"/>
	</g>
	<path id="comb" class="st12" d="M4917.1,1412.7c-63,11.3-111,67.8-127.7,129.6s-6.9,127.8,10.3,189.5
		c24.6,88.3,64.1,171.8,94.5,258.3c30.4,86.5,51.9,178.9,38.6,269.6s-67,179.7-151.7,214.8s-198.1,0.4-232.3-84.7
		c-31.7-78.6,7.7-165.5,32.2-246.6c57.6-190.6,32-394.9,10.1-592.8c-37.5-338.8-61.8-687.9,33.8-1015.1
		c34.7-118.9,86.1-234.9,167-328.7S4985.6,42.9,5108.8,31c88.1-8.5,175.8-14.3,253.7,27.7c8.1,13.1,1.1,31.3-11.1,40.7
		s-28.1,12.2-43.3,14.8l-266.7,44.9c18.7-3.1,41.8,1,60.6,3.1c20.5,2.3,40.9,5.9,61,10.7c38.9,9.3,76.5,23.3,113.5,38.5
		c3.9,1.6,7.9,3.3,11.1,6s5.7,6.7,5.7,10.9c-0.1,6.8-6.3,11.9-12.4,14.9c-14,6.9-29.7,8.6-44.8,11.7c-15.4,3.2-29.7,9.4-45.4,11.7
		c-40,6-80.9,3-119.6-9c-5.7-1.8-16.3-8.4-22-8.1c61.5-3.6,123.2,5.6,181,27c15.4,5.7,32.4,14.4,36.2,30.4
		c6,25.2-23.9,43.1-48.8,50.2c-68.9,19.4-140.8,25.3-211.9,17.2c65.8-2.1,131.7,2.4,196.7,13.3c23.6,4,53.6,18.1,48.4,41.4
		c-3.8,16.7-23.7,23.3-40.6,26.2c-61.9,10.4-125.1,10.4-187-0.1c59.4,9,115,30.6,171.7,49.2l23.1,7.6c5.8,1.9,11.7,3.9,16.1,8.1
		s6.6,11.2,3.6,16.5c-2.2,3.7-6.4,5.6-10.5,7.2c-27.2,10.6-56.1,16.3-85.3,16.6c-13.4,0.2-26.7,2.8-40.3,2.9
		c-14.7,0.1-29.4-0.8-43.9-2.9c-16.9-2.4-33.5-6.3-49.7-11.6l132.4,24c24.6,4.5,56,17.5,52.8,42.3c-3.2,24.6-36.3,29.5-61,28
		L4960,632.4c57.8-1.8,115.7,1.4,173,9.6c27,3.8,61,17.6,58.6,44.7c-1.7,18.9-21.3,30.5-39.2,36.8c-46.8,16.6-101.4,27.7-149.5,15.6
		c23.7,0.8,19,6,75,18c16.6,3.6,32.4,3.7,46.3,10.6c12.5,6.1,26.7,10.3,36.2,21c5.7,6.4,9.1,14.5,11.7,22.6
		c1.5,4.5,2.7,9.3,1.5,13.9c-1.8,7.1-8.8,11.4-15.4,14.5c-20.9,9.6-43.9,13.5-66.6,15.7s-45.9,4.8-68.7,5.9c-19.4,1-38.9,1-58.4,0.2
		l183.3,46.4c10.3,2.6,21.9,6.2,26.5,15.8c5.1,10.6-1.4,23.7-11.3,30.1s-22,7.6-33.7,8.7l-192.8,17.9c28.6,0.8,56.9,6.1,83.8,15.9
		c13.4,4.9,26.5,10.8,39,17.7c11,6.1,23,6.9,34.6,12.1c7.9,3.6,15.4,8,22.4,13.3c5.2,4,10.6,9.7,9.5,16.3c-1,6.3-7.5,10-13.3,12.6
		c-26.9,11.8-55.9,18.3-85.1,20.8c-7.3,0.6-14.7,1-22,1.1c-6.3,0.1-13.2-1-19.3,0.7c-14,4-28.6,5.9-43.1,8
		c-13.2,1.9-26.4,3.4-39.7,4.8c78.4-7.9,157.6,3.3,230.7,32.7c8.2,3.3,17.8,9.4,16.4,18.1c-0.9,5.8-6.5,9.6-11.6,12.5
		c-70.5,40.2-149.3,63.8-230.4,69c70,0.2,139.8,9.3,207.5,27.3c20.5,5.4,45,16.9,44.9,38.2c0,22.3-26.6,33.2-48.2,38.3
		C5049.7,1354.4,4980.7,1401.3,4917.1,1412.7z"/>
	<g id="thumb">
		<path class="st11" d="M4569.8,1612.5c19.8-26.4,48.8-54.8,56.1-73c12.4-31.1,33.1-58,53.1-84.8c14.5-19.4,29.1-39.9,33.6-63.8
			s-4.4-51.9-26.4-62.1c-28.1-13-59.8,7.9-81.6,29.9c-56.7,57.1-96.3,127.4-133.5,199.3L4569.8,1612.5z"/>
		<path d="M4493,1570c36.1-69.7,75.1-139.2,129.4-193.8c13.6-13.7,31.5-26.4,45.5-26.4c2.7,0,5.4,0.5,7.9,1.6
			c9.6,4.4,15.1,20.1,12.4,34.9c-3.3,17.8-15.1,34.7-29.1,53.4l-3,4c-19.8,26.5-40.3,53.9-53.3,86.5c-3.1,7.7-16.9,23.8-27.9,36.8
			c-9.3,10.9-18.9,22.1-27,33.3l44.2,24.4c6.3-8.2,13.7-16.8,20.8-25.2c16.2-19,30.2-35.3,36.4-50.7c10.6-26.5,28.2-50.1,46.9-75.1
			l3-4c13.7-18.3,32.4-43.5,38.1-74.1c6-32.3-5.9-73.4-40.5-89.4c-19.3-9-41.4-8.4-63.9,1.7c-19.3,8.7-35.6,22.8-45.9,33.3
			c-59,59.4-100,132.1-137.6,204.8L4493,1570z"/>
	</g>
	<g id="fingers-2">
		<path class="st10" d="M4840.2,1591.8c12.1,0.7,26.1,3,32.2,13.5c5.2,9,2.2,21-4.6,28.9s-16.6,12.4-26.3,16.1
			c-62.2,24-130.7,24.3-197.4,24.3c-10,0-21.6-0.8-27.1-9.2c-22-33.1,66.6-53.4,83-58.1C4745.6,1594.4,4793,1589.1,4840.2,1591.8z"
			/>
		<path class="st10" d="M4835.7,1673.3c13.1,1.7,26.7,4.7,36.5,13.5s14.1,24.9,6.1,35.4c-5.9,7.7-16.2,10.1-25.7,12.1l-156.8,31.9
			c-11.7,2.4-23.8,4.8-35.4,2.4s-23-10.9-24.8-22.6c-4.9-30.7,54.9-50.4,76.1-58.2C4751.2,1673,4793.8,1668.1,4835.7,1673.3z"/>
		<path class="st10" d="M4870.6,1753.4c7.7-1.1,15.7-2.1,23.3-0.5s15.1,6.4,17.8,13.7c5.2,13.7-7.5,27.4-19.8,35.3
			c-26.2,17-56.2,27.2-85.9,37.3c-39.8,13.4-81.7,27.1-123,19.3c-8.7-1.6-18.1-4.9-22.5-12.6
			C4630.1,1792.1,4844.3,1757.2,4870.6,1753.4z"/>
		<path class="st10" d="M4836.6,1853.6c10.6-2.6,21.5-5.2,32.5-4.4s22.1,5.6,28,14.8c8.4,13.3,3,31.7-8,42.8s-26.5,16.5-41.5,21.2
			c-30.4,9.6-61.5,17.7-93.4,19.7c-13.1,0.8-26.8,0.4-38.6-5.3s-21.3-18-20.1-31.1c2.2-24,29.7-31.5,48.8-35.4
			C4775.2,1869.8,4805.9,1861,4836.6,1853.6z"/>
	</g>
</g>
<g id="head">
	<path id="head-2" class="st1" d="M3411.3,2537.6c-40.5-15.8-77.4-44.2-110.4-73.5c-41.2-36.7-80-76-116-117.9
		c-17.8-20.6-34.9-41.8-51.3-63.6c-15.7-20.9-32.7-40.9-40.7-66c-9.7-30.7-15.5-64.7-3.7-94.6c10.7-27.4,34.3-47.4,57-66.2
		l259.3-214.6c19.1-62.9,84.9-104.6,150.5-107.1s129.2,28.9,177.4,73.5s83,101.7,114.1,159.6c25.4,47.2,48.9,96.2,58.7,148.8
		c10.4,55.8,5,114.1,20.1,168.8c14.6,52.8,47.2,98.4,77.6,144s59.7,94.3,66.1,148.7s-16.1,115.9-65.9,138.9
		c-50.3,23.2-110.1,1-155.7-30.4c-39.5-27.2-73.2-61.9-107.1-95.6c-27.7-27.5-47.3-60.2-89.2-66.7c-29.4-4.6-59.3,2-88,9.6
		s-57.6,16.5-87.3,16.8C3454.1,2550.6,3432.2,2545.8,3411.3,2537.6z"/>
	<g id="face">
		<path id="nose" class="st13" d="M3455,2202.8c9.4,46.4,23.8,91.6,43.1,134.8c3.9,8.8,8.6,18.2,17.1,22.8
			c10.9,5.9,24.6,2.1,35.6-3.6c26-13.5,46-36.1,56.3-63.5"/>
		<g id="mouth">
			<path class="st13" d="M3706.7,2379.3c24.7-24.3,38.4-58.5,41.4-93s-3.8-69.4-15.5-102"/>
			<path class="st13" d="M3697.5,2155.4c19.2,16.8,49.2,20.1,71.5,7.7"/>
		</g>
		<path id="eye_right" class="st14" d="M3592.4,2012c1.9,3.5,3.3,7.5,2.7,11.4c-1.1,7.4-8.4,12.1-15.1,15.2
			c-8.5,4-17.5,7.3-26.9,7.2s-19.1-4.5-23.6-12.6c-7.1-12.8-0.2-39.1,14.9-44.1C3562.1,1983.3,3584.4,1996.8,3592.4,2012z"/>
		<path id="eye_left" class="st15" d="M3307,2207.5c1.2,9.2-4.6,18.7-13,22.4s-18.9,2-26.2-3.8c-11.4-9.1-18-33.8-0.7-40.4
			C3282.2,2179.9,3304.8,2191,3307,2207.5z"/>
	</g>
</g>
<g id="hair">
	<path class="st16" d="M3851.2,2014c-34.4-81-76.1-160.2-135.2-225.4s-137.5-115.8-224.5-129c-66.9-10.2-135.8,2-199.1,25.9
		c-115.4,43.6-217.2,129.8-265.7,243.2s-37.7,253.9,39.3,350.3"/>
	<path class="st16" d="M3705.9,1761.4c-13.6-39.4-51.9-69-93.4-72.2c6.2,9.3,0.9,23-8.8,28.6s-22,4.6-32.6,1s-20.3-9.5-30.7-13.7
		c-39.9-16-84.9-4.7-126.3,6.7c-20,5.5-40.2,11.1-58.5,20.8c-19.3,10.2-35.9,24.7-52.4,39c-24.6,21.4-51.5,48.6-47.1,80.9
		c1.2,8.6,4.5,17.5,1.2,25.5c-2.9,7-10.1,11.1-16.9,14.6l-48.9,25.6c-7.9,4.1-18.4,8-25,2c-4-3.6-4.8-9.4-5.3-14.8
		c-2.7-27-5.4-53.9-8.2-80.9c-25-22.2-63.5-28-93.9-14s-51.2,46.8-50.6,80.3c-48.6,86.4-68.9,200.2-50.6,297.6"/>
	<path class="st17" d="M3914.7,2047.4c-18-121.8-78.6-237.7-171.4-318.7s-217.5-125.6-340.4-117.6s-242.1,69.8-316.2,168.2
		c-72,95.7-98.9,218.4-105,338c-3.3,64,0.2,132.7,37.3,185"/>
	<path class="st17" d="M3091.2,2241.9c-37.8-98.7-42.5-209.8-13.2-311.3c12-41.3,29.9-81.9,59-113.6c27.1-29.5,62.7-50,99.3-66.3
		c75.9-33.6,160.5-50.6,242.8-39.6s162,51.6,212.5,117.5"/>
	<path class="st17" d="M3139.8,2197c-13.1-74.8-14.8-151.2-5.3-226.5c4.7-37,12.6-74.8,33.3-105.8c16.7-24.9,40.8-44,66.7-59
		c79.2-45.9,178.8-54.9,264.9-24.1c33.2,11.9,64.2,29.3,95,46.5"/>
	<path class="st16" d="M3211.2,2138.7c-50.2-142.5-44.7-303.8,15.2-442.4"/>
	<path class="st17" d="M3242.6,2087.2c-29.8-95.2-13.1-197.7-1.7-296.8c4.3-36.6,7.8-73.6,19.1-108.7s31.2-68.7,61.9-89.1"/>
	<path class="st16" d="M3302.6,2041c-45.9-93.5-32.7-213.1,32.5-294.3"/>
	<path class="st17" d="M3408.4,1705.5c-78.4,85.7-97.5,210.2-48.4,315.4"/>
	<path class="st17" d="M3425.1,1971.6c-55.3-99.8-43-223.3,30.9-310.2"/>
	<path class="st16" d="M3478.2,1931c-23.5-72.2-7.9-155.8,39.9-214.7"/>
	<path class="st17" d="M3537.3,1878.8c-3.1-25-8.9-47.8-5.8-73.5c3.6-30.4,7.7-95.6,47.3-103.1"/>
	<path class="st17" d="M3787.1,1733.4c-57.5-61.3-149.8-74.4-222.1-31.5"/>
	<path class="st17" d="M3736.2,1764.4c-11.2-38.4-38.9-70.3-71.2-93.9s-69.3-39.8-106-55.8c-22.8-10-45.9-20-70.5-24.1
		s-51.1-1.6-72,12"/>
	<path class="st17" d="M3661.9,1623.2c-38.3,4.5-77.3,9.2-112.6,24.7s-67.1,43.7-77.4,81"/>
	<path class="st17" d="M3584.6,1585.8c-32.9,27.8-66,55.8-94.1,88.5s-51.1,70.7-60.9,112.7c-9.4,40.6-6,83.6,6.8,123.3"/>
	<path class="st17" d="M3108.5,2219.3c2.6-63.9-12.6-127.2-16.9-191c-4.3-63.8,4.3-133,46.7-181"/>
	<path class="st16" d="M3179.2,2186.7c-20-53-24.6-110.6-13.4-166.2"/>
	<path class="st16" d="M3287.8,2072.2c-39.3-46.6-53.5-113.2-36.6-171.7"/>
	<path class="st16" d="M3403.7,2010.9c-20.3-25.9-29.7-59.1-31.2-91.9s4.5-65.6,12.5-97.5c9.5-38.2,22.3-76.2,44.3-108.8
		s54.5-59.5,92.9-68.4"/>
	<path class="st17" d="M3335,2032.8c-33.9-51.2-46.9-115.8-35.4-176.1c12.2-64.2,49.8-120.3,73.4-181.2"/>
	<path class="st16" d="M3519.1,1914.8c-11.6-8.6-17.7-23.1-19.1-37.5s1.3-28.8,4.5-42.9c3.1-13.7,7.4-28.4,18.7-36.9"/>
	<path class="st16" d="M3650,1838.4c-26.9-27.5-58-50.6-92-68.5c-11-5.8-25.4-10.7-35-2.7"/>
	<path class="st16" d="M2971.8,2316.7c-33.1-66.5-45.4-142.2-42.4-216.5c3-74.2,20.9-147.3,45.7-217.3c10.8-30.6,23.1-61,41.6-87.6
		c27.9-40.2,68.9-70.1,113.1-91.2s91.9-33.9,139.4-45.5"/>
	<path class="st16" d="M3055.6,2226.7c-47.5-100.7-40.9-225,17-320.1"/>
	<path class="st16" d="M3753.2,1779.7c59.4,65,101,144.3,120.6,230.1"/>
	<path class="st16" d="M3746.4,1688.9c-35.3-61-95.4-107.2-163.4-125.8c-31.4-8.6-67.5-10.7-94.1,8.1"/>
	<path class="st17" d="M3716.3,1664c-36.5-41.9-83.7-72.9-136.6-89.8c-9.1-2.9-18.7-5.3-28.1-3.7s-18.5,8.4-20,17.8"/>
	<path class="st14" d="M3321.9,1604.5"/>
	<path class="st17" d="M3289.8,1548.6c-58.5-127.7-33-278.2,64.1-379.6c16.4-17.1,34.6-32.5,49.6-50.8s27-40.3,28-64
		c1.2-27.7-12.9-54.2-32.2-74s-43.5-34-67.4-47.9"/>
	<path class="st16" d="M3476.3,1505.8c-11.9-26.7-7.3-58.8,7.3-84.1s37.9-44.6,63-59.5s52.2-26,78.5-38.8
		c96.7-47.3,180.5-117.3,244.2-204"/>
	<path class="st16" d="M3452.9,1521.4c-21.1-40.3-10.1-91.3,15.8-128.7s64.2-63.9,101.9-89.3s76.4-51.2,103.4-87.7
		c20.4-27.6,33.3-60.3,55.1-86.9c28.9-34.8,70.9-56.3,116.1-59.4"/>
	<path class="st17" d="M3345.8,1519.7c-42.3-65.7-33-152,22.2-207.2c16.7-16.7,36.7-29.6,55-44.5c31.5-25.7,58.3-58.2,72.3-96.3
		c10.7-29.2,13.6-60.7,13-91.7c-0.9-40-8.9-82.6-36.8-111.3"/>
	<path class="st16" d="M3392.2,1515.9c-10.3-48.5-20.1-101.3,2.2-145.6c21-41.8,65.4-65.5,107.7-85.5s87.4-40.7,112.9-79.9
		c16.3-25.4,22.7-56,17.8-85.8c-8.3-48.9-45.8-88.9-55-137.7c-1.8-9.8-2.4-20.1,1-29.4s11.7-17.4,21.6-18.1"/>
	<path class="st16" d="M3424.2,1521.5c-3-29-6-58.2-2.5-87.1s14.1-57.8,34.8-78.3c11-10.9,24.5-19.1,34.6-30.8
		c25.4-29.4,23.7-72.7,35.7-109.6c9.9-30.8,29.6-57.3,49.2-83c42.7-55.6,87.2-109.8,133.5-162.4"/>
	<path class="st16" d="M3381.1,1548.2c-13-61.1-25.7-125.8-5.1-184.8c10-28.7,27.5-54.1,42.1-80.8c49.3-89.7,67.1-196.2,49.9-297"/>
	<path class="st16" d="M3301.5,1464c-19.7-28.8-21.7-66.9-13.4-100.8s25.8-64.7,43.1-95c20.6-36,42.3-73.3,76.6-96.4
		c18.6-12.5,39.9-20.2,60.2-29.5c82.2-37.7,149.6-101.6,191.8-181.6"/>
	<path class="st17" d="M3321.5,1573c-12-60.3-14.9-122.9-3.8-183.4s36.4-119,76.7-165.4c23.4-27.1,51.5-49.7,77.1-74.7
		s49.5-53.1,61.6-86.8s10.6-73.9-11.1-102.4"/>
	<path class="st17" d="M3404.3,1541.7c3-46.7,6.2-93.6,16.4-139.3s27.6-90.5,56.7-127.2c26.3-33.3,61-58.6,94.1-85.1
		c60.8-48.7,117.4-102.4,169.3-160.6"/>
	<path class="st17" d="M3432.9,1549.9c10.2-48.7,20.6-98.1,43.1-142.5s58.8-84,106.1-99.5c20.7-6.8,42.7-8.7,63.6-14.8
		c40.3-11.7,74.9-38.4,102.6-69.9s49.2-67.9,70.5-104.1"/>
	<path class="st14" d="M3502.6,1527.4c-60.2,26.4-129.3,20-193.8,33c-8.2,1.7-18.1,5.8-18.1,14.2c0,4.8,3.8,8.9,8.2,10.8
		s9.3,2,14.1,1.8c60.2-1.4,117.4-25,176.4-36.6c6.1-1.2,12.4-2.3,18.4-0.8"/>
</g>
<path id="dress" class="st18" d="M4501.8,3911.9c-109.8-22.4-213.1-68.5-315.4-114.3c-134.7-60.3-271.9-122.2-380.9-221.7
	c-68.5-62.6-124.7-139.1-200.6-192.5s-182.6-79.2-260.6-29c88.5-76.1,57.3-231.9,139-315.3c57.8-59,153.5-60.6,232.4-36.6
	s150.6,68.7,230,91.1c-76.6-44.4-137.2-115.9-168.2-198.8c-48.1,41.5-127.9,18.3-167.7-31.2s-50.2-115.7-59.1-178.6
	c55.5-27.4,99.9-73.2,125.4-129.6l153,66.4c-0.7-80.2-1.3-161.8,21.6-238.6s73.1-149.7,147.4-179.9c-6.7,74.6,21.8,151.7,75.5,203.9
	c53.7,52.2,131.5,78.6,205.9,69.8c-9.7,90.4,41.2,176.1,98.8,246.4s125.3,135.3,160.3,219.2c32.2,77.2,33.6,163,38.3,246.5
	c7.1,126,22.9,252.7,64.9,371.7c30.3,85.6,74.6,167.2,135.3,235.2c78.1,87.6-23.4,121-104.5,127.5
	C4615.5,3928.2,4557.8,3923.4,4501.8,3911.9z"/>
<path class="st19" d="M466.8,4090.1L333,4264.9c-64.3,84.1-175.1,70.4-246.4,7C50.9,4240.2,17.9,4196.2,0,4151l72.6-84.2
	c2.1,34.8,30.2,69.2,54.7,91.8c25.8,23.7,68.3,44.4,95.2,10.5L360.5,3998c50-61.9,136-85.6,209.4-53.5
	c-78.7-66.7-155.3-135.5-230-206.6c-35.3-34.1-90.9-67.4-132.1-23.3c-42.3,45.3,11.7,111,45.2,142.7c-33.6,17-67.4,33.8-101.2,50.3
	c-74.9-80.5-127.7-202.6-40.4-294.3c89.3-93.9,229.1-23.5,305.9,50c116.3,110.1,237.4,214.7,363.4,313.8l-61.4,86.4
	C641.9,4003,528.2,4009.8,466.8,4090.1z"/>
<path class="st19" d="M719.3,4134.9c25.3-36.2,77-34.2,109.7-9.8c33,24.6,50.3,74.5,26.4,111.2c-24.3,37.4-76.5,36.3-109.5,11.8
	C712.3,4223,693.3,4172,719.3,4134.9z M550.1,4648c-52-37.6-78.4-115.3-38.5-171.4l142.7-206.1c33.3,25.3,66.9,50.3,100.7,75
	l-130.3,197.7c-13.2,20,2.5,43.8,19.1,55.4c13.6,9.5,30.9,16.4,47.9,15.4c-15.5,24.3-30.9,48.7-46.4,73
	C611,4685.5,577.4,4667.8,550.1,4648z"/>
<path class="st19" d="M1174.7,4915.9l-39.1,77.6c-33.9,2.2-68.6-11.5-97.4-28c-55.9-32.1-88.3-106.4-54.4-166l57.1-103.1
	c16-27.4,4.9-58.5-20.7-74.7c-32.7-20.8-71.5-10.8-97.1,16.5c-35.5,60.7-71,121.4-106.4,182.2c-37.4-24.1-74.5-48.7-111.4-73.6
	l187.4-304.5c34.6,23.4,69.5,46.4,104.6,69.1c-5.9,10-11.7,20-17.6,30.1c37.3-12.4,79.9,0.7,112.1,20.5
	c62.7,38.5,100.3,120.2,64,189.5l-53.4,102c-11,21,6.2,43,23.9,52.8C1140.4,4913.9,1158.1,4918.1,1174.7,4915.9z"/>
<path class="st19" d="M1720.7,5179.3c-10.3,27.2-20.5,54.4-30.8,81.6c-33.4,6.2-69.4-3.5-99.8-16.7c-42-18.2-74.7-58.6-77.5-105.3
	c-49.4,28.7-109.5,19.5-158.6-4.4c-98.6-48.1-156-163.4-105.2-266.2c48.1-97.4,165.5-123,259.1-76.3c42.4,21.1,78.9,54.6,95.3,100.1
	c5.4-12.8,10.8-25.6,16.2-38.4c37,17.1,74.2,33.8,111.6,50.1l-87.9,222c-8.9,22.1,9.8,41.7,28.8,49.5
	C1686.9,5181.4,1704.7,5183.4,1720.7,5179.3z M1535.1,5053.4c9.6-22.7,19.1-45.3,28.7-68c-0.1-42.4-28.9-81-65.8-99.4
	c-48.1-23.9-114-9.3-137.5,41.2c-24.3,52.1,8,115,57.8,138.8C1455,5083.6,1504.1,5082.6,1535.1,5053.4L1535.1,5053.4z"/>
<path class="st19" d="M1738.4,5286.9l34.6-94.4c10.1,18.2,26.9,37.9,46.4,45.9c17.6,7.2,41.6,4.6,48.2-16
	c7.2-22.5-5.4-49.1-12.2-70.7c-8.1-25.9-16.9-54.9-7.5-81.4c18.8-52.9,66.8-79.5,122-80.9c13.3,31.4,26.9,62.7,40.7,93.9
	c-20.8,1.3-41.4,9.8-47.9,31c-6.7,21.8,6.8,48.2,13.2,69c9.4,30.2,16.1,62.3,6.1,93.4c-21.4,66.4-94.4,87.6-155.5,64.1
	C1795,5328.6,1762.4,5311.6,1738.4,5286.9z"/>
<path class="st19" d="M3286.8,5555.1c-2.7,33.3-5.4,66.5-8.1,99.8c-32,13.3-67.1,13.6-100.7,10.3c-84-8.2-125.3-76.8-150.3-150
	c-16.7-48.8-52.2-107.6-107.7-117.4c-8.9-1.5-13.4-2.2-22.3-3.7c-32.5,64.5-84.9,116.7-152.2,144.1c-79.4,32.3-167.1,28.2-249.2,9.4
	l23.2-106c69,16.5,145.5,13.6,202.5-33.2c53.8-44.1,78.1-114.3,89.7-180.6c18.3-104.2-15.1-211.8-128.2-237.5
	c-63.5-14.4-137.6,7.5-152.3,78c-6.1,29,6.1,67.2,28.3,87.4c-34.2,21.1-68.7,41.8-103.5,62.1c-45.2-43.2-64.4-123-49-182.8
	c33.1-129,178.9-178.9,298.6-151.9c79.6,17.9,152.3,60.8,195.4,131.5c42.8,70.2,51.7,156,39.9,236c-2,13.5-4,27-7.1,40.3
	c14.6,2.4,29.2,4.7,43.8,7c75.4,11.9,113.1-55,121-120.3c8.5-69.7,17-139.3,25.4-209c40.9,5.4,81.8,10.3,122.8,14.7
	c-6.8,69.9-13.6,139.8-20.5,209.6c-9.5,103.9-90.3,180.9-196.6,170.5c64.7,15.4,94.9,60.1,120.5,117.4c17,38,37.4,79.7,84,83.8
	C3252.3,5566.1,3270.4,5562.8,3286.8,5555.1z"/>
<path class="st19" d="M3476.8,5688.8c-63.4-2.5-119.1-57.7-113.8-123.6c12.8-189.3,25.6-378.6,38.4-567.9c37.5,2.7,74.9,5.1,112.4,7
	l-25.5,554.3c-1.3,23.5,22,35.7,42.4,36.3c15.7,0.5,32.8-3.8,45.5-13.5c-0.9,29.2-1.8,58.5-2.7,87.7
	C3545.2,5687.1,3509,5690,3476.8,5688.8z"/>
<path class="st19" d="M3637.6,5173.8c0.9-42.5,39.8-74.4,81-74.1c40.9,0.3,78.6,33.3,79,75.3c0.4,42.9-38.5,75.7-80,75.4
	C3675.8,5250.1,3636.7,5217.3,3637.6,5173.8z M3772.8,5695.8c-64,0.4-121.8-51.2-119.8-117.3l4.4-254.6c39.5,0.7,78.9,1,118.3,0.9
	c0.3,80.1,0.7,160.2,1,240.3c0,23.2,24.1,34.4,44.1,34c16.1-0.4,33.4-5.4,45.9-16c0.6,29.2,1.2,58.5,1.7,87.7
	C3841.1,5689.6,3805.2,5695.6,3772.8,5695.8L3772.8,5695.8z"/>
<path class="st19" d="M4389.7,5467.2c12.6,112.1-75.4,200.3-183.7,209.6c-47.7,4.1-98.3-6.7-134.3-40l13.9,254.2
	c-43.9,2.6-87.8,4.7-131.7,6.3c-6.3-191.9-12.6-383.7-18.9-575.6c39.8-1.5,79.5-3.4,119.3-5.7c0.7,13.3,1.4,26.7,2.2,40
	c29.6-36.2,75.2-52.7,120.6-56.5C4281.1,5290.9,4377.7,5360.8,4389.7,5467.2z M4268,5480.7c-5-55-59.8-93.5-112.8-89.5
	c-40.5,3-79.4,29.5-93.2,68.5l4,74.3c18.5,37.8,62.6,58.3,103.3,55C4223.4,5584.5,4273.1,5537.3,4268,5480.7L4268,5480.7z"/>
<path class="st19" d="M5433.2,5233.9c-42.6,14.4-85.4,28.2-128.3,41.6c15.9,56,8.3,114.3-30.9,158.9c-41.7,47.4-104.7,73-164.3,88.4
	c-90.9,23.4-251.3,41.1-273.8-84.3c-9.7-53.8,23-118.8,76.8-135.8c-95.5,5.7-193.3-57.3-210.6-154.8
	c-28.5-160.5,114.4-267.3,253.1-303.3c103.8-26.9,258.8-12.6,294.2,109.8c29.3,101.3-42.2,190-133.3,226
	c-21.7-30.8-43.1-61.7-64.4-92.8c37.3-14.6,93.4-49.4,80.1-97.4c-17.7-63.7-107.2-49.6-155-37.2c-76.1,19.8-165.3,77.7-146.9,168.4
	c19.5,96.1,148.1,114.5,226.6,93.9c6.2-1.6,13.4-3.5,19.4-6.1l24.6,100.7c-40.1,10.7-146.1,33.9-132.1,93.1
	c9.7,40.9,80.5,29.3,110,21.8c57.3-14.6,145.1-56.3,125.1-129.8c-8.7-31.3-19.7-61.8-33-91.4c77.5-22.3,154.5-46.4,230.9-72.2
	C5412.1,5165.6,5422.7,5199.8,5433.2,5233.9z"/>
<path class="st19" d="M6646.9,4717c16.7,28.4,33.4,56.8,50.1,85.3c-19,31-47.9,54.5-77.9,72.8c-72,44-143.6,21-209.9-24.6
	c-42.7-29.4-106-52.6-155.8-26c-8.2,4.5-12.3,6.7-20.5,11.2c23.8,173.8-92.6,306.1-242.2,375.6l-41.2-99.8
	c66.7-30.2,127-80.7,147-153.5c18.6-67.8-0.2-139.7-29-201.6c-20.2-43.5-50.5-86.4-92.9-110.7c-46.6-26.6-99.8-22.1-147.2,0.1
	c-59.5,27.8-108.6,90.9-80.2,158c11.4,26.8,43.2,50.3,72.7,52.7c-16,38.4-32.4,76.6-49.2,114.6c-61.4-6.7-122.4-59.8-143.4-116.7
	c-46.8-126.4,45.1-255.9,157.4-308.6c73.6-34.6,157.9-47.3,235.2-17.1c75.4,29.5,131.7,93.5,167.1,164.5c6,12.1,12,24.3,17.1,36.9
	c13.4-7.3,26.8-14.7,40.1-22.2c67-37.2,63.6-113.2,31.6-173.4l-98-184.1c37-21.7,73.7-43.9,110.2-66.5l102.4,181.4
	c53.6,93.5,25,204.9-65.8,262.1c60.8-28,111.1-13,166.6,17.5c37.2,20.5,79,39.6,117.4,13.5C6624.4,4747.7,6637.5,4733.6,6646.9,4717
	z"/>
<path class="st19" d="M6885.1,4328c26.4,38.3,4,90-30,115c-19.8,14.6-45.6,21.7-70.1,17.2c-13.5,23.2-11.2,51.1-2.6,75.6
	c33.1,51.8,66.1,103.5,99.2,155.3c-36.6,25.7-73.4,51-110.5,75.8c-61.9-101.9-123.7-203.8-185.6-305.8c34.8-23.3,69.4-47,103.7-71.1
	l27.8,43.6c1.5-43.2,20.8-87.2,56.1-113.3C6806,4296.2,6859.2,4290.5,6885.1,4328z"/>
<path class="st19" d="M7242,4034.8c39.2,5.6,76.7,25.6,102.2,55.9c79,93.7,20.7,233.9-61,301.9c-36.8,30.6-80.5,53.3-128.6,61.3
	c-5.5,22.1-11.1,44.1-16.8,66.1c-22.7-0.4-45.4-0.9-68-1.5c5.8-21.9,11.4-43.7,17-65.7c-39.9-10-72.3-30.3-96-62.9
	c-67.2-92.1-16.9-226.3,64.9-293.7c34.9-28.7,75.4-50.5,120.6-58.8c3.9-22.2,7.7-44.5,11.5-66.8c21.8-0.4,43.5-0.9,65.3-1.5
	C7249.4,3991,7245.8,4012.9,7242,4034.8z M7112.9,4345.4c15.6-67.3,30.2-134.8,43.6-202.5c-16.7,4.8-32.2,14.4-45.5,25.4
	c-43,35.6-66.7,102.5-31.5,151.3C7087.8,4331.1,7099.3,4340.6,7112.9,4345.4z M7222.4,4142.5c-13,68.4-27.1,136.7-42.3,204.7
	c18-5.5,33.8-15.1,47.9-26.7c41.1-33.7,69.6-107,30.1-152.1C7248.3,4157.1,7236.1,4148.2,7222.4,4142.5z"/>
<path class="st19" d="M7658.9,4043.5c-44.3,43.5-123.4,63-170.1,8.3l-367.6-418.9c29.6-28.7,58.8-57.6,87.8-86.9l367.7,399.2
	c16.7,18.4,43,4.5,56.6-9.9c11.9-12.6,21.5-29.2,24.2-46.6l59.2,62C7708.3,3986.2,7684,4018.9,7658.9,4043.5z"/>
</svg>
