<svg id="Layer_1" data-name="Layer 1" xmlns="http://www.w3.org/2000/svg" viewBox="0 0 7716.64 5897.25">
    <defs>
        <style>.cls-1{fill:#d84444;}.cls-1,.cls-11,.cls-13,.cls-14,.cls-15,.cls-16,.cls-19,.cls-2,.cls-3,.cls-6,.cls-7,.cls-8,.cls-9{stroke:#000;}.cls-1,.cls-11,.cls-13,.cls-14,.cls-15,.cls-16,.cls-19,.cls-2,.cls-3,.cls-6,.cls-7,.cls-8{stroke-linejoin:round;}.cls-1,.cls-13,.cls-14,.cls-15,.cls-17,.cls-18,.cls-19,.cls-2,.cls-3,.cls-7,.cls-8{stroke-width:50px;}.cls-11,.cls-12,.cls-2{fill:#c8a4a8;}.cls-3{fill:#94553b;}.cls-4{fill:#46acce;}.cls-5{fill:#8a2475;}.cls-6{fill:#5d7034;}.cls-11,.cls-6{stroke-width:30px;}.cls-7{fill:#b3b9a4;}.cls-14,.cls-17,.cls-18,.cls-8{fill:none;}.cls-10,.cls-9{fill:#696472;}.cls-17,.cls-18,.cls-9{stroke-miterlimit:10;}.cls-9{stroke-width:35px;}.cls-13{fill:#ee5314;}.cls-14,.cls-15,.cls-16,.cls-17,.cls-18{stroke-linecap:round;}.cls-16{stroke-width:60px;}.cls-17{stroke:#dc694b;}.cls-18{stroke:#e99d60;}.cls-19{fill:#da0e1b;}</style>
    </defs>
    <title>logotina1</title>
    <path id="dress_underside" data-name="dress underside" class="cls-1" d="M3601.6,3460.58c9.29,19.23,25.77,34,43.25,46.29,75.83,53.15,173,65.5,254.7,109,59.32,31.56,108.73,78.51,162.79,118.42,77.67,57.33,164.93,100.07,251.64,142.48,128.4,62.8,257.44,125.86,394,167.91,50.12,15.41,118.32,19.18,170.62,16.18s185.48-68.3,177-120c-10-61-22.14-3.12-39-34-15.44-28.22-48.52-40.76-78.52-52.38-200.2-77.5-375-207.2-558.63-318.35s-387.27-206.8-601.93-203.67C3714.6,3333.42,3553.52,3361.07,3601.6,3460.58Z" transform="translate(-250.78 -58.82)"/>
    <g id="feet">
        <g id="foot_left" data-name="foot left">
            <path class="cls-2" d="M3924.6,3341.22c2.82-11,5.72-23,1-33.29-3.56-7.82-10.89-13.19-18.2-17.71-52.17-32.31-119.66-38.52-176.85-16.29,1.45-6.57-8.68-10.51-14.16-6.62s-6.92,11.29-7.89,17.94a2214.3,2214.3,0,0,0-16.66,487.66c1.88,24.54,4.38,49.78,15.91,71.52,11.77,22.18,31.9,38.69,52.8,52.6,32.26,21.47,85.91,57.15,126.83,48.65,49.63-10.3,21.15-74.07,15.74-106.74A1215.79,1215.79,0,0,1,3893,3519.29,1196,1196,0,0,1,3924.6,3341.22Z" transform="translate(-250.78 -58.82)"/>
            <path class="cls-3" d="M3526.42,3656c27.66,5,53.07,18.33,77.28,32.6,100.09,59,187.57,136.79,274.35,214,29,25.78,60.24,56.5,60.11,95.28-.1,31.94-23,60.43-51,75.77s-60.58,19.82-92.39,22.76c-54.78,5-111.61,6-163-13.68-74.37-28.59-127.26-97.75-155.06-172.41-22.34-60-30.66-123.93-36.13-187.37-1.7-19.7-6.22-41.56,11.7-54.89C3472.13,3653.42,3503.23,3651.86,3526.42,3656Z" transform="translate(-250.78 -58.82)"/>
        </g>
        <g id="foot_right" data-name="foot right">
            <path class="cls-2" d="M4203.82,4120.73c3.22,12.13,6.9,24.64,15.2,34.06,15.07,17.12,40.52,19.32,63.32,20.3l168,7.26a1076.31,1076.31,0,0,1-56-426.7c1.4-19.55,3.31-39.45-1.1-58.54-9.16-39.56-45-69-84.06-80.07-26-7.36-80.16-16.45-102.62,4.32-18.85,17.43-19.24,63.83-23,86.95a996,996,0,0,0-7,265.42A982,982,0,0,0,4203.82,4120.73Z" transform="translate(-250.78 -58.82)"/>
            <path class="cls-3" d="M4439.65,4175c-36.68-21.89-79.62-30.46-121.84-37a1587.59,1587.59,0,0,0-200-17.89c-28.83-.75-59.14-.35-84.37,13.63s-42.76,46.08-31,72.39c10.27,22.87,37,32.48,61,39.78,127.81,38.9,257.28,78.08,390.75,84,15.7.69,31.89.84,46.52-4.88,13.61-5.31,31.73-21.06,28.48-37.79-2.33-11.93-16.14-15.64-22.2-25.5-9.59-15.58-12.36-33.43-24-48.63A154.73,154.73,0,0,0,4439.65,4175Z" transform="translate(-250.78 -58.82)"/>
        </g>
    </g>
    <g id="skateboard">
        <path class="cls-4" d="M4444.7,4279.76c-398.17-53.6-771.55-276.55-1005.61-603.42-52.35-73.11-98.77-151.85-155.82-220.75-231.7,148.31-403.75,319.56-495.5,420.9,23.67,48.69,57.79,91.6,88.92,135.66,150.83,213.45,346.81,394.35,569.73,530.49,202.3,123.55,427.37,210.47,661,251.13C4213.85,4658.21,4360.6,4456.86,4444.7,4279.76Z" transform="translate(-250.78 -58.82)"/>
        <path class="cls-5" d="M4174.18,4804.1c109,15,222.16,19.61,326.92-13.92s200.39-111.52,230.5-217.32-22.49-235.68-126.75-270.73c-31.26-10.51-64.64-12.42-97.5-15.35q-31.38-2.8-62.63-7c-84.08,177.1-230.85,378.45-337.28,514C4107.42,4793.77,4110.76,4795.35,4174.18,4804.1Z" transform="translate(-250.78 -58.82)"/>
        <path class="cls-5" d="M3283.27,3455.59c-231.7,148.31-403.75,319.56-495.5,420.9-2.9-6-5.66-12-8.22-18.17-25.37-61-38.22-131.9-46.56-197.12-4.46-34.84-6.37-70.08-4.1-105.16,6.09-94.26,48.35-191.43,129.8-239.27C2967.5,3252.86,3112.06,3296,3208,3378,3208,3378,3251,3415.31,3283.27,3455.59Z" transform="translate(-250.78 -58.82)"/>
        <path d="M4322.72,4845.47c-54.93,0-107-5.49-152.56-11.64-129.14-17.46-258.18-49.28-383.53-94.57a1965.45,1965.45,0,0,1-355.84-171,1991,1991,0,0,1-316.69-239.88,1928.34,1928.34,0,0,1-261.91-298.9c-6.35-9-13-18.16-19.42-27-29.71-41-60.43-83.4-80.91-132.6-29-69.7-41.65-150.29-48.63-204.84-5.12-40-6.52-76.27-4.28-110.9,3.43-53,17.21-104.47,39.87-148.77,25.32-49.51,61.52-89.08,104.67-114.43,57.37-33.7,126.83-43.24,200.88-27.6,64.79,13.69,129.81,46.33,183.09,91.9,74.4,63.64,128.84,145.11,181.48,223.9,17.67,26.45,35.95,53.79,54.54,79.76a1414.21,1414.21,0,0,0,207.17,230.31,1484.23,1484.23,0,0,0,535.76,306.15,1413.17,1413.17,0,0,0,303.59,61.5l10.56.92c30.74,2.63,62.53,5.35,93.83,15.87,57.4,19.3,104.13,63.7,131.58,125,25.78,57.58,31.05,124,14.47,182.36-15.77,55.42-49,107.21-96,149.78-43,39-96.38,69.38-154.23,87.9C4447.78,4838.74,4383.53,4845.47,4322.72,4845.47ZM2758.83,3558c-2,30.76-.71,63.28,3.92,99.42,6.54,51.13,18.27,126.38,44.5,189.4,17.79,42.73,45.14,80.48,74.11,120.45,6.53,9,13.28,18.32,19.83,27.6a1867.44,1867.44,0,0,0,253.75,289.57A1929.64,1929.64,0,0,0,3462.06,4517a1905.74,1905.74,0,0,0,345,165.79,1807.23,1807.23,0,0,0,371.18,91.54c89.64,12.12,206.32,21.62,313.76-12.77,49.76-15.92,95.49-41.94,132.25-75.22,38.68-35,65.83-77.12,78.51-121.73,12.79-45,8.59-96.51-11.51-141.43-20.53-45.85-54.6-78.75-95.94-92.65-24.47-8.23-51.36-10.53-79.83-13l-10.77-.94a1473,1473,0,0,1-316.5-64.17,1544,1544,0,0,1-557.51-318.58,1473.72,1473.72,0,0,1-216-240.11c-19.16-26.75-37.71-54.51-55.64-81.36-52.71-78.87-102.49-153.38-170.6-211.64-45.78-39.15-101.36-67.13-156.5-78.78-41.25-8.72-102.17-12.22-158.08,20.62-33.77,19.84-61.24,50.12-81.64,90-19,37.06-30.51,80.4-33.41,125.31Z" transform="translate(-250.78 -58.82)"/>
        <path class="cls-6" d="M3370.6,4002.86l-78,77s-184-83-271-263l102-56S3192.6,3889.86,3370.6,4002.86Z" transform="translate(-250.78 -58.82)"/>
        <path class="cls-6" d="M3909.6,4355.86s118,131,260,185l-70,100s-207-10-332-204Z" transform="translate(-250.78 -58.82)"/>
        <path class="cls-7" d="M3851.6,4600.47c27.09,19.32,47.89,50,57.56,80.05a158.31,158.31,0,0,1-.81,98.41c-9.7,28.64-29.38,52.17-58.16,62.74-17.3,6.35-36,8.18-54.39,8-33.42-.4-68.5-8.33-92.81-31.27-33.31-31.44-46-90.8-36.75-134.61,6.49-30.84,26.08-55.44,50.73-74.14,29.27-22.22,65.8-36.38,102.48-25.26A111.56,111.56,0,0,1,3851.6,4600.47Z" transform="translate(-250.78 -58.82)"/>
        <path class="cls-8" d="M3821.94,4707.86c-2,6.15-6.62,11.16-12,14.66-10.94,7-26.82,8.2-35.81-2.68-6.5-7.87-6.66-18.8.24-26.34C3787.54,4679.09,3830.6,4680.48,3821.94,4707.86Z" transform="translate(-250.78 -58.82)"/>
        <line class="cls-8" x1="3539.82" y1="4656.04" x2="3877.82" y2="4344.04"/>
        <path class="cls-7" d="M4083.41,4261.31c23.16-1.91,46.75,2.44,65,12.71,25.35,14.28,45,37.09,60.1,61.95,10.24,16.83,18.71,35,22.24,54.39s1.85,40.11-7.28,57.56c-12.15,23.25-36.62,38.58-62.38,43.56s-52.62.56-77.32-8.3c-23.56-8.46-46.25-21.43-61.54-41.26-18.54-24-24.33-55.55-25.62-85.88-.68-16-.13-32.67,6.94-47.05C4018,4279.6,4050.26,4264,4083.41,4261.31Z" transform="translate(-250.78 -58.82)"/>
        <path class="cls-8" d="M4121.47,4373.37c1.27,1.53,2.51,3.35,2.31,5.34-.24,2.36-2.46,4.07-4.73,4.77a13.89,13.89,0,0,1-10.2-1,20.94,20.94,0,0,1-7.71-6.95c-3.81-5.49-.55-11.53,6.2-12C4112.74,4363.08,4118.36,4369.63,4121.47,4373.37Z" transform="translate(-250.78 -58.82)"/>
        <path class="cls-7" d="M3047.6,3965.28c31.57,24.36,52.81,59.93,67.55,97,8.69,21.84,15.47,45.36,12.16,68.63-2.9,20.46-13.56,39.32-27.77,54.33a129.21,129.21,0,0,1-162.74,20.48c-37.16-23.42-60.5-65.59-65.84-109.2-5.3-43.26,5.9-87.56,26.45-125.6,7.39-13.69,18.85-27.83,34.88-31.21a159.38,159.38,0,0,1,50.82-1.77C3006.47,3941,3028.92,3950.86,3047.6,3965.28Z" transform="translate(-250.78 -58.82)"/>
        <path class="cls-8" d="M3013.84,4088.25c-.66,6-3.87,11.89-9,15.09a18,18,0,0,1-21.87-2.79c-9.47-10-12.7-35.14,3-41C3002.2,4053.4,3015.38,4074.2,3013.84,4088.25Z" transform="translate(-250.78 -58.82)"/>
        <line class="cls-8" x1="2752.82" y1="4017.04" x2="3114.82" y2="3749.04"/>
        <path class="cls-7" d="M3325.48,3667.34a117,117,0,0,1,19.25,1.32c28.22,4.39,53.88,19.7,74.73,39.2,23.87,22.34,42.45,50.93,50.14,82.71A145.38,145.38,0,0,1,3452.71,3899c-9,14.78-21.13,28.25-36.92,35.28-16.22,7.21-34.82,7-52.33,4.09a182.07,182.07,0,0,1-152-189.15c1-20,6.29-40.94,22.37-54.27,14-11.57,33.07-15.82,50.07-20.9A152.79,152.79,0,0,1,3325.48,3667.34Z" transform="translate(-250.78 -58.82)"/>
        <path class="cls-8" d="M3374.6,3805.58c.27,7.09-4.4,13.73-10.5,17.37a27,27,0,0,1-22.82,2.13c-14.67-5.38-26.55-32.28-6.65-38.78C3347.88,3782,3373.94,3789.27,3374.6,3805.58Z" transform="translate(-250.78 -58.82)"/>
    </g>
    <g id="arm_left" data-name="arm left">
        <path id="arm" class="cls-2" d="M3256.7,3033.77c-10.73,1.38-23.23,2.19-30.69-5.64-7.17-7.52-6.2-19.39-4.76-29.68,8.37-59.63,14.73-86.25,23.09-145.88,105.88,23.4,216.32,20.84,323.32,3.27s211-49.86,313.38-85.66c24.76,44.31,51.49,101.5,54.87,153,1,15.52-9.73,14.32-23.8,18.76s-28.3,8.75-42.52,12.88q-41.25,12-83,22.32c-112.36,27.9-226.47,44.23-342,50.74C3373.6,3031.86,3320.33,3025.53,3256.7,3033.77Z" transform="translate(-250.78 -58.82)"/>
        <g id="scissors">
            <path class="cls-9" d="M2709.42,3024.49c-74,5.13-149.52,10.14-221.52-7.84-52.55-13.12-101.29-38-149.49-62.74-76.62-39.28-153.56-78.75-223.59-128.84-40.5-29-81.23-66.06-88.09-115.38l520.44,95c51.91,9.48,104,19,156.75,21.26,90.37,3.91,185.28-12.74,268.39,23,11.28,4.85,22.9,11.35,28.14,22.45,10.2,21.6-8,49.07-15.68,68.93-6.31,16.3-12.13,24.68-27.7,33-47,25.19-101.44,36.15-153.84,42.8C2772.08,3020.06,2740.74,3022.32,2709.42,3024.49Z" transform="translate(-250.78 -58.82)"/>
            <path class="cls-9" d="M2052,2482.3c104.47-34.44,211.55-69.29,321.5-66.12,94.41,2.73,185.9,33.51,272.15,72,113.63,50.73,221.31,115.64,315.9,196.51,22.09,18.89,44,39.45,55.75,66,8.07,18.34,16.6,71.69-12.75,77-21.63,3.89-61.63-28.65-80-38q-100-50.85-203.83-93.86c-138.37-57.71-280.57-105.88-424.44-147.9C2215.37,2524.37,2133.87,2502.67,2052,2482.3Z" transform="translate(-250.78 -58.82)"/>
            <path class="cls-9" d="M2996.88,2793.86c8,3.74,11.49,13,14.27,21.31,3.9,11.71,7.62,25.26,1.12,35.75-5.42,8.73-16.23,12.28-26.29,14.42-14.9,3.17-32.35,4-43.37-6.52-9.11-8.69-10.85-23.31-6.3-35,3.92-10.11,12.82-20.78,23-25.15C2969.08,2794.41,2986.94,2789.21,2996.88,2793.86Z" transform="translate(-250.78 -58.82)"/>
            <path class="cls-10" d="M3161.4,3226.31c-23.27,0-41.65-3.72-57.84-11.71-21.44-10.59-37.1-28.07-50.83-45.39-54.07-68.19-83.44-137.19-87.28-205.09-1.65-29,2.08-55.24,11.07-78,4.34-11,8.87-21.54,16.56-29.67a38.41,38.41,0,0,1,28.41-12.55,47.27,47.27,0,0,1,15.58,2.79c21.91,7.7,43.35,17,64.09,26l4.91,2.12c15.44,6.69,31.8,11.24,49.12,16,14.22,4,28.9,8,43.38,13.46,5,1.87,10,3.78,15,5.69h.13c19.29,7.4,37.51,14.39,56.42,19.31,4.58,1.19,10,2.05,15.77,3,17.34,2.73,38.92,6.12,54.38,22.25,9,9.34,13.48,20.69,16.71,30.56,14.52,44.31,10.62,87.32-12.28,135.35-13,27.37-34.87,50.15-54.5,68.82-27.82,26.45-64.73,32.49-90.08,34.72l-2.33.21C3186.6,3225.19,3174.05,3226.31,3161.4,3226.31Zm-144-334.43c-1.52,3.34-3,7-3.73,8.92-6.85,17.34-9.65,37.89-8.34,61.06,3.37,59.49,29.85,120.9,78.69,182.5,10.83,13.66,22.83,27.28,37.2,34.37,10.55,5.21,23.16,7.63,39.68,7.64,10.72,0,21.67-1,33.26-2l2.35-.21c30.78-2.72,51.76-10.3,66-23.87,17-16.15,35.72-35.55,46-57,18.69-39.23,21.79-70.84,10.37-105.69-2.6-7.93-4.86-12.51-7.57-15.34-5.7-5.94-16.26-8-31.72-10.41a196.07,196.07,0,0,1-19.63-3.76c-21.08-5.48-41.21-13.2-60.68-20.67l-.46-.17q-7.17-2.76-14.33-5.46c-12.85-4.81-26.06-8.48-40-12.37-17.89-5-36.35-10.1-54.32-17.88l-4.89-2.12c-18.06-7.83-36.73-15.93-55.29-22.74l-8.69-3.2Z" transform="translate(-250.78 -58.82)"/>
            <path d="M3021.5,2853.86a37.11,37.11,0,0,1,12.25,2.23c21.57,7.58,42.86,16.81,63.47,25.75l4.87,2.11c16.08,7,32.76,11.6,50.45,16.51,14,3.89,28.45,7.91,42.52,13.18,4.93,1.85,10,3.78,14.84,5.65l.16.06c19.56,7.5,38,14.59,57.5,19.65,5,1.31,10.72,2.21,16.73,3.15,15.86,2.49,35.59,5.6,48.71,19.29,7.56,7.87,11.4,17.51,14.43,26.76,6.89,21,9.34,41.32,7.5,62-1.88,21.05-8.2,42.61-19.3,65.91-12.34,25.9-33.4,47.83-52.37,65.87-11.29,10.74-24.92,18.6-41.66,24-16.06,5.22-31.9,7.05-42.41,8l-2.33.21c-11.43,1-23.25,2.06-35.46,2.06-21.67,0-38.65-3.39-53.41-10.68-19.68-9.71-34.42-26.23-47.43-42.63-52.76-66.55-81.4-133.65-85.13-199.44-1.56-27.54,1.94-52.37,10.39-73.78,4.12-10.43,8-19.62,14.53-26.48,5.9-6.24,13-9.41,21.15-9.41h0M3161,3196.31c11.16,0,22.85-1,34.14-2l2.34-.21c33.16-2.93,56.05-11.37,72.05-26.58,17.64-16.78,37.15-37,48.09-60,19.64-41.2,23-76.09,10.85-113.11-3.13-9.56-6-15.11-9.85-19.14-7.87-8.21-19.91-10.62-37.41-13.38a188.87,188.87,0,0,1-18.64-3.55c-20.54-5.34-40.4-13-59.62-20.33l-.42-.16c-4.72-1.81-9.6-3.68-14.44-5.49-13.26-5-26.67-8.7-40.9-12.65-17.53-4.87-35.66-9.91-53-17.42l-4.89-2.12c-18.19-7.88-37-16-55.82-23l-17.39-6.39-7.7,16.85c-1.63,3.58-3.18,7.52-3.93,9.41-7.38,18.7-10.42,40.67-9,65.3,3.49,61.59,30.69,124.89,80.83,188.14,11.56,14.58,24.48,29.16,40.61,37.12,12,5.92,26,8.68,44.11,8.68m-139.47-362.47a48.26,48.26,0,0,0-35.68,15.68c-8.91,9.43-13.88,20.93-18.59,32.87-9.53,24.12-13.48,51.8-11.76,82.25,4,70,34.06,140.89,89.43,210.73,14.46,18.23,31,36.69,54.25,48.14,20.32,10,41.86,12.75,62.26,12.75,13.09,0,25.71-1.12,37.22-2.14l2.33-.21c26.84-2.36,66-8.82,96.09-37.44,20.3-19.3,42.9-42.91,56.64-71.75,24.07-50.51,28.12-95.87,12.75-142.77-3.58-10.94-8.64-23.58-19-34.38-17.8-18.55-42.22-22.39-60-25.2-5.5-.86-10.71-1.68-14.8-2.75-18.37-4.78-36.34-11.67-55.36-19q-7.57-2.91-15.15-5.77c-14.9-5.58-29.8-9.72-44.21-13.73-17-4.71-33-9.17-47.83-15.58l-4.87-2.11c-20.91-9.07-42.53-18.45-64.79-26.27a57.12,57.12,0,0,0-18.89-3.36ZM3161,3176.34c-13,0-25-1.56-35.26-6.61-12.59-6.21-23.68-18.87-33.78-31.61-47.54-60-73.29-119.46-76.54-176.86-1.23-21.71,1.34-40.83,7.65-56.82.72-1.81,2.11-5.34,3.53-8.44,18.28,6.72,36.79,14.74,54.75,22.53l4.9,2.12c18.6,8.06,37.42,13.29,55.61,18.35,13.77,3.82,26.77,7.43,39.21,12.09q7.36,2.77,14.72,5.61c19.73,7.57,40.13,15.39,61.74,21,7,1.81,13.89,2.9,20.59,4,9.92,1.56,22.27,3.51,26.06,7.46,2.29,2.39,4.55,9.27,5.29,11.53,10.54,32.19,7.58,61.58-9.9,98.27-9.54,20-27.51,38.58-43.83,54.09-12.53,11.93-31.61,18.65-60,21.16l-2.36.2c-11.18,1-22.09,2-32.37,2Z" transform="translate(-250.78 -58.82)"/>
            <path class="cls-10" d="M3247.6,2938.08a353.53,353.53,0,0,1-79.64-9.18,363.12,363.12,0,0,1-82.06-29.75c-26.94-13.64-54.56-29.16-74-50.19-11.77-12.74-11.07-30.17-10.6-41.7v-.2c0-1.16.09-2.27.11-3.34a178.25,178.25,0,0,1,6.86-44.48,175.52,175.52,0,0,1,44-75.56c22.8-22.87,51.79-39.34,86.16-49a258.4,258.4,0,0,1,69.47-9.21,281,281,0,0,1,28.43,1.44,319,319,0,0,1,108.33,31c16.53,8.08,40.1,21.48,54,44.35,19.88,32.68,14.14,70.89,6.55,107.23-5.64,27.06-13.38,64.11-38.4,90.06-22.29,23.13-55.21,35.57-100.62,38.05-6.17.33-12.45.51-18.66.51Zm-39.75-272.59a217.51,217.51,0,0,0-58.58,7.74c-27.66,7.75-50.75,20.76-68.63,38.69a135.57,135.57,0,0,0-33.89,58.33,138.26,138.26,0,0,0-5.32,34.47c0,1.32-.09,2.71-.15,4.15-.1,2.57-.25,6.4-.11,9.24l.19,3.89,2.76,2.73c15.38,15.22,38.88,28.12,59.85,38.73a323,323,0,0,0,73,26.47,313.28,313.28,0,0,0,70.62,8.15h0c5.48,0,11-.15,16.47-.45,34.36-1.88,59.26-10.58,74-25.87,15.76-16.35,21.79-40.55,28-70.48,6.19-29.69,10.74-58-1.57-78.26-8.46-13.91-25.41-23.33-37.43-29.21a279.31,279.31,0,0,0-94.79-27.07,243.76,243.76,0,0,0-24.47-1.25Z" transform="translate(-250.78 -58.82)"/>
            <path d="M3207.9,2635.5h0q13.74,0,27.42,1.39a309.34,309.34,0,0,1,105,30c15.39,7.53,37.31,19.94,49.87,40.57,18,29.59,12.78,64.18,5.3,100-5.7,27.31-12.79,61.3-35.8,85.17-20.46,21.22-51.2,32.67-94,35-6,.33-12.08.5-18.12.5a343.33,343.33,0,0,1-77.37-8.92,352,352,0,0,1-79.8-28.94c-26.11-13.21-52.81-28.18-71.15-48-9-9.7-8.38-24.05-8-34.52v-.21c0-1.2.09-2.37.12-3.48a167.85,167.85,0,0,1,6.47-42,165.52,165.52,0,0,1,41.49-71.25c21.57-21.63,49.09-37.24,81.78-46.4a247.73,247.73,0,0,1,66.77-8.84m-174.67,192.57a20,20,0,0,0,10.69,10c15.86,13.42,36.69,24.76,55.48,34.27a332.82,332.82,0,0,0,75.27,27.29,323.38,323.38,0,0,0,72.88,8.41c5.67,0,11.39-.16,17-.47,37-2,64.11-11.74,80.67-28.91,17.61-18.27,24.05-43.84,30.63-75.37,6.62-31.73,11.39-62.15-2.82-85.51-9.82-16.15-28.43-26.56-41.57-33a289.25,289.25,0,0,0-98.18-28q-12.71-1.29-25.5-1.3a227.38,227.38,0,0,0-61.28,8.11c-29.33,8.22-53.9,22.1-73,41.26a145.62,145.62,0,0,0-36.42,62.64,148.13,148.13,0,0,0-5.71,37c0,1.27-.08,2.61-.14,4-.14,3.59-.26,7.07-.11,10.1l.38,7.77,1.72,1.7m174.67-212.57a269.43,269.43,0,0,0-72.17,9.58c-36,10.1-66.51,27.44-90.54,51.54a185.53,185.53,0,0,0-46.56,79.86,188,188,0,0,0-7.23,47c0,1.08-.08,2.21-.12,3.38-.5,12.39-1.34,33.11,13.24,48.9,20.5,22.19,49,38.26,76.82,52.32a373.34,373.34,0,0,0,84.32,30.58,362.88,362.88,0,0,0,81.88,9.43h0q9.61,0,19.2-.53h0c48.06-2.62,83.15-16.06,107.28-41.09,27-28,35.1-66.71,41-95,8-38.29,14-78.67-7.8-114.47-15.27-25.11-40.51-39.5-58.16-48.13A329.33,329.33,0,0,0,3237.31,2617a292.38,292.38,0,0,0-29.44-1.49Zm39.73,272.52a303.25,303.25,0,0,1-68.37-7.89,312.65,312.65,0,0,1-70.75-25.66c-20.44-10.34-43-22.74-57.33-36.91-.11-2.4,0-6,.13-8.35.06-1.49.11-2.93.15-4.3a128,128,0,0,1,4.93-32,125.62,125.62,0,0,1,31.36-54c16.65-16.69,38.27-28.84,64.25-36.12a208.08,208.08,0,0,1,55.88-7.37q11.76,0,23.47,1.19a269.59,269.59,0,0,1,91.42,26.11c10.88,5.33,26.17,13.76,33.27,25.43,10.42,17.12,6.1,43.36.33,71-5.92,28.33-11.54,51.15-25.45,65.58-12.93,13.41-35.6,21.09-67.36,22.82h0q-8,.43-15.93.44Z" transform="translate(-250.78 -58.82)"/>
        </g>
        <g id="fingers">
            <path class="cls-11" d="M3126,3049.47c-7.14-2.27-15.12-5.82-17.12-13-1.61-5.82,1.55-12.14,6.23-16s10.63-5.66,16.44-7.32c48.89-14,99.41-21.14,149.78-28,13-1.78,27.33-3.24,38.12,4.2a27.38,27.38,0,0,1,9.91,30.95c-7.46,20.65-44.7,27.78-63,32.57a255.84,255.84,0,0,1-89.84,7A247.54,247.54,0,0,1,3126,3049.47Z" transform="translate(-250.78 -58.82)"/>
            <path class="cls-11" d="M3134.53,2993.66c-13.58-.43-29.4-2.55-36.25-14.29-5.44-9.32-2.65-21.79,4.2-30.13s16.95-13.31,27.06-17.1c30-11.23,62.73-14.2,94.71-11.85s63.37,9.9,94.07,19.15c4.6,1.38,9.3,2.86,13.12,5.79s6.64,7.61,6,12.38c-.68,5.21-5.11,9.07-9.52,11.93-18.42,12-41.24,12.83-62.4,16.12a708.05,708.05,0,0,1-83.37,7.92Q3158.38,2994.42,3134.53,2993.66Z" transform="translate(-250.78 -58.82)"/>
            <path class="cls-11" d="M3304,2910.57a344.44,344.44,0,0,1-128.1-25.79c-9.94-4.09-20-8.89-26.93-17.12-4.33-5.16-7.28-12-5.88-18.63,1.67-7.86,9.19-13.42,17-15.19s16-.5,23.94.85c52.18,8.94,106.43,22.59,144.94,58.91,2.74,2.59,5.61,6.11,4.48,9.7-1,3-4.23,4.45-7.21,5.35a67,67,0,0,1-33.65,1.33" transform="translate(-250.78 -58.82)"/>
            <path class="cls-11" d="M3209.5,2826c-4.45-1.07-9.06-1.93-13-4.25s-7.18-6.54-6.84-11.11c.56-7.63,9.61-11.11,17.06-12.83,34.21-7.92,66.66-9.72,100.89-1.91,18.88,4.31,37.63,14.64,48,31,5.7,9,4.77,20.49,0,30-6.24,12.43-16.73,17.27-33,15-12.77-1.78-16.38-5.82-28.91-10.42C3265.08,2850.93,3239.37,2833.14,3209.5,2826Z" transform="translate(-250.78 -58.82)"/>
        </g>
    </g>
    <path id="dress_sleeve" data-name="dress sleeve" class="cls-1" d="M4540.6,2454.67c-.25-31.87,2-65.8-17.42-91.07-14.82-19.28-15-31.59-37.71-40.23a266.07,266.07,0,0,0-95.75-17.29c-9.93.06-20.09.73-29.26,4.54-9.92,4.12-18,11.6-25.83,18.93-19.78,18.5-39.78,37.26-54.29,60.13-24.39,38.45-31.29,85.44-32.36,131s3.11,91.23-1.6,136.52c-1.68,16.23-3.4,35.47,9.06,46,10.7,9,26.62,6.84,40.29,3.79,47.56-10.6,95.33-25.93,133.71-55.94,26-20.37-59.88-73.62-41.88-101.14,8.18-12.51,81.87,1.34,91.87-9.87,8.14-9.12.18,23.36,23.13,16.87C4526.33,2550.15,4541.13,2515.79,4540.6,2454.67Z" transform="translate(-250.78 -58.82)"/>
    <g id="arm_right" data-name="arm right">
        <g id="arm-2">
            <path class="cls-12" d="M4803.6,1719.86c-6.43-12.75,3.69-31.09,18.37-50.35l-98.94-55c-16.79,32.37-33.06,65.07-50.16,97a1782.44,1782.44,0,0,1-195.58,292.11c-102.1,124-222.83,237-288.85,383.44-15.07,33.41-24,79.56,5.7,101.06,14.59,10.55,32.71,10.25,49.52,14.19,19,4.47,28.08,19.62,44.9,25.56,29,10.26,63.78-58.09,79.06-78.23l158.67-209.11,87-114.68c15.68-20.66,32.06-41.93,54.89-54.22,46.61-25.09,103.56-5.79,156.47-7,33.77-.78,69-11.47,91.38-36.72,26.14-29.43,30.11-71.82,32.83-111.09,3.76-54.48,6.36-113.59-24.28-158.81C4909.79,1736.24,4815.48,1743.42,4803.6,1719.86Z" transform="translate(-250.78 -58.82)"/>
            <path d="M4868.6,1715.17c-12.3-1.77-31.53-4.54-40.94-7.85,1.16-3,3.58-7.79,8.61-15.07,2.35-3.39,5-6.89,7.76-10.46l-44.17-24.54c-3.47,4.68-6.72,9.36-9.61,14-5.35,8.62-21.62,34.85-9,59.84,12,23.71,43.6,28.26,80.24,33.54,13.79,2,36.48,5.25,43.43,9,24,36.87,22.82,85.92,19,141.47-2.72,39.33-6.6,73.72-26.58,96.21-15.35,17.28-42.05,27.6-73.27,28.33-15.27.35-31.2-1.2-48.07-2.85-39.89-3.88-81.13-7.9-119.66,12.83-28,15.09-47.4,40.62-63,61.13h0L4347.7,2434.61c-3.71,4.89-7.88,11.38-12.71,18.9-6.9,10.74-15.48,24.12-24.15,34.74s-13.75,14.1-15.95,15.29c-3.3-1.59-6.75-4.21-10.92-7.38-8.46-6.44-19-14.45-34.6-18.11-5.59-1.31-10.94-2.17-16.12-3-10.08-1.61-18.78-3-24.45-7.11-15.3-11.07-9.8-43.4,2.43-70.53,47.86-106.13,127.92-197,205.34-284.92,26.57-30.17,54.05-61.36,80-92.9a1810.24,1810.24,0,0,0,198.32-296.21c11-20.52,21.75-41.6,32.16-62q8.85-17.3,17.83-34.71l-43.73-24.29q-9.42,18.15-18.62,36.25c-10.31,20.18-21,41-31.73,61.15a1759.38,1759.38,0,0,1-192.83,288c-25.44,30.89-52.64,61.77-78.94,91.63-79.85,90.7-162.43,184.45-213.38,297.45-7.06,15.66-15.59,39.59-16.14,64.73-.81,36.75,15.85,56.64,30,66.86,15.32,11.08,32.26,13.8,45.87,16,4.5.73,8.75,1.41,12.6,2.31,5,1.17,9,4.12,15.76,9.23s15.21,11.57,26.52,15.57a43.06,43.06,0,0,0,14.44,2.47,49.47,49.47,0,0,0,23.36-6.15c8.19-4.32,16.27-10.89,24.72-20.08,13.23-14.41,24.92-32.62,34.31-47.24,4.09-6.36,7.94-12.36,10.47-15.7l245.69-323.79h0c14-18.38,28.37-37.38,46.82-47.32,25.14-13.52,57.19-10.4,91.12-7.09,17.6,1.71,35.8,3.49,54.08,3.06,45.71-1.06,84.59-17.08,109.49-45.11,32.93-37.06,36.48-88.45,39.08-126,3.5-50.73,8.31-120.21-28.52-174.56C4931.88,1724.27,4902.6,1720.05,4868.6,1715.17Z" transform="translate(-250.78 -58.82)"/>
        </g>
        <path id="comb" class="cls-13" d="M5167.84,1471.49c-63,11.26-111,67.81-127.71,129.63s-6.92,127.8,10.28,189.47c24.64,88.34,64.08,171.76,94.47,258.29s51.87,178.91,38.58,269.65-67,179.7-151.73,214.84-198.09.36-232.34-84.71c-31.67-78.62,7.68-165.49,32.21-246.62,57.63-190.57,32-394.93,10.1-592.82-37.51-338.79-61.77-687.93,33.81-1015.13,34.72-118.86,86.06-234.91,167-328.66S5236.37,101.7,5359.6,89.86c88.11-8.46,175.76-14.35,253.66,27.69,8.07,13.14,1.09,31.31-11.13,40.71s-28.11,12.24-43.32,14.8l-266.72,44.87c18.74-3.15,41.8,1,60.56,3.08a505.67,505.67,0,0,1,61,10.67c38.88,9.3,76.48,23.33,113.47,38.5,3.92,1.61,7.89,3.29,11.14,6s5.74,6.66,5.7,10.9c-.06,6.8-6.28,11.86-12.37,14.9-14,6.94-29.66,8.61-44.75,11.71-15.44,3.17-29.7,9.41-45.39,11.74a269,269,0,0,1-119.59-9c-5.74-1.8-16.29-8.4-22-8.06a447.61,447.61,0,0,1,181,27c15.43,5.72,32.43,14.41,36.24,30.42,6,25.19-23.88,43.13-48.8,50.18a550.78,550.78,0,0,1-211.93,17.19,994.46,994.46,0,0,1,196.7,13.31c23.58,4,53.64,18.1,48.42,41.44-3.75,16.74-23.73,23.33-40.65,26.18a563.23,563.23,0,0,1-187-.06c59.35,9,115,30.6,171.7,49.2l23.13,7.57c5.75,1.89,11.72,3.9,16.1,8.09s6.65,11.24,3.56,16.46c-2.2,3.71-6.44,5.61-10.45,7.18a242,242,0,0,1-85.28,16.62c-13.35.15-26.72,2.83-40.3,2.94a297,297,0,0,1-43.89-2.9,285.88,285.88,0,0,1-49.67-11.59l132.37,24c24.62,4.46,56,17.46,52.8,42.28-3.16,24.57-36.29,29.48-61,28l-172.16-10.64a1003,1003,0,0,1,173,9.56c27,3.85,61,17.56,58.6,44.69-1.69,18.9-21.28,30.49-39.17,36.82-46.8,16.57-101.39,27.73-149.54,15.64,23.69.75,19,6,75,18,16.62,3.56,32.37,3.74,46.29,10.6,12.46,6.14,26.69,10.28,36.24,21,5.7,6.36,9.06,14.45,11.68,22.57,1.46,4.5,2.72,9.32,1.55,13.9-1.82,7.07-8.79,11.42-15.43,14.47-20.93,9.64-43.87,13.45-66.64,15.7s-45.87,4.75-68.7,5.89q-29.16,1.46-58.4.17l183.25,46.39c10.34,2.61,21.93,6.22,26.54,15.83,5.06,10.56-1.44,23.74-11.27,30.1s-22,7.61-33.67,8.69l-192.82,17.9a265.19,265.19,0,0,1,83.79,15.94,271.59,271.59,0,0,1,39,17.71c11,6.07,23,6.93,34.61,12.11a111.08,111.08,0,0,1,22.35,13.35c5.24,4,10.58,9.74,9.51,16.26-1,6.3-7.49,10-13.34,12.57-26.9,11.79-55.89,18.34-85.11,20.76-7.33.61-14.68,1-22,1.06-6.3.1-13.23-1-19.31.74-14,4-28.63,5.91-43.1,8-13.19,1.87-26.41,3.4-39.66,4.75a487.54,487.54,0,0,1,230.73,32.7c8.18,3.3,17.78,9.36,16.4,18.07-.91,5.81-6.49,9.55-11.6,12.47a533.47,533.47,0,0,1-230.38,69,817,817,0,0,1,207.45,27.26c20.52,5.44,45,16.93,44.94,38.16,0,22.25-26.59,33.18-48.24,38.31C5300.47,1413.23,5231.43,1460.12,5167.84,1471.49Z" transform="translate(-250.78 -58.82)"/>
        <g id="thumb">
            <path class="cls-12" d="M4820.6,1671.27c19.77-26.37,48.83-54.75,56.1-73,12.4-31.08,33.07-58,53.07-84.84,14.48-19.44,29.14-39.93,33.58-63.76s-4.41-51.94-26.41-62.13c-28.06-13-59.78,7.94-81.57,29.89-56.68,57.08-96.29,127.42-133.5,199.28Z" transform="translate(-250.78 -58.82)"/>
            <path d="M4743.79,1628.86c36.1-69.7,75.14-139.16,129.35-193.75,13.57-13.67,31.49-26.45,45.47-26.45a18.43,18.43,0,0,1,7.85,1.63c9.57,4.43,15.11,20.07,12.35,34.86-3.32,17.78-15.12,34.7-29.06,53.4l-3,4c-19.79,26.52-40.26,53.94-53.26,86.52-3.07,7.7-16.85,23.82-27.92,36.77-9.33,10.91-18.88,22.08-27,33.27l44.19,24.41c6.32-8.21,13.67-16.8,20.84-25.19,16.22-19,30.23-35.35,36.36-50.73,10.56-26.48,28.21-50.11,46.89-75.14l3-4c13.67-18.35,32.39-43.48,38.11-74.11,6-32.32-5.94-73.4-40.48-89.4-19.33-9-41.42-8.36-63.88,1.71-19.27,8.65-35.62,22.85-45.94,33.25-58.95,59.36-100,132.1-137.65,204.8Z" transform="translate(-250.78 -58.82)"/>
        </g>
        <g id="fingers-2">
            <path class="cls-11" d="M5091,1650.6c12.12.7,26.06,3,32.17,13.52,5.23,9,2.23,21-4.57,28.86s-16.61,12.4-26.31,16.14c-62.22,24-130.68,24.3-197.37,24.29-10,0-21.59-.85-27.09-9.15-21.95-33.12,66.59-53.43,83-58.1A425.08,425.08,0,0,1,5091,1650.6Z" transform="translate(-250.78 -58.82)"/>
            <path class="cls-11" d="M5086.47,1732.14c13.07,1.68,26.68,4.68,36.52,13.46s14.15,24.94,6.13,35.39c-5.9,7.69-16.24,10.13-25.74,12.06L4946.6,1825c-11.68,2.38-23.75,4.76-35.42,2.36s-23-10.87-24.83-22.64c-4.87-30.72,54.91-50.38,76.07-58.21A262.47,262.47,0,0,1,5086.47,1732.14Z" transform="translate(-250.78 -58.82)"/>
            <path class="cls-11" d="M5121.35,1812.2c7.74-1.11,15.67-2.1,23.31-.47s15.06,6.39,17.82,13.7c5.17,13.69-7.49,27.36-19.77,35.34-26.23,17-56.21,27.22-85.85,37.25-39.78,13.45-81.74,27.09-123,19.32-8.72-1.64-18.11-4.86-22.49-12.59C4880.88,1850.94,5095.1,1816,5121.35,1812.2Z" transform="translate(-250.78 -58.82)"/>
            <path class="cls-11" d="M5087.34,1912.37c10.65-2.58,21.52-5.19,32.45-4.38s22.15,5.58,28,14.85c8.37,13.27,3.05,31.72-8,42.81s-26.52,16.5-41.49,21.2c-30.41,9.56-61.54,17.7-93.36,19.66-13.11.81-26.79.45-38.62-5.27s-21.31-18-20.1-31.1c2.24-24,29.67-31.53,48.81-35.36C5026,1928.6,5056.65,1919.86,5087.34,1912.37Z" transform="translate(-250.78 -58.82)"/>
        </g>
    </g>
    <g id="head">
        <path id="head-2" class="cls-2" d="M3662.09,2596.46c-40.51-15.76-77.45-44.16-110.41-73.46a1243.29,1243.29,0,0,1-116-117.86q-26.67-30.94-51.27-63.6c-15.71-20.86-32.72-40.95-40.67-66-9.74-30.7-15.46-64.66-3.73-94.65,10.72-27.42,34.29-47.39,57-66.16l259.32-214.64c19.06-62.88,84.87-104.59,150.54-107.08s129.23,28.87,177.45,73.51,83,101.74,114.07,159.63c25.35,47.18,48.94,96.19,58.73,148.84,10.39,55.8,5,114.13,20.1,168.84,14.6,52.81,47.24,98.42,77.6,144s59.69,94.34,66.12,148.74-16.14,115.92-65.89,138.86c-50.3,23.2-110.12,1-155.73-30.42-39.54-27.23-73.2-61.9-107.1-95.61-27.66-27.49-47.3-60.17-89.22-66.66-29.36-4.55-59.25,2-88,9.59s-57.57,16.52-87.29,16.8C3704.89,2609.38,3683,2604.6,3662.09,2596.46Z" transform="translate(-250.78 -58.82)"/>
        <g id="face">
            <path id="nose" class="cls-14" d="M3705.81,2261.65a643.24,643.24,0,0,0,43.12,134.84c3.94,8.84,8.61,18.17,17.13,22.78,10.93,5.93,24.58,2.12,35.64-3.56a118.34,118.34,0,0,0,56.31-63.47" transform="translate(-250.78 -58.82)"/>
            <g id="mouth">
                <path class="cls-14" d="M3957.49,2438.11c24.74-24.26,38.36-58.47,41.44-93s-3.78-69.35-15.53-102" transform="translate(-250.78 -58.82)"/>
                <path class="cls-14" d="M3948.25,2214.27c19.21,16.84,49.17,20.05,71.51,7.66" transform="translate(-250.78 -58.82)"/>
            </g>
            <path id="eye_right" data-name="eye right" class="cls-15" d="M3843.22,2070.86c1.86,3.53,3.28,7.5,2.72,11.45-1.05,7.39-8.36,12.05-15.11,15.24-8.46,4-17.52,7.34-26.87,7.17s-19.1-4.46-23.63-12.64c-7.08-12.81-.17-39.13,14.87-44.08C3812.83,2042.16,3835.16,2055.59,3843.22,2070.86Z" transform="translate(-250.78 -58.82)"/>
            <path id="eye_left" data-name="eye left" class="cls-16" d="M3557.81,2266.29c1.23,9.19-4.55,18.67-13,22.45s-18.93,2-26.18-3.77c-11.45-9.13-18-33.8-.68-40.45C3533,2238.75,3555.6,2249.86,3557.81,2266.29Z" transform="translate(-250.78 -58.82)"/>
        </g>
    </g>
    <g id="hair">
        <path class="cls-17" d="M4102,2072.86c-34.42-81-76.06-160.2-135.23-225.37s-137.52-115.77-224.54-129c-66.9-10.2-135.82,2-199.12,25.91-115.43,43.63-217.24,129.77-265.74,243.24s-37.68,253.88,39.29,350.34" transform="translate(-250.78 -58.82)"/>
        <path class="cls-17" d="M3956.71,1820.23c-13.59-39.39-51.89-69-93.43-72.24,6.21,9.32.87,23-8.84,28.62s-22,4.61-32.57,1-20.27-9.5-30.66-13.67c-39.88-16-84.89-4.74-126.31,6.66-20,5.5-40.17,11.07-58.49,20.77-19.3,10.21-35.95,24.66-52.41,39-24.59,21.4-51.51,48.59-47.06,80.88,1.17,8.56,4.54,17.51,1.24,25.49-2.9,7-10.13,11.07-16.86,14.59l-48.9,25.58c-7.92,4.14-18.39,8-25,2-4-3.6-4.75-9.44-5.29-14.78q-4.08-40.45-8.18-80.93c-25-22.24-63.48-28-93.91-14s-51.16,46.84-50.64,80.32c-48.63,86.44-68.86,200.16-50.55,297.64" transform="translate(-250.78 -58.82)"/>
        <path class="cls-18" d="M4165.47,2106.23c-18-121.82-78.65-237.66-171.42-318.66S3776.6,1661.92,3653.69,1670s-242.15,69.85-316.22,168.24c-72,95.67-98.89,218.37-105,338-3.28,64,.2,132.68,37.29,185" transform="translate(-250.78 -58.82)"/>
        <path class="cls-18" d="M3342,2300.73c-37.84-98.7-42.53-209.78-13.16-311.32,12-41.35,29.89-81.86,59-113.56,27.12-29.53,62.68-50,99.34-66.28,75.93-33.6,160.47-50.59,242.78-39.61s162,51.55,212.46,117.48" transform="translate(-250.78 -58.82)"/>
        <path class="cls-18" d="M3390.6,2255.86a761.51,761.51,0,0,1-5.3-226.51c4.7-37,12.56-74.79,33.34-105.8,16.66-24.86,40.78-44,66.68-59,79.19-45.88,178.75-54.93,264.93-24.1,33.24,11.9,64.21,29.26,95,46.53" transform="translate(-250.78 -58.82)"/>
        <path class="cls-17" d="M3462,2197.53c-50.2-142.46-44.67-303.76,15.19-442.45" transform="translate(-250.78 -58.82)"/>
        <path class="cls-18" d="M3493.4,2146.06c-29.81-95.18-13.14-197.72-1.66-296.79,4.25-36.61,7.81-73.62,19.11-108.71s31.22-68.65,61.85-89.14" transform="translate(-250.78 -58.82)"/>
        <path class="cls-17" d="M3553.35,2099.86c-45.94-93.5-32.74-213.06,32.48-294.29" transform="translate(-250.78 -58.82)"/>
        <path class="cls-18" d="M3659.18,1764.32a287.46,287.46,0,0,0-48.37,315.44" transform="translate(-250.78 -58.82)"/>
        <path class="cls-18" d="M3675.86,2030.45a274,274,0,0,1,30.89-310.2" transform="translate(-250.78 -58.82)"/>
        <path class="cls-17" d="M3729,1989.86c-23.49-72.15-7.94-155.76,39.9-214.65" transform="translate(-250.78 -58.82)"/>
        <path class="cls-18" d="M3788.06,1937.65c-3.13-25-8.86-47.85-5.79-73.52,3.63-30.43,7.74-95.64,47.26-103.06" transform="translate(-250.78 -58.82)"/>
        <path class="cls-18" d="M4037.9,1792.25a179,179,0,0,0-222.05-31.46" transform="translate(-250.78 -58.82)"/>
        <path class="cls-18" d="M3987,1823.2c-11.18-38.41-38.86-70.34-71.17-93.94s-69.3-39.79-106-55.81c-22.82-10-45.93-20-70.5-24.1s-51.14-1.62-72,12" transform="translate(-250.78 -58.82)"/>
        <path class="cls-18" d="M3912.73,1682c-38.33,4.52-77.3,9.22-112.64,24.73s-67.14,43.74-77.37,81" transform="translate(-250.78 -58.82)"/>
        <path class="cls-18" d="M3835.36,1644.57c-32.92,27.81-66,55.78-94.06,88.5s-51.13,70.66-60.88,112.65c-9.42,40.58-6,83.62,6.79,123.29" transform="translate(-250.78 -58.82)"/>
        <path class="cls-18" d="M3359.31,2278.13c2.63-63.94-12.57-127.18-16.88-191s4.32-133,46.7-181" transform="translate(-250.78 -58.82)"/>
        <path class="cls-17" d="M3430,2245.49a301.11,301.11,0,0,1-13.35-166.18" transform="translate(-250.78 -58.82)"/>
        <path class="cls-17" d="M3538.6,2131c-39.34-46.57-53.54-113.18-36.61-171.73" transform="translate(-250.78 -58.82)"/>
        <path class="cls-17" d="M3654.5,2069.75c-20.27-25.89-29.72-59.07-31.22-91.92s4.49-65.61,12.47-97.51c9.54-38.19,22.26-76.2,44.33-108.79s54.52-59.54,92.88-68.42" transform="translate(-250.78 -58.82)"/>
        <path class="cls-18" d="M3585.79,2091.63c-33.85-51.19-46.85-115.76-35.43-176.07,12.16-64.2,49.8-120.29,73.39-181.22" transform="translate(-250.78 -58.82)"/>
        <path class="cls-17" d="M3769.84,1973.61c-11.58-8.64-17.7-23.13-19.14-37.51s1.3-28.83,4.52-42.92c3.14-13.72,7.44-28.38,18.66-36.88" transform="translate(-250.78 -58.82)"/>
        <path class="cls-17" d="M3900.74,1897.21a371.42,371.42,0,0,0-92-68.48c-11-5.79-25.43-10.72-35-2.73" transform="translate(-250.78 -58.82)"/>
        <path class="cls-17" d="M3222.6,2375.52c-33.09-66.53-45.43-142.22-42.43-216.46s20.9-147.29,45.67-217.34c10.81-30.58,23.1-61,41.59-87.63,27.93-40.24,68.93-70.08,113.15-91.15s91.85-33.92,139.45-45.48" transform="translate(-250.78 -58.82)"/>
        <path class="cls-17" d="M3306.33,2285.53c-47.46-100.69-40.86-225,17-320.11" transform="translate(-250.78 -58.82)"/>
        <path class="cls-17" d="M4004,1838.5a509.15,509.15,0,0,1,120.58,230.13" transform="translate(-250.78 -58.82)"/>
        <path class="cls-17" d="M3997.21,1747.75c-35.32-61-95.35-107.23-163.36-125.79-31.41-8.57-67.53-10.65-94.14,8.11" transform="translate(-250.78 -58.82)"/>
        <path class="cls-18" d="M3967.05,1722.86a303,303,0,0,0-136.65-89.78c-9.08-2.88-18.67-5.34-28.06-3.72s-18.51,8.4-20,17.81" transform="translate(-250.78 -58.82)"/>
        <path class="cls-15" d="M3572.72,1663.28" transform="translate(-250.78 -58.82)"/>
        <path class="cls-18" d="M3540.6,1607.46a342.55,342.55,0,0,1,64.15-379.6c16.39-17.1,34.58-32.53,49.61-50.84s27-40.3,28-64c1.16-27.65-12.93-54.18-32.23-74s-43.53-34-67.44-47.93" transform="translate(-250.78 -58.82)"/>
        <path class="cls-17" d="M3727.06,1564.61c-11.95-26.65-7.28-58.76,7.26-84.08s37.86-44.58,63-59.52,52.24-26,78.49-38.83a667,667,0,0,0,244.22-204" transform="translate(-250.78 -58.82)"/>
        <path class="cls-17" d="M3703.65,1580.2c-21.08-40.25-10.06-91.31,15.79-128.67s64.21-63.89,101.89-89.26,76.37-51.2,103.37-87.74c20.41-27.61,33.34-60.34,55.13-86.87a165.64,165.64,0,0,1,116.07-59.41" transform="translate(-250.78 -58.82)"/>
        <path class="cls-18" d="M3596.6,1578.56a166,166,0,0,1,22.21-207.19c16.69-16.69,36.71-29.6,55-44.53,31.49-25.69,58.3-58.19,72.31-96.34,10.71-29.15,13.65-60.66,13-91.7-.86-40-8.89-82.58-36.8-111.25" transform="translate(-250.78 -58.82)"/>
        <path class="cls-17" d="M3643,1574.74c-10.29-48.46-20.08-101.35,2.16-145.61,21-41.76,65.43-65.52,107.68-85.47s87.41-40.68,112.86-79.87a122,122,0,0,0,17.76-85.79c-8.29-48.93-45.78-88.94-55-137.71-1.84-9.76-2.45-20.09,1-29.41s11.69-17.36,21.59-18.13" transform="translate(-250.78 -58.82)"/>
        <path class="cls-17" d="M3675,1580.34c-3-29-6-58.21-2.52-87.12s14.09-57.85,34.79-78.32c11-10.88,24.52-19.09,34.63-30.79,25.4-29.38,23.74-72.67,35.68-109.63,9.94-30.76,29.55-57.34,49.23-83q64-83.42,133.49-162.41" transform="translate(-250.78 -58.82)"/>
        <path class="cls-17" d="M3631.86,1607c-13-61.08-25.73-125.85-5.11-184.79,10-28.71,27.46-54.14,42.11-80.81,49.27-89.66,67.15-196.19,49.87-297" transform="translate(-250.78 -58.82)"/>
        <path class="cls-17" d="M3552.27,1522.86c-19.69-28.83-21.73-66.87-13.45-100.79s25.8-64.73,43.11-95c20.56-36,42.28-73.26,76.65-96.41,18.56-12.51,39.86-20.19,60.23-29.47a410.27,410.27,0,0,0,191.79-181.58" transform="translate(-250.78 -58.82)"/>
        <path class="cls-18" d="M3572.3,1631.78c-12-60.34-14.86-122.91-3.8-183.43s36.44-119,76.73-165.45c23.44-27.06,51.46-49.7,77.12-74.66s49.52-53.12,61.6-86.82,10.64-73.92-11.06-102.4" transform="translate(-250.78 -58.82)"/>
        <path class="cls-18" d="M3655.06,1600.54c3-46.72,6.2-93.64,16.37-139.34s27.65-90.47,56.71-127.17c26.32-33.25,61-58.63,94.12-85.14a1392.23,1392.23,0,0,0,169.27-160.59" transform="translate(-250.78 -58.82)"/>
        <path class="cls-18" d="M3683.68,1608.72c10.19-48.71,20.6-98.07,43.06-142.48s58.78-84,106.08-99.51c20.7-6.78,42.69-8.72,63.61-14.8,40.29-11.71,74.94-38.39,102.64-69.91s49.17-67.91,70.46-104.07" transform="translate(-250.78 -58.82)"/>
        <path class="cls-15" d="M3753.38,1586.21c-60.23,26.43-129.3,20-193.77,33-8.18,1.65-18.15,5.81-18.13,14.15,0,4.78,3.77,8.92,8.17,10.8s9.32,2,14.1,1.84c60.17-1.36,117.35-25,176.38-36.64,6.09-1.21,12.42-2.28,18.44-.77" transform="translate(-250.78 -58.82)"/>
    </g>
    <path id="dress" class="cls-19" d="M4752.6,3970.77c-109.81-22.38-213.13-68.49-315.43-114.26-134.7-60.27-271.93-122.17-380.89-221.7-68.53-62.6-124.69-139.12-200.61-192.51s-182.61-79.22-260.63-29c88.54-76.15,57.25-231.93,139-315.34,57.76-59,153.47-60.57,232.45-36.63s150.56,68.69,230,91.09c-76.63-44.35-137.16-115.89-168.21-198.81-48.08,41.48-127.9,18.25-167.69-31.24s-50.16-115.69-59.15-178.55a267.93,267.93,0,0,0,125.45-129.59l153,66.44c-.73-80.19-1.26-161.79,21.61-238.64s73.12-149.67,147.4-179.89c-6.73,74.62,21.81,151.67,75.53,203.91s131.53,78.61,205.93,69.8c-9.66,90.39,41.16,176.05,98.78,246.36s125.27,135.31,160.26,219.22c32.18,77.16,33.63,163,38.32,246.51,7.09,126,22.89,252.71,64.93,371.71,30.25,85.62,74.65,167.21,135.27,235.19,78.14,87.64-23.35,121-104.53,127.52C4866.3,3987,4808.6,3982.18,4752.6,3970.77Z" transform="translate(-250.78 -58.82)"/>
    <path d="M717.56,4148.87l-133.75,174.8c-64.32,84.11-175.15,70.37-246.41,7.05-35.68-31.71-68.73-75.66-86.62-120.85l72.55-84.2c2.15,34.77,30.18,69.24,54.66,91.76,25.8,23.74,68.32,44.4,95.23,10.45l138.07-171.06c50-61.87,136-85.59,209.44-53.48q-118-100-230-206.56c-35.35-34.14-90.86-67.4-132.12-23.28-42.33,45.26,11.71,111,45.18,142.72q-50.43,25.53-101.21,50.34c-74.9-80.49-127.68-202.55-40.43-294.27,89.33-93.91,229.05-23.53,305.9,50Q842.5,3887.5,1031.49,4036.1l-61.41,86.41C892.69,4061.79,779,4068.62,717.56,4148.87Z" transform="translate(-250.78 -58.82)"/>
    <path d="M970.05,4193.7c25.3-36.24,77-34.19,109.74-9.82,33,24.63,50.33,74.49,26.43,111.21-24.35,37.39-76.5,36.33-109.48,11.77C963.12,4281.81,944.11,4230.85,970.05,4193.7ZM800.89,4706.85c-52-37.59-78.38-115.29-38.47-171.4l142.67-206.06q50,38,100.74,75L875.55,4602.13c-13.18,19.95,2.54,43.79,19.14,55.42,13.56,9.51,30.9,16.43,47.89,15.44q-23.21,36.51-46.39,73C861.75,4744.33,828.21,4726.61,800.89,4706.85Z" transform="translate(-250.78 -58.82)"/>
    <path d="M1425.44,4974.7l-39.07,77.6c-33.89,2.2-68.64-11.51-97.43-28-55.86-32.07-88.33-106.37-54.37-166l57.07-103.12c16-27.42,4.86-58.49-20.73-74.73-32.74-20.79-71.46-10.8-97.14,16.46q-53.24,91.08-106.45,182.16-56.11-36.21-111.43-73.63l187.44-304.51q51.92,35.11,104.58,69.11-8.81,15-17.59,30.09c37.34-12.44,79.89.68,112.11,20.48,62.71,38.55,100.31,120.18,64,189.49l-53.45,102c-11,20.95,6.18,43,23.88,52.75C1391.22,4972.74,1408.88,4976.87,1425.44,4974.7Z" transform="translate(-250.78 -58.82)"/>
    <path d="M1971.5,5238.14q-15.4,40.78-30.8,81.59c-33.39,6.24-69.42-3.54-99.84-16.72-42-18.2-74.65-58.64-77.49-105.27-49.37,28.66-109.51,19.52-158.6-4.43-98.63-48.11-156-163.37-105.22-266.23,48.08-97.37,165.46-123,259.14-76.32,42.45,21.14,78.89,54.58,95.27,100.12q8.1-19.19,16.19-38.38,55.55,25.65,111.6,50.11l-87.87,222c-8.88,22.07,9.81,41.67,28.76,49.47C1937.67,5240.26,1955.49,5242.23,1971.5,5238.14Zm-185.61-125.88q14.35-34,28.7-68c-.09-42.37-28.9-81-65.83-99.35-48.09-23.88-114-9.31-137.52,41.16-24.31,52.1,8,115,57.81,138.78C1705.8,5142.38,1754.9,5141.37,1785.89,5112.26Z" transform="translate(-250.78 -58.82)"/>
    <path d="M1989.21,5345.69l34.62-94.36c10.14,18.21,26.91,37.89,46.43,45.92,17.58,7.24,41.62,4.6,48.21-16,7.22-22.55-5.37-49.07-12.16-70.72-8.13-25.92-16.91-54.91-7.53-81.38,18.77-52.93,66.84-79.51,122-80.92q20,47.1,40.66,93.87c-20.84,1.28-41.42,9.83-47.92,31-6.71,21.83,6.76,48.23,13.24,69,9.43,30.24,16.12,62.34,6.12,93.38-21.39,66.39-94.43,87.61-155.54,64.08C2045.76,5387.41,2013.16,5370.44,1989.21,5345.69Z" transform="translate(-250.78 -58.82)"/>
    <path d="M3537.57,5613.91q-4.05,49.88-8.08,99.76c-32,13.27-67.12,13.56-100.73,10.26-84-8.23-125.28-76.79-150.27-150-16.66-48.81-52.21-107.57-107.74-117.38-8.94-1.46-13.4-2.19-22.33-3.68-32.48,64.5-84.89,116.74-152.17,144.14-79.37,32.33-167.15,28.17-249.23,9.35l23.16-106c69,16.55,145.5,13.56,202.46-33.17,53.76-44.11,78.08-114.32,89.7-180.59,18.26-104.18-15.13-211.8-128.21-237.52-63.48-14.44-137.59,7.51-152.31,78-6.07,29,6.13,67.2,28.26,87.41q-51.37,31.65-103.46,62.13c-45.23-43.24-64.35-123-49-182.77,33.08-129,178.9-178.89,298.6-151.93,79.56,17.92,152.31,60.75,195.45,131.48,42.81,70.17,51.69,156,39.91,236-2,13.48-4,27-7.08,40.34q21.91,3.56,43.84,7c75.41,11.87,113.09-55.05,121-120.27q12.72-104.52,25.43-209,61.32,8.07,122.81,14.72-10.23,104.82-20.47,209.64c-9.47,103.92-90.27,180.85-196.57,170.47,64.74,15.42,94.86,60.09,120.51,117.38,17,38,37.39,79.68,84,83.76A103.8,103.8,0,0,0,3537.57,5613.91Z" transform="translate(-250.78 -58.82)"/>
    <path d="M3727.53,5747.57c-63.37-2.47-119.08-57.74-113.79-123.65Q3633,5340,3652.15,5056.06q56.19,4.08,112.43,7l-25.47,554.33c-1.27,23.48,22,35.7,42.36,36.31,15.67.47,32.79-3.8,45.51-13.55q-1.33,43.84-2.68,87.68C3796,5745.88,3759.74,5748.83,3727.53,5747.57Z" transform="translate(-250.78 -58.82)"/>
    <path d="M3888.38,5232.65c.93-42.54,39.8-74.39,81-74.09,40.94.3,78.63,33.26,79,75.25.36,42.89-38.47,75.7-80,75.41C3926.58,5308.92,3887.44,5276.15,3888.38,5232.65Zm135.2,522c-64,.39-121.77-51.19-119.79-117.25l4.41-254.56q59.18,1.05,118.34.86.49,120.15,1,240.3c0,23.22,24.08,34.4,44.11,33.95,16.06-.37,33.36-5.35,45.86-16.05q.87,43.86,1.72,87.71C4091.89,5748.37,4056,5754.42,4023.58,5754.62Z" transform="translate(-250.78 -58.82)"/>
    <path d="M4640.45,5526c12.57,112.14-75.4,200.31-183.66,209.63-47.72,4.12-98.32-6.72-134.32-40.05l13.86,254.19q-65.82,3.86-131.71,6.29-9.46-287.81-18.92-575.61,59.67-2.22,119.29-5.69,1.08,20,2.18,40c29.58-36.18,75.17-52.72,120.57-56.45C4531.88,5349.76,4628.51,5419.57,4640.45,5526Zm-121.67,13.48c-5-55-59.81-93.48-112.79-89.51-40.49,3-79.36,29.49-93.17,68.54l4.05,74.26c18.49,37.77,62.57,58.31,103.33,55C4474.18,5643.34,4523.89,5596.13,4518.78,5539.49Z" transform="translate(-250.78 -58.82)"/>
    <path d="M5684,5292.75q-63.91,21.56-128.32,41.62c15.9,56,8.34,114.32-30.85,158.87-41.66,47.36-104.66,73-164.33,88.35-90.85,23.41-251.26,41.07-273.76-84.31-9.66-53.79,23-118.83,76.77-135.78-95.49,5.72-193.3-57.3-210.6-154.76-28.49-160.45,114.41-267.33,253.14-303.26,103.77-26.88,258.76-12.58,294.17,109.81,29.3,101.27-42.23,190-133.29,226q-32.51-46.2-64.42-92.79c37.25-14.57,93.43-49.4,80.1-97.42-17.67-63.66-107.24-49.61-154.95-37.22-76.06,19.76-165.25,77.66-146.85,168.35,19.49,96.1,148.12,114.53,226.61,93.87,6.2-1.63,13.42-3.55,19.39-6.13l24.6,100.71c-40.1,10.68-146.13,33.87-132.06,93.15,9.72,40.93,80.51,29.27,110,21.78,57.34-14.59,145.1-56.29,125.11-129.78a641.56,641.56,0,0,0-33-91.39q116.24-33.52,230.87-72.19Q5668.15,5241.48,5684,5292.75Z" transform="translate(-250.78 -58.82)"/>
    <path d="M6897.66,4775.81q25.07,42.63,50.12,85.25c-19,31-47.94,54.49-77.86,72.8-72,44-143.62,21-209.93-24.64-42.66-29.38-106-52.6-155.8-26-8.2,4.48-12.3,6.71-20.51,11.16,23.83,173.84-92.62,306.09-242.24,375.61l-41.22-99.78c66.66-30.21,127-80.68,147-153.55,18.65-67.8-.24-139.69-29-201.64-20.2-43.54-50.46-86.4-92.94-110.67-46.62-26.64-99.78-22.08-147.19.09-59.52,27.84-108.56,90.92-80.22,157.95,11.36,26.84,43.22,50.31,72.66,52.73q-24,57.54-49.17,114.58C5960,5023.05,5899,4969.9,5878,4913c-46.81-126.39,45.15-255.89,157.39-308.65,73.59-34.59,157.88-47.34,235.18-17.08,75.4,29.51,131.66,93.45,167.12,164.52,6,12.11,12.05,24.31,17.11,36.9q20.11-11,40.14-22.16c67-37.17,63.65-113.19,31.58-173.41l-98-184.07q55.48-32.59,110.18-66.52l102.42,181.38c53.57,93.48,25,204.9-65.81,262.15,60.8-28,111.11-13,166.62,17.54,37.21,20.45,79,39.61,117.41,13.53A120.84,120.84,0,0,0,6897.66,4775.81Z" transform="translate(-250.78 -58.82)"/>
    <path d="M7135.88,4386.83c26.41,38.31,4,90-30,115-19.84,14.59-45.64,21.73-70.07,17.22-13.52,23.18-11.16,51.11-2.59,75.56q49.61,77.66,99.23,155.3-54.84,38.52-110.48,75.82-92.79-152.88-185.59-305.76,52.23-35,103.69-71.15l27.84,43.58c1.54-43.17,20.81-87.24,56.1-113.25C7056.8,4355,7110,4349.35,7135.88,4386.83Z" transform="translate(-250.78 -58.82)"/>
    <path d="M7492.8,4093.62c39.21,5.65,76.66,25.64,102.18,55.89,79,93.66,20.67,233.88-61,301.85-36.76,30.6-80.48,53.27-128.64,61.27q-8.27,33.09-16.82,66.12-34-.57-68.05-1.52,8.67-32.79,17-65.66c-39.94-10-72.26-30.27-96-62.88-67.21-92.15-16.92-226.31,64.94-293.72,34.88-28.72,75.43-50.52,120.58-58.81q5.88-33.36,11.45-66.76,32.64-.55,65.26-1.49Q7498.42,4060.79,7492.8,4093.62Zm-129.09,310.57q23.47-100.9,43.59-202.53c-16.7,4.82-32.24,14.37-45.52,25.36-43,35.61-66.72,102.48-31.55,151.3C7338.6,4389.93,7350.05,4399.46,7363.71,4404.19Zm109.45-202.86Q7453.69,4304,7430.82,4406c18.05-5.51,33.77-15.12,47.88-26.7,41.08-33.71,69.64-107,30.08-152.06A94.46,94.46,0,0,0,7473.16,4201.33Z" transform="translate(-250.78 -58.82)"/>
    <path d="M7909.67,4102.31c-44.28,43.48-123.42,63-170.12,8.3l-367.61-418.93q44.36-43,87.77-86.87L7827.43,4004c16.68,18.4,42.95,4.48,56.62-9.94,11.92-12.56,21.52-29.21,24.21-46.65l59.16,62C7959.07,4045,7934.75,4077.69,7909.67,4102.31Z" transform="translate(-250.78 -58.82)"/>
</svg>